<?xml version="1.0" encoding="utf-8" standalone="no"?>
<!DOCTYPE svg PUBLIC "-//W3C//DTD SVG 1.1//EN"
  "http://www.w3.org/Graphics/SVG/1.1/DTD/svg11.dtd">
<svg xmlns:xlink="http://www.w3.org/1999/xlink" width="576pt" height="252pt" viewBox="0 0 576 252" xmlns="http://www.w3.org/2000/svg" version="1.1">
 <metadata>
  <rdf:RDF xmlns:dc="http://purl.org/dc/elements/1.1/" xmlns:cc="http://creativecommons.org/ns#" xmlns:rdf="http://www.w3.org/1999/02/22-rdf-syntax-ns#">
   <cc:Work>
    <dc:type rdf:resource="http://purl.org/dc/dcmitype/StillImage"/>
    <dc:date>2024-05-14T11:36:17.973548</dc:date>
    <dc:format>image/svg+xml</dc:format>
    <dc:creator>
     <cc:Agent>
      <dc:title>Matplotlib v3.5.1, https://matplotlib.org/</dc:title>
     </cc:Agent>
    </dc:creator>
   </cc:Work>
  </rdf:RDF>
 </metadata>
 <defs>
  <style type="text/css">*{stroke-linejoin: round; stroke-linecap: butt}</style>
 </defs>
 <g id="figure_1">
  <g id="patch_1">
   <path d="M 0 252 
L 576 252 
L 576 0 
L 0 0 
z
" style="fill: #ffffff"/>
  </g>
  <g id="axes_1">
   <g id="patch_2">
    <path d="M 67.236 85.227703 
L 565.632 85.227703 
L 565.632 10.368 
L 67.236 10.368 
z
" style="fill: #ffffff"/>
   </g>
   <g id="matplotlib.axis_1">
    <g id="xtick_1"/>
    <g id="xtick_2"/>
    <g id="xtick_3"/>
    <g id="xtick_4"/>
    <g id="xtick_5"/>
    <g id="xtick_6"/>
    <g id="xtick_7"/>
    <g id="xtick_8"/>
    <g id="xtick_9"/>
    <g id="xtick_10"/>
    <g id="xtick_11"/>
    <g id="xtick_12"/>
    <g id="xtick_13"/>
    <g id="xtick_14"/>
    <g id="xtick_15"/>
    <g id="xtick_16"/>
    <g id="xtick_17"/>
    <g id="xtick_18"/>
    <g id="xtick_19"/>
    <g id="xtick_20"/>
    <g id="xtick_21"/>
    <g id="xtick_22"/>
    <g id="xtick_23"/>
    <g id="xtick_24"/>
    <g id="xtick_25"/>
    <g id="xtick_26"/>
    <g id="xtick_27"/>
    <g id="xtick_28"/>
    <g id="xtick_29"/>
    <g id="xtick_30"/>
    <g id="xtick_31"/>
    <g id="xtick_32"/>
    <g id="xtick_33"/>
    <g id="xtick_34"/>
    <g id="xtick_35"/>
    <g id="xtick_36"/>
    <g id="xtick_37"/>
    <g id="xtick_38"/>
    <g id="xtick_39"/>
    <g id="xtick_40"/>
   </g>
   <g id="matplotlib.axis_2">
    <g id="ytick_1">
     <g id="line2d_1">
      <path d="M 67.236 85.227703 
L 565.632 85.227703 
" clip-path="url(#p9e90273bf0)" style="fill: none; stroke: #cccccc; stroke-width: 0.8; stroke-linecap: round"/>
     </g>
     <g id="text_1">
      <!-- 0 -->
      <g style="fill: #262626" transform="translate(53.337 88.571015)scale(0.088 -0.088)">
       <defs>
        <path id="DejaVuSans-30" d="M 2034 4250 
Q 1547 4250 1301 3770 
Q 1056 3291 1056 2328 
Q 1056 1369 1301 889 
Q 1547 409 2034 409 
Q 2525 409 2770 889 
Q 3016 1369 3016 2328 
Q 3016 3291 2770 3770 
Q 2525 4250 2034 4250 
z
M 2034 4750 
Q 2819 4750 3233 4129 
Q 3647 3509 3647 2328 
Q 3647 1150 3233 529 
Q 2819 -91 2034 -91 
Q 1250 -91 836 529 
Q 422 1150 422 2328 
Q 422 3509 836 4129 
Q 1250 4750 2034 4750 
z
" transform="scale(0.015625)"/>
       </defs>
       <use xlink:href="#DejaVuSans-30"/>
      </g>
     </g>
    </g>
    <g id="ytick_2">
     <g id="line2d_2">
      <path d="M 67.236 68.252714 
L 565.632 68.252714 
" clip-path="url(#p9e90273bf0)" style="fill: none; stroke: #cccccc; stroke-width: 0.8; stroke-linecap: round"/>
     </g>
     <g id="text_2">
      <!-- 10 -->
      <g style="fill: #262626" transform="translate(47.738 71.596026)scale(0.088 -0.088)">
       <defs>
        <path id="DejaVuSans-31" d="M 794 531 
L 1825 531 
L 1825 4091 
L 703 3866 
L 703 4441 
L 1819 4666 
L 2450 4666 
L 2450 531 
L 3481 531 
L 3481 0 
L 794 0 
L 794 531 
z
" transform="scale(0.015625)"/>
       </defs>
       <use xlink:href="#DejaVuSans-31"/>
       <use xlink:href="#DejaVuSans-30" x="63.623047"/>
      </g>
     </g>
    </g>
    <g id="ytick_3">
     <g id="line2d_3">
      <path d="M 67.236 51.277724 
L 565.632 51.277724 
" clip-path="url(#p9e90273bf0)" style="fill: none; stroke: #cccccc; stroke-width: 0.8; stroke-linecap: round"/>
     </g>
     <g id="text_3">
      <!-- 20 -->
      <g style="fill: #262626" transform="translate(47.738 54.621037)scale(0.088 -0.088)">
       <defs>
        <path id="DejaVuSans-32" d="M 1228 531 
L 3431 531 
L 3431 0 
L 469 0 
L 469 531 
Q 828 903 1448 1529 
Q 2069 2156 2228 2338 
Q 2531 2678 2651 2914 
Q 2772 3150 2772 3378 
Q 2772 3750 2511 3984 
Q 2250 4219 1831 4219 
Q 1534 4219 1204 4116 
Q 875 4013 500 3803 
L 500 4441 
Q 881 4594 1212 4672 
Q 1544 4750 1819 4750 
Q 2544 4750 2975 4387 
Q 3406 4025 3406 3419 
Q 3406 3131 3298 2873 
Q 3191 2616 2906 2266 
Q 2828 2175 2409 1742 
Q 1991 1309 1228 531 
z
" transform="scale(0.015625)"/>
       </defs>
       <use xlink:href="#DejaVuSans-32"/>
       <use xlink:href="#DejaVuSans-30" x="63.623047"/>
      </g>
     </g>
    </g>
    <g id="ytick_4">
     <g id="line2d_4">
      <path d="M 67.236 34.302735 
L 565.632 34.302735 
" clip-path="url(#p9e90273bf0)" style="fill: none; stroke: #cccccc; stroke-width: 0.8; stroke-linecap: round"/>
     </g>
     <g id="text_4">
      <!-- 30 -->
      <g style="fill: #262626" transform="translate(47.738 37.646047)scale(0.088 -0.088)">
       <defs>
        <path id="DejaVuSans-33" d="M 2597 2516 
Q 3050 2419 3304 2112 
Q 3559 1806 3559 1356 
Q 3559 666 3084 287 
Q 2609 -91 1734 -91 
Q 1441 -91 1130 -33 
Q 819 25 488 141 
L 488 750 
Q 750 597 1062 519 
Q 1375 441 1716 441 
Q 2309 441 2620 675 
Q 2931 909 2931 1356 
Q 2931 1769 2642 2001 
Q 2353 2234 1838 2234 
L 1294 2234 
L 1294 2753 
L 1863 2753 
Q 2328 2753 2575 2939 
Q 2822 3125 2822 3475 
Q 2822 3834 2567 4026 
Q 2313 4219 1838 4219 
Q 1578 4219 1281 4162 
Q 984 4106 628 3988 
L 628 4550 
Q 988 4650 1302 4700 
Q 1616 4750 1894 4750 
Q 2613 4750 3031 4423 
Q 3450 4097 3450 3541 
Q 3450 3153 3228 2886 
Q 3006 2619 2597 2516 
z
" transform="scale(0.015625)"/>
       </defs>
       <use xlink:href="#DejaVuSans-33"/>
       <use xlink:href="#DejaVuSans-30" x="63.623047"/>
      </g>
     </g>
    </g>
    <g id="ytick_5">
     <g id="line2d_5">
      <path d="M 67.236 17.327746 
L 565.632 17.327746 
" clip-path="url(#p9e90273bf0)" style="fill: none; stroke: #cccccc; stroke-width: 0.8; stroke-linecap: round"/>
     </g>
     <g id="text_5">
      <!-- 40 -->
      <g style="fill: #262626" transform="translate(47.738 20.671058)scale(0.088 -0.088)">
       <defs>
        <path id="DejaVuSans-34" d="M 2419 4116 
L 825 1625 
L 2419 1625 
L 2419 4116 
z
M 2253 4666 
L 3047 4666 
L 3047 1625 
L 3713 1625 
L 3713 1100 
L 3047 1100 
L 3047 0 
L 2419 0 
L 2419 1100 
L 313 1100 
L 313 1709 
L 2253 4666 
z
" transform="scale(0.015625)"/>
       </defs>
       <use xlink:href="#DejaVuSans-34"/>
       <use xlink:href="#DejaVuSans-30" x="63.623047"/>
      </g>
     </g>
    </g>
    <g id="text_6">
     <!-- ALE-unique -->
     <g style="fill: #262626" transform="translate(20.2417 74.980851)rotate(-90)scale(0.096 -0.096)">
      <defs>
       <path id="DejaVuSans-41" d="M 2188 4044 
L 1331 1722 
L 3047 1722 
L 2188 4044 
z
M 1831 4666 
L 2547 4666 
L 4325 0 
L 3669 0 
L 3244 1197 
L 1141 1197 
L 716 0 
L 50 0 
L 1831 4666 
z
" transform="scale(0.015625)"/>
       <path id="DejaVuSans-4c" d="M 628 4666 
L 1259 4666 
L 1259 531 
L 3531 531 
L 3531 0 
L 628 0 
L 628 4666 
z
" transform="scale(0.015625)"/>
       <path id="DejaVuSans-45" d="M 628 4666 
L 3578 4666 
L 3578 4134 
L 1259 4134 
L 1259 2753 
L 3481 2753 
L 3481 2222 
L 1259 2222 
L 1259 531 
L 3634 531 
L 3634 0 
L 628 0 
L 628 4666 
z
" transform="scale(0.015625)"/>
       <path id="DejaVuSans-2d" d="M 313 2009 
L 1997 2009 
L 1997 1497 
L 313 1497 
L 313 2009 
z
" transform="scale(0.015625)"/>
       <path id="DejaVuSans-75" d="M 544 1381 
L 544 3500 
L 1119 3500 
L 1119 1403 
Q 1119 906 1312 657 
Q 1506 409 1894 409 
Q 2359 409 2629 706 
Q 2900 1003 2900 1516 
L 2900 3500 
L 3475 3500 
L 3475 0 
L 2900 0 
L 2900 538 
Q 2691 219 2414 64 
Q 2138 -91 1772 -91 
Q 1169 -91 856 284 
Q 544 659 544 1381 
z
M 1991 3584 
L 1991 3584 
z
" transform="scale(0.015625)"/>
       <path id="DejaVuSans-6e" d="M 3513 2113 
L 3513 0 
L 2938 0 
L 2938 2094 
Q 2938 2591 2744 2837 
Q 2550 3084 2163 3084 
Q 1697 3084 1428 2787 
Q 1159 2491 1159 1978 
L 1159 0 
L 581 0 
L 581 3500 
L 1159 3500 
L 1159 2956 
Q 1366 3272 1645 3428 
Q 1925 3584 2291 3584 
Q 2894 3584 3203 3211 
Q 3513 2838 3513 2113 
z
" transform="scale(0.015625)"/>
       <path id="DejaVuSans-69" d="M 603 3500 
L 1178 3500 
L 1178 0 
L 603 0 
L 603 3500 
z
M 603 4863 
L 1178 4863 
L 1178 4134 
L 603 4134 
L 603 4863 
z
" transform="scale(0.015625)"/>
       <path id="DejaVuSans-71" d="M 947 1747 
Q 947 1113 1208 752 
Q 1469 391 1925 391 
Q 2381 391 2643 752 
Q 2906 1113 2906 1747 
Q 2906 2381 2643 2742 
Q 2381 3103 1925 3103 
Q 1469 3103 1208 2742 
Q 947 2381 947 1747 
z
M 2906 525 
Q 2725 213 2448 61 
Q 2172 -91 1784 -91 
Q 1150 -91 751 415 
Q 353 922 353 1747 
Q 353 2572 751 3078 
Q 1150 3584 1784 3584 
Q 2172 3584 2448 3432 
Q 2725 3281 2906 2969 
L 2906 3500 
L 3481 3500 
L 3481 -1331 
L 2906 -1331 
L 2906 525 
z
" transform="scale(0.015625)"/>
       <path id="DejaVuSans-65" d="M 3597 1894 
L 3597 1613 
L 953 1613 
Q 991 1019 1311 708 
Q 1631 397 2203 397 
Q 2534 397 2845 478 
Q 3156 559 3463 722 
L 3463 178 
Q 3153 47 2828 -22 
Q 2503 -91 2169 -91 
Q 1331 -91 842 396 
Q 353 884 353 1716 
Q 353 2575 817 3079 
Q 1281 3584 2069 3584 
Q 2775 3584 3186 3129 
Q 3597 2675 3597 1894 
z
M 3022 2063 
Q 3016 2534 2758 2815 
Q 2500 3097 2075 3097 
Q 1594 3097 1305 2825 
Q 1016 2553 972 2059 
L 3022 2063 
z
" transform="scale(0.015625)"/>
      </defs>
      <use xlink:href="#DejaVuSans-41"/>
      <use xlink:href="#DejaVuSans-4c" x="68.408203"/>
      <use xlink:href="#DejaVuSans-45" x="124.121094"/>
      <use xlink:href="#DejaVuSans-2d" x="187.304688"/>
      <use xlink:href="#DejaVuSans-75" x="223.388672"/>
      <use xlink:href="#DejaVuSans-6e" x="286.767578"/>
      <use xlink:href="#DejaVuSans-69" x="350.146484"/>
      <use xlink:href="#DejaVuSans-71" x="377.929688"/>
      <use xlink:href="#DejaVuSans-75" x="441.40625"/>
      <use xlink:href="#DejaVuSans-65" x="504.785156"/>
     </g>
     <!-- mutation -->
     <g style="fill: #262626" transform="translate(30.9916 69.532851)rotate(-90)scale(0.096 -0.096)">
      <defs>
       <path id="DejaVuSans-6d" d="M 3328 2828 
Q 3544 3216 3844 3400 
Q 4144 3584 4550 3584 
Q 5097 3584 5394 3201 
Q 5691 2819 5691 2113 
L 5691 0 
L 5113 0 
L 5113 2094 
Q 5113 2597 4934 2840 
Q 4756 3084 4391 3084 
Q 3944 3084 3684 2787 
Q 3425 2491 3425 1978 
L 3425 0 
L 2847 0 
L 2847 2094 
Q 2847 2600 2669 2842 
Q 2491 3084 2119 3084 
Q 1678 3084 1418 2786 
Q 1159 2488 1159 1978 
L 1159 0 
L 581 0 
L 581 3500 
L 1159 3500 
L 1159 2956 
Q 1356 3278 1631 3431 
Q 1906 3584 2284 3584 
Q 2666 3584 2933 3390 
Q 3200 3197 3328 2828 
z
" transform="scale(0.015625)"/>
       <path id="DejaVuSans-74" d="M 1172 4494 
L 1172 3500 
L 2356 3500 
L 2356 3053 
L 1172 3053 
L 1172 1153 
Q 1172 725 1289 603 
Q 1406 481 1766 481 
L 2356 481 
L 2356 0 
L 1766 0 
Q 1100 0 847 248 
Q 594 497 594 1153 
L 594 3053 
L 172 3053 
L 172 3500 
L 594 3500 
L 594 4494 
L 1172 4494 
z
" transform="scale(0.015625)"/>
       <path id="DejaVuSans-61" d="M 2194 1759 
Q 1497 1759 1228 1600 
Q 959 1441 959 1056 
Q 959 750 1161 570 
Q 1363 391 1709 391 
Q 2188 391 2477 730 
Q 2766 1069 2766 1631 
L 2766 1759 
L 2194 1759 
z
M 3341 1997 
L 3341 0 
L 2766 0 
L 2766 531 
Q 2569 213 2275 61 
Q 1981 -91 1556 -91 
Q 1019 -91 701 211 
Q 384 513 384 1019 
Q 384 1609 779 1909 
Q 1175 2209 1959 2209 
L 2766 2209 
L 2766 2266 
Q 2766 2663 2505 2880 
Q 2244 3097 1772 3097 
Q 1472 3097 1187 3025 
Q 903 2953 641 2809 
L 641 3341 
Q 956 3463 1253 3523 
Q 1550 3584 1831 3584 
Q 2591 3584 2966 3190 
Q 3341 2797 3341 1997 
z
" transform="scale(0.015625)"/>
       <path id="DejaVuSans-6f" d="M 1959 3097 
Q 1497 3097 1228 2736 
Q 959 2375 959 1747 
Q 959 1119 1226 758 
Q 1494 397 1959 397 
Q 2419 397 2687 759 
Q 2956 1122 2956 1747 
Q 2956 2369 2687 2733 
Q 2419 3097 1959 3097 
z
M 1959 3584 
Q 2709 3584 3137 3096 
Q 3566 2609 3566 1747 
Q 3566 888 3137 398 
Q 2709 -91 1959 -91 
Q 1206 -91 779 398 
Q 353 888 353 1747 
Q 353 2609 779 3096 
Q 1206 3584 1959 3584 
z
" transform="scale(0.015625)"/>
      </defs>
      <use xlink:href="#DejaVuSans-6d"/>
      <use xlink:href="#DejaVuSans-75" x="97.412109"/>
      <use xlink:href="#DejaVuSans-74" x="160.791016"/>
      <use xlink:href="#DejaVuSans-61" x="200"/>
      <use xlink:href="#DejaVuSans-74" x="261.279297"/>
      <use xlink:href="#DejaVuSans-69" x="300.488281"/>
      <use xlink:href="#DejaVuSans-6f" x="328.271484"/>
      <use xlink:href="#DejaVuSans-6e" x="389.453125"/>
     </g>
     <!-- count -->
     <g style="fill: #262626" transform="translate(41.7415 61.339851)rotate(-90)scale(0.096 -0.096)">
      <defs>
       <path id="DejaVuSans-63" d="M 3122 3366 
L 3122 2828 
Q 2878 2963 2633 3030 
Q 2388 3097 2138 3097 
Q 1578 3097 1268 2742 
Q 959 2388 959 1747 
Q 959 1106 1268 751 
Q 1578 397 2138 397 
Q 2388 397 2633 464 
Q 2878 531 3122 666 
L 3122 134 
Q 2881 22 2623 -34 
Q 2366 -91 2075 -91 
Q 1284 -91 818 406 
Q 353 903 353 1747 
Q 353 2603 823 3093 
Q 1294 3584 2113 3584 
Q 2378 3584 2631 3529 
Q 2884 3475 3122 3366 
z
" transform="scale(0.015625)"/>
      </defs>
      <use xlink:href="#DejaVuSans-63"/>
      <use xlink:href="#DejaVuSans-6f" x="54.980469"/>
      <use xlink:href="#DejaVuSans-75" x="116.162109"/>
      <use xlink:href="#DejaVuSans-6e" x="179.541016"/>
      <use xlink:href="#DejaVuSans-74" x="242.919922"/>
     </g>
    </g>
   </g>
   <g id="patch_3">
    <path d="M 89.890364 85.227703 
L 98.997646 85.227703 
L 98.997646 13.932748 
L 89.890364 13.932748 
z
" clip-path="url(#p9e90273bf0)" style="fill: #ffffff; stroke: #000000; stroke-width: 0.8; stroke-linejoin: miter"/>
   </g>
   <g id="patch_4">
    <path d="M 101.274466 85.227703 
L 110.381748 85.227703 
L 110.381748 51.277724 
L 101.274466 51.277724 
z
" clip-path="url(#p9e90273bf0)" style="fill: #ffffff; stroke: #000000; stroke-width: 0.8; stroke-linejoin: miter"/>
   </g>
   <g id="patch_5">
    <path d="M 112.658568 85.227703 
L 121.76585 85.227703 
L 121.76585 51.277724 
L 112.658568 51.277724 
z
" clip-path="url(#p9e90273bf0)" style="fill: #ffffff; stroke: #000000; stroke-width: 0.8; stroke-linejoin: miter"/>
   </g>
   <g id="patch_6">
    <path d="M 124.042671 85.227703 
L 133.149952 85.227703 
L 133.149952 52.975223 
L 124.042671 52.975223 
z
" clip-path="url(#p9e90273bf0)" style="fill: #ffffff; stroke: #000000; stroke-width: 0.8; stroke-linejoin: miter"/>
   </g>
   <g id="patch_7">
    <path d="M 135.426773 85.227703 
L 144.534055 85.227703 
L 144.534055 52.975223 
L 135.426773 52.975223 
z
" clip-path="url(#p9e90273bf0)" style="fill: #ffffff; stroke: #000000; stroke-width: 0.8; stroke-linejoin: miter"/>
   </g>
   <g id="patch_8">
    <path d="M 146.810875 85.227703 
L 155.918157 85.227703 
L 155.918157 54.672722 
L 146.810875 54.672722 
z
" clip-path="url(#p9e90273bf0)" style="fill: #ffffff; stroke: #000000; stroke-width: 0.8; stroke-linejoin: miter"/>
   </g>
   <g id="patch_9">
    <path d="M 158.194978 85.227703 
L 167.302259 85.227703 
L 167.302259 54.672722 
L 158.194978 54.672722 
z
" clip-path="url(#p9e90273bf0)" style="fill: #ffffff; stroke: #000000; stroke-width: 0.8; stroke-linejoin: miter"/>
   </g>
   <g id="patch_10">
    <path d="M 169.57908 85.227703 
L 178.686362 85.227703 
L 178.686362 56.370221 
L 169.57908 56.370221 
z
" clip-path="url(#p9e90273bf0)" style="fill: #ffffff; stroke: #000000; stroke-width: 0.8; stroke-linejoin: miter"/>
   </g>
   <g id="patch_11">
    <path d="M 180.963182 85.227703 
L 190.070464 85.227703 
L 190.070464 66.555215 
L 180.963182 66.555215 
z
" clip-path="url(#p9e90273bf0)" style="fill: #ffffff; stroke: #000000; stroke-width: 0.8; stroke-linejoin: miter"/>
   </g>
   <g id="patch_12">
    <path d="M 192.347285 85.227703 
L 201.454566 85.227703 
L 201.454566 66.555215 
L 192.347285 66.555215 
z
" clip-path="url(#p9e90273bf0)" style="fill: #ffffff; stroke: #000000; stroke-width: 0.8; stroke-linejoin: miter"/>
   </g>
   <g id="patch_13">
    <path d="M 203.731387 85.227703 
L 212.838669 85.227703 
L 212.838669 68.252714 
L 203.731387 68.252714 
z
" clip-path="url(#p9e90273bf0)" style="fill: #ffffff; stroke: #000000; stroke-width: 0.8; stroke-linejoin: miter"/>
   </g>
   <g id="patch_14">
    <path d="M 215.115489 85.227703 
L 224.222771 85.227703 
L 224.222771 71.647711 
L 215.115489 71.647711 
z
" clip-path="url(#p9e90273bf0)" style="fill: #ffffff; stroke: #000000; stroke-width: 0.8; stroke-linejoin: miter"/>
   </g>
   <g id="patch_15">
    <path d="M 226.499592 85.227703 
L 235.606873 85.227703 
L 235.606873 73.34521 
L 226.499592 73.34521 
z
" clip-path="url(#p9e90273bf0)" style="fill: #ffffff; stroke: #000000; stroke-width: 0.8; stroke-linejoin: miter"/>
   </g>
   <g id="patch_16">
    <path d="M 237.883694 85.227703 
L 246.990976 85.227703 
L 246.990976 75.042709 
L 237.883694 75.042709 
z
" clip-path="url(#p9e90273bf0)" style="fill: #ffffff; stroke: #000000; stroke-width: 0.8; stroke-linejoin: miter"/>
   </g>
   <g id="patch_17">
    <path d="M 249.267796 85.227703 
L 258.375078 85.227703 
L 258.375078 75.042709 
L 249.267796 75.042709 
z
" clip-path="url(#p9e90273bf0)" style="fill: #ffffff; stroke: #000000; stroke-width: 0.8; stroke-linejoin: miter"/>
   </g>
   <g id="patch_18">
    <path d="M 260.651899 85.227703 
L 269.75918 85.227703 
L 269.75918 75.042709 
L 260.651899 75.042709 
z
" clip-path="url(#p9e90273bf0)" style="fill: #ffffff; stroke: #000000; stroke-width: 0.8; stroke-linejoin: miter"/>
   </g>
   <g id="patch_19">
    <path d="M 272.036001 85.227703 
L 281.143283 85.227703 
L 281.143283 76.740208 
L 272.036001 76.740208 
z
" clip-path="url(#p9e90273bf0)" style="fill: #ffffff; stroke: #000000; stroke-width: 0.8; stroke-linejoin: miter"/>
   </g>
   <g id="patch_20">
    <path d="M 283.420103 85.227703 
L 292.527385 85.227703 
L 292.527385 78.437707 
L 283.420103 78.437707 
z
" clip-path="url(#p9e90273bf0)" style="fill: #ffffff; stroke: #000000; stroke-width: 0.8; stroke-linejoin: miter"/>
   </g>
   <g id="patch_21">
    <path d="M 294.804206 85.227703 
L 303.911487 85.227703 
L 303.911487 78.437707 
L 294.804206 78.437707 
z
" clip-path="url(#p9e90273bf0)" style="fill: #ffffff; stroke: #000000; stroke-width: 0.8; stroke-linejoin: miter"/>
   </g>
   <g id="patch_22">
    <path d="M 306.188308 85.227703 
L 315.29559 85.227703 
L 315.29559 78.437707 
L 306.188308 78.437707 
z
" clip-path="url(#p9e90273bf0)" style="fill: #ffffff; stroke: #000000; stroke-width: 0.8; stroke-linejoin: miter"/>
   </g>
   <g id="patch_23">
    <path d="M 317.57241 85.227703 
L 326.679692 85.227703 
L 326.679692 78.437707 
L 317.57241 78.437707 
z
" clip-path="url(#p9e90273bf0)" style="fill: #ffffff; stroke: #000000; stroke-width: 0.8; stroke-linejoin: miter"/>
   </g>
   <g id="patch_24">
    <path d="M 328.956513 85.227703 
L 338.063794 85.227703 
L 338.063794 78.437707 
L 328.956513 78.437707 
z
" clip-path="url(#p9e90273bf0)" style="fill: #ffffff; stroke: #000000; stroke-width: 0.8; stroke-linejoin: miter"/>
   </g>
   <g id="patch_25">
    <path d="M 340.340615 85.227703 
L 349.447897 85.227703 
L 349.447897 80.135206 
L 340.340615 80.135206 
z
" clip-path="url(#p9e90273bf0)" style="fill: #ffffff; stroke: #000000; stroke-width: 0.8; stroke-linejoin: miter"/>
   </g>
   <g id="patch_26">
    <path d="M 351.724717 85.227703 
L 360.831999 85.227703 
L 360.831999 80.135206 
L 351.724717 80.135206 
z
" clip-path="url(#p9e90273bf0)" style="fill: #ffffff; stroke: #000000; stroke-width: 0.8; stroke-linejoin: miter"/>
   </g>
   <g id="patch_27">
    <path d="M 363.10882 85.227703 
L 372.216101 85.227703 
L 372.216101 81.832705 
L 363.10882 81.832705 
z
" clip-path="url(#p9e90273bf0)" style="fill: #ffffff; stroke: #000000; stroke-width: 0.8; stroke-linejoin: miter"/>
   </g>
   <g id="patch_28">
    <path d="M 374.492922 85.227703 
L 383.600204 85.227703 
L 383.600204 81.832705 
L 374.492922 81.832705 
z
" clip-path="url(#p9e90273bf0)" style="fill: #ffffff; stroke: #000000; stroke-width: 0.8; stroke-linejoin: miter"/>
   </g>
   <g id="patch_29">
    <path d="M 385.877024 85.227703 
L 394.984306 85.227703 
L 394.984306 81.832705 
L 385.877024 81.832705 
z
" clip-path="url(#p9e90273bf0)" style="fill: #ffffff; stroke: #000000; stroke-width: 0.8; stroke-linejoin: miter"/>
   </g>
   <g id="patch_30">
    <path d="M 397.261127 85.227703 
L 406.368408 85.227703 
L 406.368408 81.832705 
L 397.261127 81.832705 
z
" clip-path="url(#p9e90273bf0)" style="fill: #ffffff; stroke: #000000; stroke-width: 0.8; stroke-linejoin: miter"/>
   </g>
   <g id="patch_31">
    <path d="M 408.645229 85.227703 
L 417.752511 85.227703 
L 417.752511 81.832705 
L 408.645229 81.832705 
z
" clip-path="url(#p9e90273bf0)" style="fill: #ffffff; stroke: #000000; stroke-width: 0.8; stroke-linejoin: miter"/>
   </g>
   <g id="patch_32">
    <path d="M 420.029331 85.227703 
L 429.136613 85.227703 
L 429.136613 81.832705 
L 420.029331 81.832705 
z
" clip-path="url(#p9e90273bf0)" style="fill: #ffffff; stroke: #000000; stroke-width: 0.8; stroke-linejoin: miter"/>
   </g>
   <g id="patch_33">
    <path d="M 431.413434 85.227703 
L 440.520715 85.227703 
L 440.520715 81.832705 
L 431.413434 81.832705 
z
" clip-path="url(#p9e90273bf0)" style="fill: #ffffff; stroke: #000000; stroke-width: 0.8; stroke-linejoin: miter"/>
   </g>
   <g id="patch_34">
    <path d="M 442.797536 85.227703 
L 451.904818 85.227703 
L 451.904818 81.832705 
L 442.797536 81.832705 
z
" clip-path="url(#p9e90273bf0)" style="fill: #ffffff; stroke: #000000; stroke-width: 0.8; stroke-linejoin: miter"/>
   </g>
   <g id="patch_35">
    <path d="M 454.181638 85.227703 
L 463.28892 85.227703 
L 463.28892 81.832705 
L 454.181638 81.832705 
z
" clip-path="url(#p9e90273bf0)" style="fill: #ffffff; stroke: #000000; stroke-width: 0.8; stroke-linejoin: miter"/>
   </g>
   <g id="patch_36">
    <path d="M 465.565741 85.227703 
L 474.673022 85.227703 
L 474.673022 81.832705 
L 465.565741 81.832705 
z
" clip-path="url(#p9e90273bf0)" style="fill: #ffffff; stroke: #000000; stroke-width: 0.8; stroke-linejoin: miter"/>
   </g>
   <g id="patch_37">
    <path d="M 476.949843 85.227703 
L 486.057125 85.227703 
L 486.057125 83.530204 
L 476.949843 83.530204 
z
" clip-path="url(#p9e90273bf0)" style="fill: #ffffff; stroke: #000000; stroke-width: 0.8; stroke-linejoin: miter"/>
   </g>
   <g id="patch_38">
    <path d="M 488.333945 85.227703 
L 497.441227 85.227703 
L 497.441227 83.530204 
L 488.333945 83.530204 
z
" clip-path="url(#p9e90273bf0)" style="fill: #ffffff; stroke: #000000; stroke-width: 0.8; stroke-linejoin: miter"/>
   </g>
   <g id="patch_39">
    <path d="M 499.718048 85.227703 
L 508.825329 85.227703 
L 508.825329 83.530204 
L 499.718048 83.530204 
z
" clip-path="url(#p9e90273bf0)" style="fill: #ffffff; stroke: #000000; stroke-width: 0.8; stroke-linejoin: miter"/>
   </g>
   <g id="patch_40">
    <path d="M 511.10215 85.227703 
L 520.209432 85.227703 
L 520.209432 83.530204 
L 511.10215 83.530204 
z
" clip-path="url(#p9e90273bf0)" style="fill: #ffffff; stroke: #000000; stroke-width: 0.8; stroke-linejoin: miter"/>
   </g>
   <g id="patch_41">
    <path d="M 522.486252 85.227703 
L 531.593534 85.227703 
L 531.593534 83.530204 
L 522.486252 83.530204 
z
" clip-path="url(#p9e90273bf0)" style="fill: #ffffff; stroke: #000000; stroke-width: 0.8; stroke-linejoin: miter"/>
   </g>
   <g id="patch_42">
    <path d="M 533.870354 85.227703 
L 542.977636 85.227703 
L 542.977636 83.530204 
L 533.870354 83.530204 
z
" clip-path="url(#p9e90273bf0)" style="fill: #ffffff; stroke: #000000; stroke-width: 0.8; stroke-linejoin: miter"/>
   </g>
   <g id="patch_43">
    <path d="M 67.236 85.227703 
L 67.236 10.368 
" style="fill: none; stroke: #cccccc; stroke-linejoin: miter; stroke-linecap: square"/>
   </g>
   <g id="patch_44">
    <path d="M 67.236 85.227703 
L 565.632 85.227703 
" style="fill: none; stroke: #cccccc; stroke-linejoin: miter; stroke-linecap: square"/>
   </g>
  </g>
  <g id="axes_2">
   <g id="patch_45">
    <path d="M 67.236 176.215406 
L 565.632 176.215406 
L 565.632 101.355703 
L 67.236 101.355703 
z
" style="fill: #ffffff"/>
   </g>
   <g id="matplotlib.axis_3">
    <g id="xtick_41">
     <g id="text_7">
      <!-- icd -->
      <g style="fill: #262626" transform="translate(90.071698 198.344028)rotate(-45)scale(0.088 -0.088)">
       <defs>
        <path id="DejaVuSans-Oblique-69" d="M 1172 4863 
L 1747 4863 
L 1606 4134 
L 1031 4134 
L 1172 4863 
z
M 909 3500 
L 1484 3500 
L 800 0 
L 225 0 
L 909 3500 
z
" transform="scale(0.015625)"/>
        <path id="DejaVuSans-Oblique-63" d="M 3431 3366 
L 3316 2797 
Q 3109 2947 2876 3022 
Q 2644 3097 2394 3097 
Q 2119 3097 1870 3000 
Q 1622 2903 1453 2725 
Q 1184 2453 1037 2087 
Q 891 1722 891 1331 
Q 891 859 1127 628 
Q 1363 397 1844 397 
Q 2081 397 2348 469 
Q 2616 541 2906 684 
L 2797 116 
Q 2547 13 2283 -39 
Q 2019 -91 1741 -91 
Q 1044 -91 669 257 
Q 294 606 294 1253 
Q 294 1797 489 2255 
Q 684 2713 1069 3078 
Q 1331 3328 1684 3456 
Q 2038 3584 2456 3584 
Q 2700 3584 2940 3529 
Q 3181 3475 3431 3366 
z
" transform="scale(0.015625)"/>
        <path id="DejaVuSans-Oblique-64" d="M 2675 525 
Q 2444 222 2128 65 
Q 1813 -91 1428 -91 
Q 903 -91 598 267 
Q 294 625 294 1247 
Q 294 1766 478 2236 
Q 663 2706 1013 3078 
Q 1244 3325 1534 3454 
Q 1825 3584 2144 3584 
Q 2481 3584 2739 3421 
Q 2997 3259 3138 2956 
L 3513 4863 
L 4091 4863 
L 3144 0 
L 2566 0 
L 2675 525 
z
M 891 1350 
Q 891 897 1095 644 
Q 1300 391 1663 391 
Q 1931 391 2161 520 
Q 2391 650 2566 903 
Q 2750 1166 2856 1509 
Q 2963 1853 2963 2188 
Q 2963 2622 2758 2865 
Q 2553 3109 2194 3109 
Q 1922 3109 1687 2981 
Q 1453 2853 1288 2613 
Q 1106 2353 998 2009 
Q 891 1666 891 1350 
z
" transform="scale(0.015625)"/>
       </defs>
       <use xlink:href="#DejaVuSans-Oblique-69"/>
       <use xlink:href="#DejaVuSans-Oblique-63" x="27.783203"/>
       <use xlink:href="#DejaVuSans-Oblique-64" x="82.763672"/>
      </g>
     </g>
    </g>
    <g id="xtick_42">
     <g id="text_8">
      <!-- rph -->
      <g style="fill: #262626" transform="translate(100.104343 199.695486)rotate(-45)scale(0.088 -0.088)">
       <defs>
        <path id="DejaVuSans-Oblique-72" d="M 2853 2969 
Q 2766 3016 2653 3041 
Q 2541 3066 2413 3066 
Q 1953 3066 1609 2717 
Q 1266 2369 1153 1784 
L 800 0 
L 225 0 
L 909 3500 
L 1484 3500 
L 1375 2956 
Q 1603 3259 1920 3421 
Q 2238 3584 2597 3584 
Q 2691 3584 2781 3573 
Q 2872 3563 2963 3538 
L 2853 2969 
z
" transform="scale(0.015625)"/>
        <path id="DejaVuSans-Oblique-70" d="M 3175 2156 
Q 3175 2616 2975 2859 
Q 2775 3103 2400 3103 
Q 2144 3103 1911 2972 
Q 1678 2841 1497 2591 
Q 1319 2344 1212 1994 
Q 1106 1644 1106 1300 
Q 1106 863 1306 627 
Q 1506 391 1875 391 
Q 2147 391 2380 519 
Q 2613 647 2778 891 
Q 2956 1147 3065 1494 
Q 3175 1841 3175 2156 
z
M 1394 2969 
Q 1625 3272 1939 3428 
Q 2253 3584 2638 3584 
Q 3175 3584 3472 3232 
Q 3769 2881 3769 2247 
Q 3769 1728 3584 1258 
Q 3400 788 3053 416 
Q 2822 169 2531 39 
Q 2241 -91 1919 -91 
Q 1547 -91 1294 64 
Q 1041 219 916 525 
L 556 -1331 
L -19 -1331 
L 922 3500 
L 1497 3500 
L 1394 2969 
z
" transform="scale(0.015625)"/>
        <path id="DejaVuSans-Oblique-68" d="M 3566 2113 
L 3156 0 
L 2578 0 
L 2988 2091 
Q 3016 2238 3031 2350 
Q 3047 2463 3047 2528 
Q 3047 2791 2881 2937 
Q 2716 3084 2419 3084 
Q 1956 3084 1617 2771 
Q 1278 2459 1178 1941 
L 800 0 
L 225 0 
L 1172 4863 
L 1747 4863 
L 1375 2950 
Q 1594 3244 1934 3414 
Q 2275 3584 2650 3584 
Q 3113 3584 3367 3334 
Q 3622 3084 3622 2631 
Q 3622 2519 3608 2391 
Q 3594 2263 3566 2113 
z
" transform="scale(0.015625)"/>
       </defs>
       <use xlink:href="#DejaVuSans-Oblique-72"/>
       <use xlink:href="#DejaVuSans-Oblique-70" x="41.113281"/>
       <use xlink:href="#DejaVuSans-Oblique-68" x="104.589844"/>
      </g>
     </g>
    </g>
    <g id="xtick_43">
     <g id="text_9">
      <!-- pyrE/rph -->
      <g style="fill: #262626" transform="translate(95.269006 215.914924)rotate(-45)scale(0.088 -0.088)">
       <defs>
        <path id="DejaVuSans-Oblique-79" d="M 1588 -325 
Q 1188 -997 936 -1164 
Q 684 -1331 294 -1331 
L -159 -1331 
L -63 -850 
L 269 -850 
Q 509 -850 678 -719 
Q 847 -588 1056 -206 
L 1234 128 
L 459 3500 
L 1069 3500 
L 1650 819 
L 3256 3500 
L 3859 3500 
L 1588 -325 
z
" transform="scale(0.015625)"/>
        <path id="DejaVuSans-Oblique-45" d="M 1081 4666 
L 4031 4666 
L 3928 4134 
L 1606 4134 
L 1338 2753 
L 3566 2753 
L 3463 2222 
L 1234 2222 
L 909 531 
L 3284 531 
L 3181 0 
L 172 0 
L 1081 4666 
z
" transform="scale(0.015625)"/>
        <path id="DejaVuSans-Oblique-2f" d="M 2175 4666 
L 2731 4666 
L 84 -594 
L -469 -594 
L 2175 4666 
z
" transform="scale(0.015625)"/>
       </defs>
       <use xlink:href="#DejaVuSans-Oblique-70"/>
       <use xlink:href="#DejaVuSans-Oblique-79" x="63.476562"/>
       <use xlink:href="#DejaVuSans-Oblique-72" x="122.65625"/>
       <use xlink:href="#DejaVuSans-Oblique-45" x="163.769531"/>
       <use xlink:href="#DejaVuSans-Oblique-2f" x="226.953125"/>
       <use xlink:href="#DejaVuSans-Oblique-72" x="260.644531"/>
       <use xlink:href="#DejaVuSans-Oblique-70" x="301.757812"/>
       <use xlink:href="#DejaVuSans-Oblique-68" x="365.234375"/>
      </g>
     </g>
    </g>
    <g id="xtick_44">
     <g id="text_10">
      <!-- aceE -->
      <g style="fill: #262626" transform="translate(118.329121 204.238912)rotate(-45)scale(0.088 -0.088)">
       <defs>
        <path id="DejaVuSans-Oblique-61" d="M 3438 1997 
L 3047 0 
L 2472 0 
L 2578 531 
Q 2325 219 2001 64 
Q 1678 -91 1281 -91 
Q 834 -91 548 182 
Q 263 456 263 884 
Q 263 1497 752 1853 
Q 1241 2209 2100 2209 
L 2900 2209 
L 2931 2363 
Q 2938 2388 2941 2417 
Q 2944 2447 2944 2509 
Q 2944 2788 2717 2942 
Q 2491 3097 2081 3097 
Q 1800 3097 1504 3025 
Q 1209 2953 897 2809 
L 997 3341 
Q 1322 3463 1633 3523 
Q 1944 3584 2234 3584 
Q 2853 3584 3176 3315 
Q 3500 3047 3500 2534 
Q 3500 2431 3484 2292 
Q 3469 2153 3438 1997 
z
M 2816 1759 
L 2241 1759 
Q 1534 1759 1195 1570 
Q 856 1381 856 984 
Q 856 709 1029 553 
Q 1203 397 1509 397 
Q 1978 397 2328 733 
Q 2678 1069 2791 1631 
L 2816 1759 
z
" transform="scale(0.015625)"/>
        <path id="DejaVuSans-Oblique-65" d="M 3078 2063 
Q 3088 2113 3092 2166 
Q 3097 2219 3097 2272 
Q 3097 2653 2873 2875 
Q 2650 3097 2266 3097 
Q 1838 3097 1509 2826 
Q 1181 2556 1013 2059 
L 3078 2063 
z
M 3578 1613 
L 903 1613 
Q 884 1494 878 1425 
Q 872 1356 872 1306 
Q 872 872 1139 634 
Q 1406 397 1894 397 
Q 2269 397 2603 481 
Q 2938 566 3225 728 
L 3116 159 
Q 2806 34 2476 -28 
Q 2147 -91 1806 -91 
Q 1078 -91 686 257 
Q 294 606 294 1247 
Q 294 1794 489 2264 
Q 684 2734 1063 3103 
Q 1306 3334 1642 3459 
Q 1978 3584 2356 3584 
Q 2950 3584 3301 3228 
Q 3653 2872 3653 2272 
Q 3653 2128 3634 1964 
Q 3616 1800 3578 1613 
z
" transform="scale(0.015625)"/>
       </defs>
       <use xlink:href="#DejaVuSans-Oblique-61"/>
       <use xlink:href="#DejaVuSans-Oblique-63" x="61.279297"/>
       <use xlink:href="#DejaVuSans-Oblique-65" x="116.259766"/>
       <use xlink:href="#DejaVuSans-Oblique-45" x="177.783203"/>
      </g>
     </g>
    </g>
    <g id="xtick_45">
     <g id="text_11">
      <!-- ygfZ -->
      <g style="fill: #262626" transform="translate(130.622298 203.329838)rotate(-45)scale(0.088 -0.088)">
       <defs>
        <path id="DejaVuSans-Oblique-67" d="M 3816 3500 
L 3219 434 
Q 3047 -456 2561 -893 
Q 2075 -1331 1253 -1331 
Q 950 -1331 690 -1286 
Q 431 -1241 206 -1147 
L 313 -588 
Q 525 -725 762 -790 
Q 1000 -856 1269 -856 
Q 1816 -856 2167 -557 
Q 2519 -259 2631 300 
L 2681 563 
Q 2441 288 2122 144 
Q 1803 0 1434 0 
Q 903 0 598 351 
Q 294 703 294 1319 
Q 294 1803 478 2267 
Q 663 2731 997 3091 
Q 1219 3328 1514 3456 
Q 1809 3584 2131 3584 
Q 2484 3584 2746 3420 
Q 3009 3256 3138 2956 
L 3238 3500 
L 3816 3500 
z
M 2950 2216 
Q 2950 2641 2750 2872 
Q 2550 3103 2181 3103 
Q 1953 3103 1747 3012 
Q 1541 2922 1394 2759 
Q 1156 2491 1023 2127 
Q 891 1763 891 1375 
Q 891 944 1092 712 
Q 1294 481 1672 481 
Q 2219 481 2584 976 
Q 2950 1472 2950 2216 
z
" transform="scale(0.015625)"/>
        <path id="DejaVuSans-Oblique-66" d="M 3059 4863 
L 2969 4384 
L 2419 4384 
Q 2106 4384 1964 4261 
Q 1822 4138 1753 3809 
L 1691 3500 
L 2638 3500 
L 2553 3053 
L 1606 3053 
L 1013 0 
L 434 0 
L 1031 3053 
L 481 3053 
L 563 3500 
L 1113 3500 
L 1159 3744 
Q 1278 4363 1576 4613 
Q 1875 4863 2516 4863 
L 3059 4863 
z
" transform="scale(0.015625)"/>
        <path id="DejaVuSans-Oblique-5a" d="M 838 4666 
L 4500 4666 
L 4409 4184 
L 794 531 
L 3769 531 
L 3669 0 
L -141 0 
L -50 481 
L 3566 4134 
L 738 4134 
L 838 4666 
z
" transform="scale(0.015625)"/>
       </defs>
       <use xlink:href="#DejaVuSans-Oblique-79"/>
       <use xlink:href="#DejaVuSans-Oblique-67" x="59.179688"/>
       <use xlink:href="#DejaVuSans-Oblique-66" x="122.65625"/>
       <use xlink:href="#DejaVuSans-Oblique-5a" x="157.861328"/>
      </g>
     </g>
    </g>
    <g id="xtick_46">
     <g id="text_12">
      <!-- iscR -->
      <g style="fill: #262626" transform="translate(143.377303 201.958935)rotate(-45)scale(0.088 -0.088)">
       <defs>
        <path id="DejaVuSans-Oblique-73" d="M 3200 3397 
L 3091 2853 
Q 2863 2978 2609 3040 
Q 2356 3103 2088 3103 
Q 1634 3103 1373 2948 
Q 1113 2794 1113 2528 
Q 1113 2219 1719 2053 
Q 1766 2041 1788 2034 
L 1972 1978 
Q 2547 1819 2739 1644 
Q 2931 1469 2931 1166 
Q 2931 609 2489 259 
Q 2047 -91 1331 -91 
Q 1053 -91 747 -37 
Q 441 16 72 128 
L 184 722 
Q 500 559 806 475 
Q 1113 391 1394 391 
Q 1816 391 2080 572 
Q 2344 753 2344 1031 
Q 2344 1331 1650 1516 
L 1591 1531 
L 1394 1581 
Q 956 1697 753 1886 
Q 550 2075 550 2369 
Q 550 2928 970 3256 
Q 1391 3584 2113 3584 
Q 2397 3584 2667 3537 
Q 2938 3491 3200 3397 
z
" transform="scale(0.015625)"/>
        <path id="DejaVuSans-Oblique-52" d="M 1613 4147 
L 1294 2491 
L 2106 2491 
Q 2584 2491 2879 2755 
Q 3175 3019 3175 3444 
Q 3175 3784 2976 3965 
Q 2778 4147 2406 4147 
L 1613 4147 
z
M 2772 2241 
Q 2972 2194 3105 2009 
Q 3238 1825 3413 1275 
L 3809 0 
L 3144 0 
L 2778 1197 
Q 2638 1659 2453 1815 
Q 2269 1972 1888 1972 
L 1191 1972 
L 806 0 
L 172 0 
L 1081 4666 
L 2503 4666 
Q 3150 4666 3495 4373 
Q 3841 4081 3841 3531 
Q 3841 3044 3547 2687 
Q 3253 2331 2772 2241 
z
" transform="scale(0.015625)"/>
       </defs>
       <use xlink:href="#DejaVuSans-Oblique-69"/>
       <use xlink:href="#DejaVuSans-Oblique-73" x="27.783203"/>
       <use xlink:href="#DejaVuSans-Oblique-63" x="79.882812"/>
       <use xlink:href="#DejaVuSans-Oblique-52" x="134.863281"/>
      </g>
     </g>
    </g>
    <g id="xtick_47">
     <g id="text_13">
      <!-- rpoB -->
      <g style="fill: #262626" transform="translate(152.891727 203.828613)rotate(-45)scale(0.088 -0.088)">
       <defs>
        <path id="DejaVuSans-Oblique-6f" d="M 1625 -91 
Q 1009 -91 651 289 
Q 294 669 294 1325 
Q 294 1706 417 2101 
Q 541 2497 738 2766 
Q 1047 3184 1428 3384 
Q 1809 3584 2291 3584 
Q 2888 3584 3255 3212 
Q 3622 2841 3622 2241 
Q 3622 1825 3500 1412 
Q 3378 1000 3181 728 
Q 2875 309 2494 109 
Q 2113 -91 1625 -91 
z
M 891 1344 
Q 891 869 1089 633 
Q 1288 397 1691 397 
Q 2269 397 2648 901 
Q 3028 1406 3028 2181 
Q 3028 2634 2825 2865 
Q 2622 3097 2228 3097 
Q 1903 3097 1650 2945 
Q 1397 2794 1197 2484 
Q 1050 2253 970 1956 
Q 891 1659 891 1344 
z
" transform="scale(0.015625)"/>
        <path id="DejaVuSans-Oblique-42" d="M 1081 4666 
L 2694 4666 
Q 3350 4666 3675 4422 
Q 4000 4178 4000 3688 
Q 4000 3238 3720 2911 
Q 3441 2584 2988 2516 
Q 3375 2428 3569 2181 
Q 3763 1934 3763 1522 
Q 3763 819 3242 409 
Q 2722 0 1819 0 
L 172 0 
L 1081 4666 
z
M 1234 2228 
L 903 519 
L 1919 519 
Q 2491 519 2800 781 
Q 3109 1044 3109 1522 
Q 3109 1891 2904 2059 
Q 2700 2228 2247 2228 
L 1234 2228 
z
M 1606 4147 
L 1331 2741 
L 2272 2741 
Q 2775 2741 3058 2959 
Q 3341 3178 3341 3566 
Q 3341 3869 3150 4008 
Q 2959 4147 2541 4147 
L 1606 4147 
z
" transform="scale(0.015625)"/>
       </defs>
       <use xlink:href="#DejaVuSans-Oblique-72"/>
       <use xlink:href="#DejaVuSans-Oblique-70" x="41.113281"/>
       <use xlink:href="#DejaVuSans-Oblique-6f" x="104.589844"/>
       <use xlink:href="#DejaVuSans-Oblique-42" x="165.771484"/>
      </g>
     </g>
    </g>
    <g id="xtick_48">
     <g id="text_14">
      <!-- hns/tdk -->
      <g style="fill: #262626" transform="translate(155.643028 212.461415)rotate(-45)scale(0.088 -0.088)">
       <defs>
        <path id="DejaVuSans-Oblique-6e" d="M 3566 2113 
L 3156 0 
L 2578 0 
L 2988 2091 
Q 3016 2238 3031 2350 
Q 3047 2463 3047 2528 
Q 3047 2791 2881 2937 
Q 2716 3084 2419 3084 
Q 1956 3084 1622 2776 
Q 1288 2469 1184 1941 
L 800 0 
L 225 0 
L 903 3500 
L 1478 3500 
L 1363 2950 
Q 1603 3253 1940 3418 
Q 2278 3584 2650 3584 
Q 3113 3584 3367 3334 
Q 3622 3084 3622 2631 
Q 3622 2519 3608 2391 
Q 3594 2263 3566 2113 
z
" transform="scale(0.015625)"/>
        <path id="DejaVuSans-Oblique-74" d="M 2706 3500 
L 2619 3053 
L 1472 3053 
L 1100 1153 
Q 1081 1047 1072 975 
Q 1063 903 1063 863 
Q 1063 663 1183 572 
Q 1303 481 1569 481 
L 2150 481 
L 2053 0 
L 1503 0 
Q 991 0 739 200 
Q 488 400 488 806 
Q 488 878 497 964 
Q 506 1050 525 1153 
L 897 3053 
L 409 3053 
L 500 3500 
L 978 3500 
L 1172 4494 
L 1747 4494 
L 1556 3500 
L 2706 3500 
z
" transform="scale(0.015625)"/>
        <path id="DejaVuSans-Oblique-6b" d="M 1172 4863 
L 1747 4863 
L 1197 2028 
L 3169 3500 
L 3916 3500 
L 1716 1825 
L 3322 0 
L 2625 0 
L 1131 1709 
L 800 0 
L 225 0 
L 1172 4863 
z
" transform="scale(0.015625)"/>
       </defs>
       <use xlink:href="#DejaVuSans-Oblique-68"/>
       <use xlink:href="#DejaVuSans-Oblique-6e" x="63.378906"/>
       <use xlink:href="#DejaVuSans-Oblique-73" x="126.757812"/>
       <use xlink:href="#DejaVuSans-Oblique-2f" x="178.857422"/>
       <use xlink:href="#DejaVuSans-Oblique-74" x="212.548828"/>
       <use xlink:href="#DejaVuSans-Oblique-64" x="251.757812"/>
       <use xlink:href="#DejaVuSans-Oblique-6b" x="315.234375"/>
      </g>
     </g>
    </g>
    <g id="xtick_49">
     <g id="text_15">
      <!-- sucA -->
      <g style="fill: #262626" transform="translate(175.381862 204.106683)rotate(-45)scale(0.088 -0.088)">
       <defs>
        <path id="DejaVuSans-Oblique-75" d="M 428 1388 
L 838 3500 
L 1416 3500 
L 1006 1409 
Q 975 1256 961 1147 
Q 947 1038 947 966 
Q 947 700 1109 554 
Q 1272 409 1569 409 
Q 2031 409 2368 721 
Q 2706 1034 2809 1563 
L 3194 3500 
L 3769 3500 
L 3091 0 
L 2516 0 
L 2631 550 
Q 2388 244 2052 76 
Q 1716 -91 1338 -91 
Q 878 -91 622 161 
Q 366 413 366 863 
Q 366 956 381 1097 
Q 397 1238 428 1388 
z
" transform="scale(0.015625)"/>
        <path id="DejaVuSans-Oblique-41" d="M 2356 4666 
L 3072 4666 
L 3938 0 
L 3278 0 
L 3084 1197 
L 984 1197 
L 325 0 
L -341 0 
L 2356 4666 
z
M 2584 4044 
L 1275 1722 
L 2988 1722 
L 2584 4044 
z
" transform="scale(0.015625)"/>
       </defs>
       <use xlink:href="#DejaVuSans-Oblique-73"/>
       <use xlink:href="#DejaVuSans-Oblique-75" x="52.099609"/>
       <use xlink:href="#DejaVuSans-Oblique-63" x="115.478516"/>
       <use xlink:href="#DejaVuSans-Oblique-41" x="170.458984"/>
      </g>
     </g>
    </g>
    <g id="xtick_50">
     <g id="text_16">
      <!-- glnX -->
      <g style="fill: #262626" transform="translate(187.744069 203.128578)rotate(-45)scale(0.088 -0.088)">
       <defs>
        <path id="DejaVuSans-Oblique-6c" d="M 1172 4863 
L 1747 4863 
L 800 0 
L 225 0 
L 1172 4863 
z
" transform="scale(0.015625)"/>
        <path id="DejaVuSans-Oblique-58" d="M 878 4666 
L 1516 4666 
L 2316 2981 
L 3763 4666 
L 4500 4666 
L 2578 2438 
L 3738 0 
L 3103 0 
L 2163 1966 
L 459 0 
L -275 0 
L 1906 2509 
L 878 4666 
z
" transform="scale(0.015625)"/>
       </defs>
       <use xlink:href="#DejaVuSans-Oblique-67"/>
       <use xlink:href="#DejaVuSans-Oblique-6c" x="63.476562"/>
       <use xlink:href="#DejaVuSans-Oblique-6e" x="91.259766"/>
       <use xlink:href="#DejaVuSans-Oblique-58" x="154.638672"/>
      </g>
     </g>
    </g>
    <g id="xtick_51">
     <g id="text_17">
      <!-- pitA -->
      <g style="fill: #262626" transform="translate(200.63811 201.61864)rotate(-45)scale(0.088 -0.088)">
       <use xlink:href="#DejaVuSans-Oblique-70"/>
       <use xlink:href="#DejaVuSans-Oblique-69" x="63.476562"/>
       <use xlink:href="#DejaVuSans-Oblique-74" x="91.259766"/>
       <use xlink:href="#DejaVuSans-Oblique-41" x="130.46875"/>
      </g>
     </g>
    </g>
    <g id="xtick_52">
     <g id="text_18">
      <!-- gltA -->
      <g style="fill: #262626" transform="translate(212.022212 201.61864)rotate(-45)scale(0.088 -0.088)">
       <use xlink:href="#DejaVuSans-Oblique-67"/>
       <use xlink:href="#DejaVuSans-Oblique-6c" x="63.476562"/>
       <use xlink:href="#DejaVuSans-Oblique-74" x="91.259766"/>
       <use xlink:href="#DejaVuSans-Oblique-41" x="130.46875"/>
      </g>
     </g>
    </g>
    <g id="xtick_53">
     <g id="text_19">
      <!-- thiC/rsd -->
      <g style="fill: #262626" transform="translate(211.478484 213.54647)rotate(-45)scale(0.088 -0.088)">
       <defs>
        <path id="DejaVuSans-Oblique-43" d="M 4447 4306 
L 4319 3641 
Q 4019 3944 3683 4091 
Q 3347 4238 2956 4238 
Q 2422 4238 2017 3981 
Q 1613 3725 1319 3200 
Q 1131 2863 1032 2486 
Q 934 2109 934 1728 
Q 934 1091 1264 756 
Q 1594 422 2222 422 
Q 2656 422 3056 561 
Q 3456 700 3834 978 
L 3688 231 
Q 3316 72 2936 -9 
Q 2556 -91 2175 -91 
Q 1278 -91 773 396 
Q 269 884 269 1753 
Q 269 2309 461 2846 
Q 653 3384 1013 3828 
Q 1394 4300 1883 4525 
Q 2372 4750 3022 4750 
Q 3422 4750 3780 4639 
Q 4138 4528 4447 4306 
z
" transform="scale(0.015625)"/>
       </defs>
       <use xlink:href="#DejaVuSans-Oblique-74"/>
       <use xlink:href="#DejaVuSans-Oblique-68" x="39.208984"/>
       <use xlink:href="#DejaVuSans-Oblique-69" x="102.587891"/>
       <use xlink:href="#DejaVuSans-Oblique-43" x="130.371094"/>
       <use xlink:href="#DejaVuSans-Oblique-2f" x="200.195312"/>
       <use xlink:href="#DejaVuSans-Oblique-72" x="233.886719"/>
       <use xlink:href="#DejaVuSans-Oblique-73" x="275"/>
       <use xlink:href="#DejaVuSans-Oblique-64" x="327.099609"/>
      </g>
     </g>
    </g>
    <g id="xtick_54">
     <g id="text_20">
      <!-- arnA -->
      <g style="fill: #262626" transform="translate(232.594055 203.815002)rotate(-45)scale(0.088 -0.088)">
       <use xlink:href="#DejaVuSans-Oblique-61"/>
       <use xlink:href="#DejaVuSans-Oblique-72" x="61.279297"/>
       <use xlink:href="#DejaVuSans-Oblique-6e" x="102.392578"/>
       <use xlink:href="#DejaVuSans-Oblique-41" x="165.771484"/>
      </g>
     </g>
    </g>
    <g id="xtick_55">
     <g id="text_21">
      <!-- renD/emrE -->
      <g style="fill: #262626" transform="translate(224.95177 222.841389)rotate(-45)scale(0.088 -0.088)">
       <defs>
        <path id="DejaVuSans-Oblique-44" d="M 1081 4666 
L 2438 4666 
Q 3519 4666 4070 4208 
Q 4622 3750 4622 2847 
Q 4622 2250 4412 1698 
Q 4203 1147 3834 769 
Q 3463 381 2891 190 
Q 2319 0 1538 0 
L 172 0 
L 1081 4666 
z
M 1613 4147 
L 909 519 
L 1734 519 
Q 2794 519 3375 1128 
Q 3956 1738 3956 2847 
Q 3956 3519 3581 3833 
Q 3206 4147 2406 4147 
L 1613 4147 
z
" transform="scale(0.015625)"/>
        <path id="DejaVuSans-Oblique-6d" d="M 5747 2113 
L 5338 0 
L 4763 0 
L 5166 2094 
Q 5191 2228 5203 2325 
Q 5216 2422 5216 2491 
Q 5216 2772 5059 2928 
Q 4903 3084 4622 3084 
Q 4203 3084 3875 2770 
Q 3547 2456 3450 1953 
L 3066 0 
L 2491 0 
L 2900 2094 
Q 2925 2209 2937 2307 
Q 2950 2406 2950 2484 
Q 2950 2769 2794 2926 
Q 2638 3084 2363 3084 
Q 1938 3084 1609 2770 
Q 1281 2456 1184 1953 
L 800 0 
L 225 0 
L 909 3500 
L 1484 3500 
L 1375 2956 
Q 1609 3263 1923 3423 
Q 2238 3584 2597 3584 
Q 2978 3584 3223 3384 
Q 3469 3184 3519 2828 
Q 3781 3197 4126 3390 
Q 4472 3584 4856 3584 
Q 5306 3584 5551 3325 
Q 5797 3066 5797 2591 
Q 5797 2488 5784 2364 
Q 5772 2241 5747 2113 
z
" transform="scale(0.015625)"/>
       </defs>
       <use xlink:href="#DejaVuSans-Oblique-72"/>
       <use xlink:href="#DejaVuSans-Oblique-65" x="41.113281"/>
       <use xlink:href="#DejaVuSans-Oblique-6e" x="102.636719"/>
       <use xlink:href="#DejaVuSans-Oblique-44" x="166.015625"/>
       <use xlink:href="#DejaVuSans-Oblique-2f" x="243.017578"/>
       <use xlink:href="#DejaVuSans-Oblique-65" x="276.708984"/>
       <use xlink:href="#DejaVuSans-Oblique-6d" x="338.232422"/>
       <use xlink:href="#DejaVuSans-Oblique-72" x="435.644531"/>
       <use xlink:href="#DejaVuSans-Oblique-45" x="476.757812"/>
      </g>
     </g>
    </g>
    <g id="xtick_56">
     <g id="text_22">
      <!-- fur -->
      <g style="fill: #262626" transform="translate(261.241587 197.935674)rotate(-45)scale(0.088 -0.088)">
       <use xlink:href="#DejaVuSans-Oblique-66"/>
       <use xlink:href="#DejaVuSans-Oblique-75" x="35.205078"/>
       <use xlink:href="#DejaVuSans-Oblique-72" x="98.583984"/>
      </g>
     </g>
    </g>
    <g id="xtick_57">
     <g id="text_23">
      <!-- zwf -->
      <g style="fill: #262626" transform="translate(270.77254 199.788824)rotate(-45)scale(0.088 -0.088)">
       <defs>
        <path id="DejaVuSans-Oblique-7a" d="M 744 3500 
L 3475 3500 
L 3372 2975 
L 738 459 
L 2913 459 
L 2822 0 
L -19 0 
L 84 525 
L 2719 3041 
L 653 3041 
L 744 3500 
z
" transform="scale(0.015625)"/>
        <path id="DejaVuSans-Oblique-77" d="M 544 3500 
L 1113 3500 
L 1259 684 
L 2566 3500 
L 3231 3500 
L 3425 684 
L 4666 3500 
L 5241 3500 
L 3641 0 
L 2969 0 
L 2797 2900 
L 1459 0 
L 781 0 
L 544 3500 
z
" transform="scale(0.015625)"/>
       </defs>
       <use xlink:href="#DejaVuSans-Oblique-7a"/>
       <use xlink:href="#DejaVuSans-Oblique-77" x="52.490234"/>
       <use xlink:href="#DejaVuSans-Oblique-66" x="134.277344"/>
      </g>
     </g>
    </g>
    <g id="xtick_58">
     <g id="text_24">
      <!-- lon -->
      <g style="fill: #262626" transform="translate(283.222252 198.723214)rotate(-45)scale(0.088 -0.088)">
       <use xlink:href="#DejaVuSans-Oblique-6c"/>
       <use xlink:href="#DejaVuSans-Oblique-6f" x="27.783203"/>
       <use xlink:href="#DejaVuSans-Oblique-6e" x="88.964844"/>
      </g>
     </g>
    </g>
    <g id="xtick_59">
     <g id="text_25">
      <!-- oxyR -->
      <g style="fill: #262626" transform="translate(288.588964 204.740604)rotate(-45)scale(0.088 -0.088)">
       <defs>
        <path id="DejaVuSans-Oblique-78" d="M 3841 3500 
L 2234 1784 
L 3219 0 
L 2559 0 
L 1819 1388 
L 531 0 
L -166 0 
L 1556 1844 
L 641 3500 
L 1300 3500 
L 1972 2234 
L 3144 3500 
L 3841 3500 
z
" transform="scale(0.015625)"/>
       </defs>
       <use xlink:href="#DejaVuSans-Oblique-6f"/>
       <use xlink:href="#DejaVuSans-Oblique-78" x="61.181641"/>
       <use xlink:href="#DejaVuSans-Oblique-79" x="120.361328"/>
       <use xlink:href="#DejaVuSans-Oblique-52" x="179.541016"/>
      </g>
     </g>
    </g>
    <g id="xtick_60">
     <g id="text_26">
      <!-- arcB -->
      <g style="fill: #262626" transform="translate(301.408139 203.305531)rotate(-45)scale(0.088 -0.088)">
       <use xlink:href="#DejaVuSans-Oblique-61"/>
       <use xlink:href="#DejaVuSans-Oblique-72" x="61.279297"/>
       <use xlink:href="#DejaVuSans-Oblique-63" x="102.392578"/>
       <use xlink:href="#DejaVuSans-Oblique-42" x="157.373047"/>
      </g>
     </g>
    </g>
    <g id="xtick_61">
     <g id="text_27">
      <!-- trkH -->
      <g style="fill: #262626" transform="translate(313.573948 202.523825)rotate(-45)scale(0.088 -0.088)">
       <defs>
        <path id="DejaVuSans-Oblique-48" d="M 1081 4666 
L 1716 4666 
L 1344 2753 
L 3634 2753 
L 4006 4666 
L 4641 4666 
L 3731 0 
L 3097 0 
L 3531 2222 
L 1241 2222 
L 806 0 
L 172 0 
L 1081 4666 
z
" transform="scale(0.015625)"/>
       </defs>
       <use xlink:href="#DejaVuSans-Oblique-74"/>
       <use xlink:href="#DejaVuSans-Oblique-72" x="39.208984"/>
       <use xlink:href="#DejaVuSans-Oblique-6b" x="80.322266"/>
       <use xlink:href="#DejaVuSans-Oblique-48" x="138.232422"/>
      </g>
     </g>
    </g>
    <g id="xtick_62">
     <g id="text_28">
      <!-- rpsG -->
      <g style="fill: #262626" transform="translate(323.666874 203.815002)rotate(-45)scale(0.088 -0.088)">
       <defs>
        <path id="DejaVuSans-Oblique-47" d="M 3494 697 
L 3738 1919 
L 2700 1919 
L 2797 2438 
L 4453 2438 
L 4050 384 
Q 3634 156 3143 32 
Q 2653 -91 2156 -91 
Q 1278 -91 783 396 
Q 288 884 288 1753 
Q 288 2475 589 3126 
Q 891 3778 1422 4213 
Q 1756 4484 2153 4617 
Q 2550 4750 3034 4750 
Q 3472 4750 3873 4639 
Q 4275 4528 4641 4306 
L 4513 3634 
Q 4231 3928 3853 4083 
Q 3475 4238 3047 4238 
Q 2550 4238 2172 4048 
Q 1794 3859 1497 3463 
Q 1244 3125 1098 2667 
Q 953 2209 953 1734 
Q 953 1081 1287 751 
Q 1622 422 2284 422 
Q 2616 422 2925 492 
Q 3234 563 3494 697 
z
" transform="scale(0.015625)"/>
       </defs>
       <use xlink:href="#DejaVuSans-Oblique-72"/>
       <use xlink:href="#DejaVuSans-Oblique-70" x="41.113281"/>
       <use xlink:href="#DejaVuSans-Oblique-73" x="104.589844"/>
       <use xlink:href="#DejaVuSans-Oblique-47" x="156.689453"/>
      </g>
     </g>
    </g>
    <g id="xtick_63">
     <g id="text_29">
      <!-- nuoM -->
      <g style="fill: #262626" transform="translate(332.559043 206.306934)rotate(-45)scale(0.088 -0.088)">
       <defs>
        <path id="DejaVuSans-Oblique-4d" d="M 1081 4666 
L 2028 4666 
L 2572 1522 
L 4378 4666 
L 5350 4666 
L 4441 0 
L 3828 0 
L 4622 4091 
L 2791 897 
L 2175 897 
L 1581 4103 
L 788 0 
L 172 0 
L 1081 4666 
z
" transform="scale(0.015625)"/>
       </defs>
       <use xlink:href="#DejaVuSans-Oblique-6e"/>
       <use xlink:href="#DejaVuSans-Oblique-75" x="63.378906"/>
       <use xlink:href="#DejaVuSans-Oblique-6f" x="126.757812"/>
       <use xlink:href="#DejaVuSans-Oblique-4d" x="187.939453"/>
      </g>
     </g>
    </g>
    <g id="xtick_64">
     <g id="text_30">
      <!-- nuoG -->
      <g style="fill: #262626" transform="translate(344.490535 205.759545)rotate(-45)scale(0.088 -0.088)">
       <use xlink:href="#DejaVuSans-Oblique-6e"/>
       <use xlink:href="#DejaVuSans-Oblique-75" x="63.378906"/>
       <use xlink:href="#DejaVuSans-Oblique-6f" x="126.757812"/>
       <use xlink:href="#DejaVuSans-Oblique-47" x="187.939453"/>
      </g>
     </g>
    </g>
    <g id="xtick_65">
     <g id="text_31">
      <!-- aroG -->
      <g style="fill: #262626" transform="translate(357.390409 204.243773)rotate(-45)scale(0.088 -0.088)">
       <use xlink:href="#DejaVuSans-Oblique-61"/>
       <use xlink:href="#DejaVuSans-Oblique-72" x="61.279297"/>
       <use xlink:href="#DejaVuSans-Oblique-6f" x="102.392578"/>
       <use xlink:href="#DejaVuSans-Oblique-47" x="163.574219"/>
      </g>
     </g>
    </g>
    <g id="xtick_66">
     <g id="text_32">
      <!-- yoeG -->
      <g style="fill: #262626" transform="translate(367.634036 205.384248)rotate(-45)scale(0.088 -0.088)">
       <use xlink:href="#DejaVuSans-Oblique-79"/>
       <use xlink:href="#DejaVuSans-Oblique-6f" x="59.179688"/>
       <use xlink:href="#DejaVuSans-Oblique-65" x="120.361328"/>
       <use xlink:href="#DejaVuSans-Oblique-47" x="181.884766"/>
      </g>
     </g>
    </g>
    <g id="xtick_67">
     <g id="text_33">
      <!-- ydbK/ydbJ -->
      <g style="fill: #262626" transform="translate(363.979038 220.423349)rotate(-45)scale(0.088 -0.088)">
       <defs>
        <path id="DejaVuSans-Oblique-62" d="M 3169 2138 
Q 3169 2591 2961 2847 
Q 2753 3103 2388 3103 
Q 2122 3103 1889 2973 
Q 1656 2844 1484 2597 
Q 1303 2338 1198 1995 
Q 1094 1653 1094 1313 
Q 1094 881 1298 636 
Q 1503 391 1863 391 
Q 2134 391 2365 517 
Q 2597 644 2772 891 
Q 2950 1147 3059 1487 
Q 3169 1828 3169 2138 
z
M 1381 2969 
Q 1594 3256 1914 3420 
Q 2234 3584 2584 3584 
Q 3122 3584 3439 3221 
Q 3756 2859 3756 2241 
Q 3756 1734 3570 1259 
Q 3384 784 3041 416 
Q 2816 172 2522 40 
Q 2228 -91 1906 -91 
Q 1566 -91 1316 65 
Q 1066 222 909 531 
L 806 0 
L 231 0 
L 1178 4863 
L 1753 4863 
L 1381 2969 
z
" transform="scale(0.015625)"/>
        <path id="DejaVuSans-Oblique-4b" d="M 1081 4666 
L 1716 4666 
L 1331 2700 
L 3781 4666 
L 4622 4666 
L 1850 2438 
L 3878 0 
L 3109 0 
L 1247 2272 
L 806 0 
L 172 0 
L 1081 4666 
z
" transform="scale(0.015625)"/>
        <path id="DejaVuSans-Oblique-4a" d="M 1069 4666 
L 1703 4666 
L 856 325 
Q 691 -522 298 -901 
Q -94 -1281 -800 -1281 
L -1050 -1281 
L -947 -750 
L -750 -750 
Q -328 -750 -109 -509 
Q 109 -269 225 325 
L 1069 4666 
z
" transform="scale(0.015625)"/>
       </defs>
       <use xlink:href="#DejaVuSans-Oblique-79"/>
       <use xlink:href="#DejaVuSans-Oblique-64" x="59.179688"/>
       <use xlink:href="#DejaVuSans-Oblique-62" x="122.65625"/>
       <use xlink:href="#DejaVuSans-Oblique-4b" x="186.132812"/>
       <use xlink:href="#DejaVuSans-Oblique-2f" x="251.708984"/>
       <use xlink:href="#DejaVuSans-Oblique-79" x="285.400391"/>
       <use xlink:href="#DejaVuSans-Oblique-64" x="344.580078"/>
       <use xlink:href="#DejaVuSans-Oblique-62" x="408.056641"/>
       <use xlink:href="#DejaVuSans-Oblique-4a" x="471.533203"/>
      </g>
     </g>
    </g>
    <g id="xtick_68">
     <g id="text_34">
      <!-- acs/nrfA -->
      <g style="fill: #262626" transform="translate(381.021762 214.764727)rotate(-45)scale(0.088 -0.088)">
       <use xlink:href="#DejaVuSans-Oblique-61"/>
       <use xlink:href="#DejaVuSans-Oblique-63" x="61.279297"/>
       <use xlink:href="#DejaVuSans-Oblique-73" x="116.259766"/>
       <use xlink:href="#DejaVuSans-Oblique-2f" x="168.359375"/>
       <use xlink:href="#DejaVuSans-Oblique-6e" x="202.050781"/>
       <use xlink:href="#DejaVuSans-Oblique-72" x="265.429688"/>
       <use xlink:href="#DejaVuSans-Oblique-66" x="306.542969"/>
       <use xlink:href="#DejaVuSans-Oblique-41" x="341.748047"/>
      </g>
     </g>
    </g>
    <g id="xtick_69">
     <g id="text_35">
      <!-- pncA -->
      <g style="fill: #262626" transform="translate(402.355122 204.815469)rotate(-45)scale(0.088 -0.088)">
       <use xlink:href="#DejaVuSans-Oblique-70"/>
       <use xlink:href="#DejaVuSans-Oblique-6e" x="63.476562"/>
       <use xlink:href="#DejaVuSans-Oblique-63" x="126.855469"/>
       <use xlink:href="#DejaVuSans-Oblique-41" x="181.835938"/>
      </g>
     </g>
    </g>
    <g id="xtick_70">
     <g id="text_36">
      <!-- aroC/prmB -->
      <g style="fill: #262626" transform="translate(395.85234 222.702354)rotate(-45)scale(0.088 -0.088)">
       <use xlink:href="#DejaVuSans-Oblique-61"/>
       <use xlink:href="#DejaVuSans-Oblique-72" x="61.279297"/>
       <use xlink:href="#DejaVuSans-Oblique-6f" x="102.392578"/>
       <use xlink:href="#DejaVuSans-Oblique-43" x="163.574219"/>
       <use xlink:href="#DejaVuSans-Oblique-2f" x="233.398438"/>
       <use xlink:href="#DejaVuSans-Oblique-70" x="267.089844"/>
       <use xlink:href="#DejaVuSans-Oblique-72" x="330.566406"/>
       <use xlink:href="#DejaVuSans-Oblique-6d" x="371.679688"/>
       <use xlink:href="#DejaVuSans-Oblique-42" x="469.091797"/>
      </g>
     </g>
    </g>
    <g id="xtick_71">
     <g id="text_37">
      <!-- sdhA -->
      <g style="fill: #262626" transform="translate(425.303197 204.635599)rotate(-45)scale(0.088 -0.088)">
       <use xlink:href="#DejaVuSans-Oblique-73"/>
       <use xlink:href="#DejaVuSans-Oblique-64" x="52.099609"/>
       <use xlink:href="#DejaVuSans-Oblique-68" x="115.576172"/>
       <use xlink:href="#DejaVuSans-Oblique-41" x="178.955078"/>
      </g>
     </g>
    </g>
    <g id="xtick_72">
     <g id="text_38">
      <!-- mepM -->
      <g style="fill: #262626" transform="translate(432.87016 208.452738)rotate(-45)scale(0.088 -0.088)">
       <use xlink:href="#DejaVuSans-Oblique-6d"/>
       <use xlink:href="#DejaVuSans-Oblique-65" x="97.412109"/>
       <use xlink:href="#DejaVuSans-Oblique-70" x="158.935547"/>
       <use xlink:href="#DejaVuSans-Oblique-4d" x="222.412109"/>
      </g>
     </g>
    </g>
    <g id="xtick_73">
     <g id="text_39">
      <!-- brnQ -->
      <g style="fill: #262626" transform="translate(448.113209 204.593791)rotate(-45)scale(0.088 -0.088)">
       <defs>
        <path id="DejaVuSans-Oblique-51" d="M 2309 -84 
Q 2275 -88 2237 -89 
Q 2200 -91 2125 -91 
Q 1250 -91 756 411 
Q 263 913 263 1797 
Q 263 2319 452 2844 
Q 641 3369 978 3788 
Q 1369 4269 1858 4509 
Q 2347 4750 2938 4750 
Q 3794 4750 4287 4245 
Q 4781 3741 4781 2869 
Q 4781 1928 4265 1147 
Q 3750 366 2919 44 
L 3553 -825 
L 2847 -825 
L 2309 -84 
z
M 2919 4238 
Q 2400 4238 2003 3986 
Q 1606 3734 1313 3219 
Q 1125 2891 1026 2522 
Q 928 2153 928 1778 
Q 928 1128 1239 775 
Q 1550 422 2119 422 
Q 2631 422 3032 676 
Q 3434 931 3719 1434 
Q 3909 1772 4009 2142 
Q 4109 2513 4109 2881 
Q 4109 3528 3796 3883 
Q 3484 4238 2919 4238 
z
" transform="scale(0.015625)"/>
       </defs>
       <use xlink:href="#DejaVuSans-Oblique-62"/>
       <use xlink:href="#DejaVuSans-Oblique-72" x="63.476562"/>
       <use xlink:href="#DejaVuSans-Oblique-6e" x="104.589844"/>
       <use xlink:href="#DejaVuSans-Oblique-51" x="167.96875"/>
      </g>
     </g>
    </g>
    <g id="xtick_74">
     <g id="text_40">
      <!-- gltT/rrlB -->
      <g style="fill: #262626" transform="translate(449.718202 214.372901)rotate(-45)scale(0.088 -0.088)">
       <defs>
        <path id="DejaVuSans-Oblique-54" d="M 378 4666 
L 4325 4666 
L 4225 4134 
L 2559 4134 
L 1759 0 
L 1125 0 
L 1925 4134 
L 275 4134 
L 378 4666 
z
" transform="scale(0.015625)"/>
       </defs>
       <use xlink:href="#DejaVuSans-Oblique-67"/>
       <use xlink:href="#DejaVuSans-Oblique-6c" x="63.476562"/>
       <use xlink:href="#DejaVuSans-Oblique-74" x="91.259766"/>
       <use xlink:href="#DejaVuSans-Oblique-54" x="130.46875"/>
       <use xlink:href="#DejaVuSans-Oblique-2f" x="191.552734"/>
       <use xlink:href="#DejaVuSans-Oblique-72" x="225.244141"/>
       <use xlink:href="#DejaVuSans-Oblique-72" x="266.357422"/>
       <use xlink:href="#DejaVuSans-Oblique-6c" x="307.470703"/>
       <use xlink:href="#DejaVuSans-Oblique-42" x="335.253906"/>
      </g>
     </g>
    </g>
    <g id="xtick_75">
     <g id="text_41">
      <!-- bdcA -->
      <g style="fill: #262626" transform="translate(470.65293 204.822275)rotate(-45)scale(0.088 -0.088)">
       <use xlink:href="#DejaVuSans-Oblique-62"/>
       <use xlink:href="#DejaVuSans-Oblique-64" x="63.476562"/>
       <use xlink:href="#DejaVuSans-Oblique-63" x="126.953125"/>
       <use xlink:href="#DejaVuSans-Oblique-41" x="181.933594"/>
      </g>
     </g>
    </g>
    <g id="xtick_76">
     <g id="text_42">
      <!-- betT/pdeL -->
      <g style="fill: #262626" transform="translate(466.30373 220.555578)rotate(-45)scale(0.088 -0.088)">
       <defs>
        <path id="DejaVuSans-Oblique-4c" d="M 1075 4666 
L 1709 4666 
L 909 525 
L 3181 525 
L 3078 0 
L 172 0 
L 1075 4666 
z
" transform="scale(0.015625)"/>
       </defs>
       <use xlink:href="#DejaVuSans-Oblique-62"/>
       <use xlink:href="#DejaVuSans-Oblique-65" x="63.476562"/>
       <use xlink:href="#DejaVuSans-Oblique-74" x="125"/>
       <use xlink:href="#DejaVuSans-Oblique-54" x="164.208984"/>
       <use xlink:href="#DejaVuSans-Oblique-2f" x="225.292969"/>
       <use xlink:href="#DejaVuSans-Oblique-70" x="258.984375"/>
       <use xlink:href="#DejaVuSans-Oblique-64" x="322.460938"/>
       <use xlink:href="#DejaVuSans-Oblique-65" x="385.9375"/>
       <use xlink:href="#DejaVuSans-Oblique-4c" x="447.460938"/>
      </g>
     </g>
    </g>
    <g id="xtick_77">
     <g id="text_43">
      <!-- ydcC -->
      <g style="fill: #262626" transform="translate(493.600033 204.643377)rotate(-45)scale(0.088 -0.088)">
       <use xlink:href="#DejaVuSans-Oblique-79"/>
       <use xlink:href="#DejaVuSans-Oblique-64" x="59.179688"/>
       <use xlink:href="#DejaVuSans-Oblique-63" x="122.65625"/>
       <use xlink:href="#DejaVuSans-Oblique-43" x="177.636719"/>
      </g>
     </g>
    </g>
    <g id="xtick_78">
     <g id="text_44">
      <!-- yegK -->
      <g style="fill: #262626" transform="translate(504.841211 204.786301)rotate(-45)scale(0.088 -0.088)">
       <use xlink:href="#DejaVuSans-Oblique-79"/>
       <use xlink:href="#DejaVuSans-Oblique-65" x="59.179688"/>
       <use xlink:href="#DejaVuSans-Oblique-67" x="120.703125"/>
       <use xlink:href="#DejaVuSans-Oblique-4b" x="184.179688"/>
      </g>
     </g>
    </g>
    <g id="xtick_79">
     <g id="text_45">
      <!-- yheS -->
      <g style="fill: #262626" transform="translate(516.362404 204.649211)rotate(-45)scale(0.088 -0.088)">
       <defs>
        <path id="DejaVuSans-Oblique-53" d="M 3859 4513 
L 3738 3897 
Q 3422 4066 3111 4152 
Q 2800 4238 2509 4238 
Q 1944 4238 1609 3991 
Q 1275 3744 1275 3334 
Q 1275 3109 1398 2989 
Q 1522 2869 2034 2731 
L 2413 2638 
Q 3053 2472 3303 2217 
Q 3553 1963 3553 1503 
Q 3553 797 2998 353 
Q 2444 -91 1538 -91 
Q 1166 -91 791 -17 
Q 416 56 38 206 
L 166 856 
Q 513 641 861 531 
Q 1209 422 1556 422 
Q 2147 422 2503 684 
Q 2859 947 2859 1369 
Q 2859 1650 2717 1795 
Q 2575 1941 2106 2059 
L 1728 2156 
Q 1081 2325 845 2545 
Q 609 2766 609 3163 
Q 609 3859 1145 4304 
Q 1681 4750 2541 4750 
Q 2875 4750 3203 4690 
Q 3531 4631 3859 4513 
z
" transform="scale(0.015625)"/>
       </defs>
       <use xlink:href="#DejaVuSans-Oblique-79"/>
       <use xlink:href="#DejaVuSans-Oblique-68" x="59.179688"/>
       <use xlink:href="#DejaVuSans-Oblique-65" x="122.558594"/>
       <use xlink:href="#DejaVuSans-Oblique-53" x="184.082031"/>
      </g>
     </g>
    </g>
    <g id="xtick_80">
     <g id="text_46">
      <!-- gspD -->
      <g style="fill: #262626" transform="translate(527.218563 205.177154)rotate(-45)scale(0.088 -0.088)">
       <use xlink:href="#DejaVuSans-Oblique-67"/>
       <use xlink:href="#DejaVuSans-Oblique-73" x="63.476562"/>
       <use xlink:href="#DejaVuSans-Oblique-70" x="115.576172"/>
       <use xlink:href="#DejaVuSans-Oblique-44" x="179.052734"/>
      </g>
     </g>
    </g>
    <g id="text_47">
     <!-- ALEdb $\it{E. coli}$ mutated genetic features -->
     <g style="fill: #262626" transform="translate(223.266 235.431483)scale(0.096 -0.096)">
      <defs>
       <path id="DejaVuSans-64" d="M 2906 2969 
L 2906 4863 
L 3481 4863 
L 3481 0 
L 2906 0 
L 2906 525 
Q 2725 213 2448 61 
Q 2172 -91 1784 -91 
Q 1150 -91 751 415 
Q 353 922 353 1747 
Q 353 2572 751 3078 
Q 1150 3584 1784 3584 
Q 2172 3584 2448 3432 
Q 2725 3281 2906 2969 
z
M 947 1747 
Q 947 1113 1208 752 
Q 1469 391 1925 391 
Q 2381 391 2643 752 
Q 2906 1113 2906 1747 
Q 2906 2381 2643 2742 
Q 2381 3103 1925 3103 
Q 1469 3103 1208 2742 
Q 947 2381 947 1747 
z
" transform="scale(0.015625)"/>
       <path id="DejaVuSans-62" d="M 3116 1747 
Q 3116 2381 2855 2742 
Q 2594 3103 2138 3103 
Q 1681 3103 1420 2742 
Q 1159 2381 1159 1747 
Q 1159 1113 1420 752 
Q 1681 391 2138 391 
Q 2594 391 2855 752 
Q 3116 1113 3116 1747 
z
M 1159 2969 
Q 1341 3281 1617 3432 
Q 1894 3584 2278 3584 
Q 2916 3584 3314 3078 
Q 3713 2572 3713 1747 
Q 3713 922 3314 415 
Q 2916 -91 2278 -91 
Q 1894 -91 1617 61 
Q 1341 213 1159 525 
L 1159 0 
L 581 0 
L 581 4863 
L 1159 4863 
L 1159 2969 
z
" transform="scale(0.015625)"/>
       <path id="DejaVuSans-20" transform="scale(0.015625)"/>
       <path id="DejaVuSans-2e" d="M 684 794 
L 1344 794 
L 1344 0 
L 684 0 
L 684 794 
z
" transform="scale(0.015625)"/>
       <path id="DejaVuSans-67" d="M 2906 1791 
Q 2906 2416 2648 2759 
Q 2391 3103 1925 3103 
Q 1463 3103 1205 2759 
Q 947 2416 947 1791 
Q 947 1169 1205 825 
Q 1463 481 1925 481 
Q 2391 481 2648 825 
Q 2906 1169 2906 1791 
z
M 3481 434 
Q 3481 -459 3084 -895 
Q 2688 -1331 1869 -1331 
Q 1566 -1331 1297 -1286 
Q 1028 -1241 775 -1147 
L 775 -588 
Q 1028 -725 1275 -790 
Q 1522 -856 1778 -856 
Q 2344 -856 2625 -561 
Q 2906 -266 2906 331 
L 2906 616 
Q 2728 306 2450 153 
Q 2172 0 1784 0 
Q 1141 0 747 490 
Q 353 981 353 1791 
Q 353 2603 747 3093 
Q 1141 3584 1784 3584 
Q 2172 3584 2450 3431 
Q 2728 3278 2906 2969 
L 2906 3500 
L 3481 3500 
L 3481 434 
z
" transform="scale(0.015625)"/>
       <path id="DejaVuSans-66" d="M 2375 4863 
L 2375 4384 
L 1825 4384 
Q 1516 4384 1395 4259 
Q 1275 4134 1275 3809 
L 1275 3500 
L 2222 3500 
L 2222 3053 
L 1275 3053 
L 1275 0 
L 697 0 
L 697 3053 
L 147 3053 
L 147 3500 
L 697 3500 
L 697 3744 
Q 697 4328 969 4595 
Q 1241 4863 1831 4863 
L 2375 4863 
z
" transform="scale(0.015625)"/>
       <path id="DejaVuSans-72" d="M 2631 2963 
Q 2534 3019 2420 3045 
Q 2306 3072 2169 3072 
Q 1681 3072 1420 2755 
Q 1159 2438 1159 1844 
L 1159 0 
L 581 0 
L 581 3500 
L 1159 3500 
L 1159 2956 
Q 1341 3275 1631 3429 
Q 1922 3584 2338 3584 
Q 2397 3584 2469 3576 
Q 2541 3569 2628 3553 
L 2631 2963 
z
" transform="scale(0.015625)"/>
       <path id="DejaVuSans-73" d="M 2834 3397 
L 2834 2853 
Q 2591 2978 2328 3040 
Q 2066 3103 1784 3103 
Q 1356 3103 1142 2972 
Q 928 2841 928 2578 
Q 928 2378 1081 2264 
Q 1234 2150 1697 2047 
L 1894 2003 
Q 2506 1872 2764 1633 
Q 3022 1394 3022 966 
Q 3022 478 2636 193 
Q 2250 -91 1575 -91 
Q 1294 -91 989 -36 
Q 684 19 347 128 
L 347 722 
Q 666 556 975 473 
Q 1284 391 1588 391 
Q 1994 391 2212 530 
Q 2431 669 2431 922 
Q 2431 1156 2273 1281 
Q 2116 1406 1581 1522 
L 1381 1569 
Q 847 1681 609 1914 
Q 372 2147 372 2553 
Q 372 3047 722 3315 
Q 1072 3584 1716 3584 
Q 2034 3584 2315 3537 
Q 2597 3491 2834 3397 
z
" transform="scale(0.015625)"/>
      </defs>
      <use xlink:href="#DejaVuSans-41" transform="translate(0 0.015625)"/>
      <use xlink:href="#DejaVuSans-4c" transform="translate(68.408203 0.015625)"/>
      <use xlink:href="#DejaVuSans-45" transform="translate(124.121094 0.015625)"/>
      <use xlink:href="#DejaVuSans-64" transform="translate(187.304688 0.015625)"/>
      <use xlink:href="#DejaVuSans-62" transform="translate(250.78125 0.015625)"/>
      <use xlink:href="#DejaVuSans-20" transform="translate(314.257812 0.015625)"/>
      <use xlink:href="#DejaVuSans-Oblique-45" transform="translate(346.044922 0.015625)"/>
      <use xlink:href="#DejaVuSans-2e" transform="translate(409.228516 0.015625)"/>
      <use xlink:href="#DejaVuSans-Oblique-63" transform="translate(460.498047 0.015625)"/>
      <use xlink:href="#DejaVuSans-Oblique-6f" transform="translate(515.478516 0.015625)"/>
      <use xlink:href="#DejaVuSans-Oblique-6c" transform="translate(576.660156 0.015625)"/>
      <use xlink:href="#DejaVuSans-Oblique-69" transform="translate(604.443359 0.015625)"/>
      <use xlink:href="#DejaVuSans-20" transform="translate(632.226562 0.015625)"/>
      <use xlink:href="#DejaVuSans-6d" transform="translate(664.013672 0.015625)"/>
      <use xlink:href="#DejaVuSans-75" transform="translate(761.425781 0.015625)"/>
      <use xlink:href="#DejaVuSans-74" transform="translate(824.804688 0.015625)"/>
      <use xlink:href="#DejaVuSans-61" transform="translate(864.013672 0.015625)"/>
      <use xlink:href="#DejaVuSans-74" transform="translate(925.292969 0.015625)"/>
      <use xlink:href="#DejaVuSans-65" transform="translate(964.501953 0.015625)"/>
      <use xlink:href="#DejaVuSans-64" transform="translate(1026.025391 0.015625)"/>
      <use xlink:href="#DejaVuSans-20" transform="translate(1089.501953 0.015625)"/>
      <use xlink:href="#DejaVuSans-67" transform="translate(1121.289062 0.015625)"/>
      <use xlink:href="#DejaVuSans-65" transform="translate(1184.765625 0.015625)"/>
      <use xlink:href="#DejaVuSans-6e" transform="translate(1246.289062 0.015625)"/>
      <use xlink:href="#DejaVuSans-65" transform="translate(1309.667969 0.015625)"/>
      <use xlink:href="#DejaVuSans-74" transform="translate(1371.191406 0.015625)"/>
      <use xlink:href="#DejaVuSans-69" transform="translate(1410.400391 0.015625)"/>
      <use xlink:href="#DejaVuSans-63" transform="translate(1438.183594 0.015625)"/>
      <use xlink:href="#DejaVuSans-20" transform="translate(1493.164062 0.015625)"/>
      <use xlink:href="#DejaVuSans-66" transform="translate(1524.951172 0.015625)"/>
      <use xlink:href="#DejaVuSans-65" transform="translate(1560.15625 0.015625)"/>
      <use xlink:href="#DejaVuSans-61" transform="translate(1621.679688 0.015625)"/>
      <use xlink:href="#DejaVuSans-74" transform="translate(1682.958984 0.015625)"/>
      <use xlink:href="#DejaVuSans-75" transform="translate(1722.167969 0.015625)"/>
      <use xlink:href="#DejaVuSans-72" transform="translate(1785.546875 0.015625)"/>
      <use xlink:href="#DejaVuSans-65" transform="translate(1826.660156 0.015625)"/>
      <use xlink:href="#DejaVuSans-73" transform="translate(1888.183594 0.015625)"/>
     </g>
    </g>
   </g>
   <g id="matplotlib.axis_4">
    <g id="ytick_6">
     <g id="line2d_6">
      <path d="M 67.236 176.215406 
L 565.632 176.215406 
" clip-path="url(#pdb62276e48)" style="fill: none; stroke: #cccccc; stroke-width: 0.8; stroke-linecap: round"/>
     </g>
     <g id="text_48">
      <!-- 0 -->
      <g style="fill: #262626" transform="translate(53.337 179.558718)scale(0.088 -0.088)">
       <use xlink:href="#DejaVuSans-30"/>
      </g>
     </g>
    </g>
    <g id="ytick_7">
     <g id="line2d_7">
      <path d="M 67.236 156.946499 
L 565.632 156.946499 
" clip-path="url(#pdb62276e48)" style="fill: none; stroke: #cccccc; stroke-width: 0.8; stroke-linecap: round"/>
     </g>
     <g id="text_49">
      <!-- 10 -->
      <g style="fill: #262626" transform="translate(47.738 160.289812)scale(0.088 -0.088)">
       <use xlink:href="#DejaVuSans-31"/>
       <use xlink:href="#DejaVuSans-30" x="63.623047"/>
      </g>
     </g>
    </g>
    <g id="ytick_8">
     <g id="line2d_8">
      <path d="M 67.236 137.677592 
L 565.632 137.677592 
" clip-path="url(#pdb62276e48)" style="fill: none; stroke: #cccccc; stroke-width: 0.8; stroke-linecap: round"/>
     </g>
     <g id="text_50">
      <!-- 20 -->
      <g style="fill: #262626" transform="translate(47.738 141.020905)scale(0.088 -0.088)">
       <use xlink:href="#DejaVuSans-32"/>
       <use xlink:href="#DejaVuSans-30" x="63.623047"/>
      </g>
     </g>
    </g>
    <g id="ytick_9">
     <g id="line2d_9">
      <path d="M 67.236 118.408685 
L 565.632 118.408685 
" clip-path="url(#pdb62276e48)" style="fill: none; stroke: #cccccc; stroke-width: 0.8; stroke-linecap: round"/>
     </g>
     <g id="text_51">
      <!-- 30 -->
      <g style="fill: #262626" transform="translate(47.738 121.751998)scale(0.088 -0.088)">
       <use xlink:href="#DejaVuSans-33"/>
       <use xlink:href="#DejaVuSans-30" x="63.623047"/>
      </g>
     </g>
    </g>
    <g id="text_52">
     <!-- total ALE -->
     <g style="fill: #262626" transform="translate(20.2417 160.277554)rotate(-90)scale(0.096 -0.096)">
      <defs>
       <path id="DejaVuSans-6c" d="M 603 4863 
L 1178 4863 
L 1178 0 
L 603 0 
L 603 4863 
z
" transform="scale(0.015625)"/>
      </defs>
      <use xlink:href="#DejaVuSans-74"/>
      <use xlink:href="#DejaVuSans-6f" x="39.208984"/>
      <use xlink:href="#DejaVuSans-74" x="100.390625"/>
      <use xlink:href="#DejaVuSans-61" x="139.599609"/>
      <use xlink:href="#DejaVuSans-6c" x="200.878906"/>
      <use xlink:href="#DejaVuSans-20" x="228.662109"/>
      <use xlink:href="#DejaVuSans-41" x="260.449219"/>
      <use xlink:href="#DejaVuSans-4c" x="328.857422"/>
      <use xlink:href="#DejaVuSans-45" x="384.570312"/>
     </g>
     <!-- experiment -->
     <g style="fill: #262626" transform="translate(30.9916 166.356304)rotate(-90)scale(0.096 -0.096)">
      <defs>
       <path id="DejaVuSans-78" d="M 3513 3500 
L 2247 1797 
L 3578 0 
L 2900 0 
L 1881 1375 
L 863 0 
L 184 0 
L 1544 1831 
L 300 3500 
L 978 3500 
L 1906 2253 
L 2834 3500 
L 3513 3500 
z
" transform="scale(0.015625)"/>
       <path id="DejaVuSans-70" d="M 1159 525 
L 1159 -1331 
L 581 -1331 
L 581 3500 
L 1159 3500 
L 1159 2969 
Q 1341 3281 1617 3432 
Q 1894 3584 2278 3584 
Q 2916 3584 3314 3078 
Q 3713 2572 3713 1747 
Q 3713 922 3314 415 
Q 2916 -91 2278 -91 
Q 1894 -91 1617 61 
Q 1341 213 1159 525 
z
M 3116 1747 
Q 3116 2381 2855 2742 
Q 2594 3103 2138 3103 
Q 1681 3103 1420 2742 
Q 1159 2381 1159 1747 
Q 1159 1113 1420 752 
Q 1681 391 2138 391 
Q 2594 391 2855 752 
Q 3116 1113 3116 1747 
z
" transform="scale(0.015625)"/>
      </defs>
      <use xlink:href="#DejaVuSans-65"/>
      <use xlink:href="#DejaVuSans-78" x="59.773438"/>
      <use xlink:href="#DejaVuSans-70" x="118.953125"/>
      <use xlink:href="#DejaVuSans-65" x="182.429688"/>
      <use xlink:href="#DejaVuSans-72" x="243.953125"/>
      <use xlink:href="#DejaVuSans-69" x="285.066406"/>
      <use xlink:href="#DejaVuSans-6d" x="312.849609"/>
      <use xlink:href="#DejaVuSans-65" x="410.261719"/>
      <use xlink:href="#DejaVuSans-6e" x="471.785156"/>
      <use xlink:href="#DejaVuSans-74" x="535.164062"/>
     </g>
     <!-- count -->
     <g style="fill: #262626" transform="translate(41.7415 152.327554)rotate(-90)scale(0.096 -0.096)">
      <use xlink:href="#DejaVuSans-63"/>
      <use xlink:href="#DejaVuSans-6f" x="54.980469"/>
      <use xlink:href="#DejaVuSans-75" x="116.162109"/>
      <use xlink:href="#DejaVuSans-6e" x="179.541016"/>
      <use xlink:href="#DejaVuSans-74" x="242.919922"/>
     </g>
    </g>
   </g>
   <g id="patch_46">
    <path d="M 89.890364 176.215406 
L 98.997646 176.215406 
L 98.997646 147.312046 
L 89.890364 147.312046 
z
" clip-path="url(#pdb62276e48)" style="fill: #ffffff; stroke: #000000; stroke-width: 0.8; stroke-linejoin: miter"/>
   </g>
   <g id="patch_47">
    <path d="M 101.274466 176.215406 
L 110.381748 176.215406 
L 110.381748 118.408685 
L 101.274466 118.408685 
z
" clip-path="url(#pdb62276e48)" style="fill: #ffffff; stroke: #000000; stroke-width: 0.8; stroke-linejoin: miter"/>
   </g>
   <g id="patch_48">
    <path d="M 112.658568 176.215406 
L 121.76585 176.215406 
L 121.76585 104.920451 
L 112.658568 104.920451 
z
" clip-path="url(#pdb62276e48)" style="fill: #ffffff; stroke: #000000; stroke-width: 0.8; stroke-linejoin: miter"/>
   </g>
   <g id="patch_49">
    <path d="M 124.042671 176.215406 
L 133.149952 176.215406 
L 133.149952 172.361625 
L 124.042671 172.361625 
z
" clip-path="url(#pdb62276e48)" style="fill: #ffffff; stroke: #000000; stroke-width: 0.8; stroke-linejoin: miter"/>
   </g>
   <g id="patch_50">
    <path d="M 135.426773 176.215406 
L 144.534055 176.215406 
L 144.534055 174.288515 
L 135.426773 174.288515 
z
" clip-path="url(#pdb62276e48)" style="fill: #ffffff; stroke: #000000; stroke-width: 0.8; stroke-linejoin: miter"/>
   </g>
   <g id="patch_51">
    <path d="M 146.810875 176.215406 
L 155.918157 176.215406 
L 155.918157 164.654062 
L 146.810875 164.654062 
z
" clip-path="url(#pdb62276e48)" style="fill: #ffffff; stroke: #000000; stroke-width: 0.8; stroke-linejoin: miter"/>
   </g>
   <g id="patch_52">
    <path d="M 158.194978 176.215406 
L 167.302259 176.215406 
L 167.302259 120.335576 
L 158.194978 120.335576 
z
" clip-path="url(#pdb62276e48)" style="fill: #ffffff; stroke: #000000; stroke-width: 0.8; stroke-linejoin: miter"/>
   </g>
   <g id="patch_53">
    <path d="M 169.57908 176.215406 
L 178.686362 176.215406 
L 178.686362 149.238936 
L 169.57908 149.238936 
z
" clip-path="url(#pdb62276e48)" style="fill: #ffffff; stroke: #000000; stroke-width: 0.8; stroke-linejoin: miter"/>
   </g>
   <g id="patch_54">
    <path d="M 180.963182 176.215406 
L 190.070464 176.215406 
L 190.070464 166.580952 
L 180.963182 166.580952 
z
" clip-path="url(#pdb62276e48)" style="fill: #ffffff; stroke: #000000; stroke-width: 0.8; stroke-linejoin: miter"/>
   </g>
   <g id="patch_55">
    <path d="M 192.347285 176.215406 
L 201.454566 176.215406 
L 201.454566 172.361625 
L 192.347285 172.361625 
z
" clip-path="url(#pdb62276e48)" style="fill: #ffffff; stroke: #000000; stroke-width: 0.8; stroke-linejoin: miter"/>
   </g>
   <g id="patch_56">
    <path d="M 203.731387 176.215406 
L 212.838669 176.215406 
L 212.838669 174.288515 
L 203.731387 174.288515 
z
" clip-path="url(#pdb62276e48)" style="fill: #ffffff; stroke: #000000; stroke-width: 0.8; stroke-linejoin: miter"/>
   </g>
   <g id="patch_57">
    <path d="M 215.115489 176.215406 
L 224.222771 176.215406 
L 224.222771 168.507843 
L 215.115489 168.507843 
z
" clip-path="url(#pdb62276e48)" style="fill: #ffffff; stroke: #000000; stroke-width: 0.8; stroke-linejoin: miter"/>
   </g>
   <g id="patch_58">
    <path d="M 226.499592 176.215406 
L 235.606873 176.215406 
L 235.606873 174.288515 
L 226.499592 174.288515 
z
" clip-path="url(#pdb62276e48)" style="fill: #ffffff; stroke: #000000; stroke-width: 0.8; stroke-linejoin: miter"/>
   </g>
   <g id="patch_59">
    <path d="M 237.883694 176.215406 
L 246.990976 176.215406 
L 246.990976 174.288515 
L 237.883694 174.288515 
z
" clip-path="url(#pdb62276e48)" style="fill: #ffffff; stroke: #000000; stroke-width: 0.8; stroke-linejoin: miter"/>
   </g>
   <g id="patch_60">
    <path d="M 249.267796 176.215406 
L 258.375078 176.215406 
L 258.375078 174.288515 
L 249.267796 174.288515 
z
" clip-path="url(#pdb62276e48)" style="fill: #ffffff; stroke: #000000; stroke-width: 0.8; stroke-linejoin: miter"/>
   </g>
   <g id="patch_61">
    <path d="M 260.651899 176.215406 
L 269.75918 176.215406 
L 269.75918 174.288515 
L 260.651899 174.288515 
z
" clip-path="url(#pdb62276e48)" style="fill: #ffffff; stroke: #000000; stroke-width: 0.8; stroke-linejoin: miter"/>
   </g>
   <g id="patch_62">
    <path d="M 272.036001 176.215406 
L 281.143283 176.215406 
L 281.143283 164.654062 
L 272.036001 164.654062 
z
" clip-path="url(#pdb62276e48)" style="fill: #ffffff; stroke: #000000; stroke-width: 0.8; stroke-linejoin: miter"/>
   </g>
   <g id="patch_63">
    <path d="M 283.420103 176.215406 
L 292.527385 176.215406 
L 292.527385 168.507843 
L 283.420103 168.507843 
z
" clip-path="url(#pdb62276e48)" style="fill: #ffffff; stroke: #000000; stroke-width: 0.8; stroke-linejoin: miter"/>
   </g>
   <g id="patch_64">
    <path d="M 294.804206 176.215406 
L 303.911487 176.215406 
L 303.911487 156.946499 
L 294.804206 156.946499 
z
" clip-path="url(#pdb62276e48)" style="fill: #ffffff; stroke: #000000; stroke-width: 0.8; stroke-linejoin: miter"/>
   </g>
   <g id="patch_65">
    <path d="M 306.188308 176.215406 
L 315.29559 176.215406 
L 315.29559 168.507843 
L 306.188308 168.507843 
z
" clip-path="url(#pdb62276e48)" style="fill: #ffffff; stroke: #000000; stroke-width: 0.8; stroke-linejoin: miter"/>
   </g>
   <g id="patch_66">
    <path d="M 317.57241 176.215406 
L 326.679692 176.215406 
L 326.679692 168.507843 
L 317.57241 168.507843 
z
" clip-path="url(#pdb62276e48)" style="fill: #ffffff; stroke: #000000; stroke-width: 0.8; stroke-linejoin: miter"/>
   </g>
   <g id="patch_67">
    <path d="M 328.956513 176.215406 
L 338.063794 176.215406 
L 338.063794 166.580952 
L 328.956513 166.580952 
z
" clip-path="url(#pdb62276e48)" style="fill: #ffffff; stroke: #000000; stroke-width: 0.8; stroke-linejoin: miter"/>
   </g>
   <g id="patch_68">
    <path d="M 340.340615 176.215406 
L 349.447897 176.215406 
L 349.447897 174.288515 
L 340.340615 174.288515 
z
" clip-path="url(#pdb62276e48)" style="fill: #ffffff; stroke: #000000; stroke-width: 0.8; stroke-linejoin: miter"/>
   </g>
   <g id="patch_69">
    <path d="M 351.724717 176.215406 
L 360.831999 176.215406 
L 360.831999 174.288515 
L 351.724717 174.288515 
z
" clip-path="url(#pdb62276e48)" style="fill: #ffffff; stroke: #000000; stroke-width: 0.8; stroke-linejoin: miter"/>
   </g>
   <g id="patch_70">
    <path d="M 363.10882 176.215406 
L 372.216101 176.215406 
L 372.216101 174.288515 
L 363.10882 174.288515 
z
" clip-path="url(#pdb62276e48)" style="fill: #ffffff; stroke: #000000; stroke-width: 0.8; stroke-linejoin: miter"/>
   </g>
   <g id="patch_71">
    <path d="M 374.492922 176.215406 
L 383.600204 176.215406 
L 383.600204 174.288515 
L 374.492922 174.288515 
z
" clip-path="url(#pdb62276e48)" style="fill: #ffffff; stroke: #000000; stroke-width: 0.8; stroke-linejoin: miter"/>
   </g>
   <g id="patch_72">
    <path d="M 385.877024 176.215406 
L 394.984306 176.215406 
L 394.984306 170.434734 
L 385.877024 170.434734 
z
" clip-path="url(#pdb62276e48)" style="fill: #ffffff; stroke: #000000; stroke-width: 0.8; stroke-linejoin: miter"/>
   </g>
   <g id="patch_73">
    <path d="M 397.261127 176.215406 
L 406.368408 176.215406 
L 406.368408 174.288515 
L 397.261127 174.288515 
z
" clip-path="url(#pdb62276e48)" style="fill: #ffffff; stroke: #000000; stroke-width: 0.8; stroke-linejoin: miter"/>
   </g>
   <g id="patch_74">
    <path d="M 408.645229 176.215406 
L 417.752511 176.215406 
L 417.752511 174.288515 
L 408.645229 174.288515 
z
" clip-path="url(#pdb62276e48)" style="fill: #ffffff; stroke: #000000; stroke-width: 0.8; stroke-linejoin: miter"/>
   </g>
   <g id="patch_75">
    <path d="M 420.029331 176.215406 
L 429.136613 176.215406 
L 429.136613 174.288515 
L 420.029331 174.288515 
z
" clip-path="url(#pdb62276e48)" style="fill: #ffffff; stroke: #000000; stroke-width: 0.8; stroke-linejoin: miter"/>
   </g>
   <g id="patch_76">
    <path d="M 431.413434 176.215406 
L 440.520715 176.215406 
L 440.520715 172.361625 
L 431.413434 172.361625 
z
" clip-path="url(#pdb62276e48)" style="fill: #ffffff; stroke: #000000; stroke-width: 0.8; stroke-linejoin: miter"/>
   </g>
   <g id="patch_77">
    <path d="M 442.797536 176.215406 
L 451.904818 176.215406 
L 451.904818 170.434734 
L 442.797536 170.434734 
z
" clip-path="url(#pdb62276e48)" style="fill: #ffffff; stroke: #000000; stroke-width: 0.8; stroke-linejoin: miter"/>
   </g>
   <g id="patch_78">
    <path d="M 454.181638 176.215406 
L 463.28892 176.215406 
L 463.28892 172.361625 
L 454.181638 172.361625 
z
" clip-path="url(#pdb62276e48)" style="fill: #ffffff; stroke: #000000; stroke-width: 0.8; stroke-linejoin: miter"/>
   </g>
   <g id="patch_79">
    <path d="M 465.565741 176.215406 
L 474.673022 176.215406 
L 474.673022 174.288515 
L 465.565741 174.288515 
z
" clip-path="url(#pdb62276e48)" style="fill: #ffffff; stroke: #000000; stroke-width: 0.8; stroke-linejoin: miter"/>
   </g>
   <g id="patch_80">
    <path d="M 476.949843 176.215406 
L 486.057125 176.215406 
L 486.057125 174.288515 
L 476.949843 174.288515 
z
" clip-path="url(#pdb62276e48)" style="fill: #ffffff; stroke: #000000; stroke-width: 0.8; stroke-linejoin: miter"/>
   </g>
   <g id="patch_81">
    <path d="M 488.333945 176.215406 
L 497.441227 176.215406 
L 497.441227 172.361625 
L 488.333945 172.361625 
z
" clip-path="url(#pdb62276e48)" style="fill: #ffffff; stroke: #000000; stroke-width: 0.8; stroke-linejoin: miter"/>
   </g>
   <g id="patch_82">
    <path d="M 499.718048 176.215406 
L 508.825329 176.215406 
L 508.825329 170.434734 
L 499.718048 170.434734 
z
" clip-path="url(#pdb62276e48)" style="fill: #ffffff; stroke: #000000; stroke-width: 0.8; stroke-linejoin: miter"/>
   </g>
   <g id="patch_83">
    <path d="M 511.10215 176.215406 
L 520.209432 176.215406 
L 520.209432 174.288515 
L 511.10215 174.288515 
z
" clip-path="url(#pdb62276e48)" style="fill: #ffffff; stroke: #000000; stroke-width: 0.8; stroke-linejoin: miter"/>
   </g>
   <g id="patch_84">
    <path d="M 522.486252 176.215406 
L 531.593534 176.215406 
L 531.593534 172.361625 
L 522.486252 172.361625 
z
" clip-path="url(#pdb62276e48)" style="fill: #ffffff; stroke: #000000; stroke-width: 0.8; stroke-linejoin: miter"/>
   </g>
   <g id="patch_85">
    <path d="M 533.870354 176.215406 
L 542.977636 176.215406 
L 542.977636 172.361625 
L 533.870354 172.361625 
z
" clip-path="url(#pdb62276e48)" style="fill: #ffffff; stroke: #000000; stroke-width: 0.8; stroke-linejoin: miter"/>
   </g>
   <g id="patch_86">
    <path d="M 67.236 176.215406 
L 67.236 101.355703 
" style="fill: none; stroke: #cccccc; stroke-linejoin: miter; stroke-linecap: square"/>
   </g>
   <g id="patch_87">
    <path d="M 67.236 176.215406 
L 565.632 176.215406 
" style="fill: none; stroke: #cccccc; stroke-linejoin: miter; stroke-linecap: square"/>
   </g>
  </g>
 </g>
 <defs>
  <clipPath id="p9e90273bf0">
   <rect x="67.236" y="10.368" width="498.396" height="74.859703"/>
  </clipPath>
  <clipPath id="pdb62276e48">
   <rect x="67.236" y="101.355703" width="498.396" height="74.859703"/>
  </clipPath>
 </defs>
</svg>
