<?xml version="1.0" encoding="utf-8" standalone="no"?>
<!DOCTYPE svg PUBLIC "-//W3C//DTD SVG 1.1//EN"
  "http://www.w3.org/Graphics/SVG/1.1/DTD/svg11.dtd">
<svg xmlns:xlink="http://www.w3.org/1999/xlink" width="504pt" height="144pt" viewBox="0 0 504 144" xmlns="http://www.w3.org/2000/svg" version="1.1">
 <metadata>
  <rdf:RDF xmlns:dc="http://purl.org/dc/elements/1.1/" xmlns:cc="http://creativecommons.org/ns#" xmlns:rdf="http://www.w3.org/1999/02/22-rdf-syntax-ns#">
   <cc:Work>
    <dc:type rdf:resource="http://purl.org/dc/dcmitype/StillImage"/>
    <dc:date>2024-02-16T16:23:59.382538</dc:date>
    <dc:format>image/svg+xml</dc:format>
    <dc:creator>
     <cc:Agent>
      <dc:title>Matplotlib v3.5.1, https://matplotlib.org/</dc:title>
     </cc:Agent>
    </dc:creator>
   </cc:Work>
  </rdf:RDF>
 </metadata>
 <defs>
  <style type="text/css">*{stroke-linejoin: round; stroke-linecap: butt}</style>
 </defs>
 <g id="figure_1">
  <g id="patch_1">
   <path d="M 0 144 
L 504 144 
L 504 0 
L 0 0 
z
" style="fill: #ffffff"/>
  </g>
  <g id="axes_1">
   <g id="patch_2">
    <path d="M 63 126 
L 453.6 126 
L 453.6 17.28 
L 63 17.28 
z
" style="fill: #ffffff"/>
   </g>
   <g id="matplotlib.axis_1">
    <g id="xtick_1">
     <g id="line2d_1">
      <path d="M 93.237151 126 
L 93.237151 17.28 
" clip-path="url(#p80a029f746)" style="fill: none; stroke: #cccccc; stroke-linecap: round"/>
     </g>
     <g id="text_1">
      <!-- −4 -->
      <g style="fill: #262626" transform="translate(85.128948 143.858281)scale(0.11 -0.11)">
       <defs>
        <path id="DejaVuSans-2212" d="M 678 2272 
L 4684 2272 
L 4684 1741 
L 678 1741 
L 678 2272 
z
" transform="scale(0.015625)"/>
        <path id="DejaVuSans-34" d="M 2419 4116 
L 825 1625 
L 2419 1625 
L 2419 4116 
z
M 2253 4666 
L 3047 4666 
L 3047 1625 
L 3713 1625 
L 3713 1100 
L 3047 1100 
L 3047 0 
L 2419 0 
L 2419 1100 
L 313 1100 
L 313 1709 
L 2253 4666 
z
" transform="scale(0.015625)"/>
       </defs>
       <use xlink:href="#DejaVuSans-2212"/>
       <use xlink:href="#DejaVuSans-34" x="83.789062"/>
      </g>
     </g>
    </g>
    <g id="xtick_2">
     <g id="line2d_2">
      <path d="M 146.585831 126 
L 146.585831 17.28 
" clip-path="url(#p80a029f746)" style="fill: none; stroke: #cccccc; stroke-linecap: round"/>
     </g>
     <g id="text_2">
      <!-- −2 -->
      <g style="fill: #262626" transform="translate(138.477628 143.858281)scale(0.11 -0.11)">
       <defs>
        <path id="DejaVuSans-32" d="M 1228 531 
L 3431 531 
L 3431 0 
L 469 0 
L 469 531 
Q 828 903 1448 1529 
Q 2069 2156 2228 2338 
Q 2531 2678 2651 2914 
Q 2772 3150 2772 3378 
Q 2772 3750 2511 3984 
Q 2250 4219 1831 4219 
Q 1534 4219 1204 4116 
Q 875 4013 500 3803 
L 500 4441 
Q 881 4594 1212 4672 
Q 1544 4750 1819 4750 
Q 2544 4750 2975 4387 
Q 3406 4025 3406 3419 
Q 3406 3131 3298 2873 
Q 3191 2616 2906 2266 
Q 2828 2175 2409 1742 
Q 1991 1309 1228 531 
z
" transform="scale(0.015625)"/>
       </defs>
       <use xlink:href="#DejaVuSans-2212"/>
       <use xlink:href="#DejaVuSans-32" x="83.789062"/>
      </g>
     </g>
    </g>
    <g id="xtick_3">
     <g id="line2d_3">
      <path d="M 199.934511 126 
L 199.934511 17.28 
" clip-path="url(#p80a029f746)" style="fill: none; stroke: #cccccc; stroke-linecap: round"/>
     </g>
     <g id="text_3">
      <!-- 0 -->
      <g style="fill: #262626" transform="translate(196.435136 143.858281)scale(0.11 -0.11)">
       <defs>
        <path id="DejaVuSans-30" d="M 2034 4250 
Q 1547 4250 1301 3770 
Q 1056 3291 1056 2328 
Q 1056 1369 1301 889 
Q 1547 409 2034 409 
Q 2525 409 2770 889 
Q 3016 1369 3016 2328 
Q 3016 3291 2770 3770 
Q 2525 4250 2034 4250 
z
M 2034 4750 
Q 2819 4750 3233 4129 
Q 3647 3509 3647 2328 
Q 3647 1150 3233 529 
Q 2819 -91 2034 -91 
Q 1250 -91 836 529 
Q 422 1150 422 2328 
Q 422 3509 836 4129 
Q 1250 4750 2034 4750 
z
" transform="scale(0.015625)"/>
       </defs>
       <use xlink:href="#DejaVuSans-30"/>
      </g>
     </g>
    </g>
    <g id="xtick_4">
     <g id="line2d_4">
      <path d="M 253.283191 126 
L 253.283191 17.28 
" clip-path="url(#p80a029f746)" style="fill: none; stroke: #cccccc; stroke-linecap: round"/>
     </g>
     <g id="text_4">
      <!-- 2 -->
      <g style="fill: #262626" transform="translate(249.783816 143.858281)scale(0.11 -0.11)">
       <use xlink:href="#DejaVuSans-32"/>
      </g>
     </g>
    </g>
    <g id="xtick_5">
     <g id="line2d_5">
      <path d="M 306.631871 126 
L 306.631871 17.28 
" clip-path="url(#p80a029f746)" style="fill: none; stroke: #cccccc; stroke-linecap: round"/>
     </g>
     <g id="text_5">
      <!-- 4 -->
      <g style="fill: #262626" transform="translate(303.132496 143.858281)scale(0.11 -0.11)">
       <use xlink:href="#DejaVuSans-34"/>
      </g>
     </g>
    </g>
    <g id="xtick_6">
     <g id="line2d_6">
      <path d="M 359.980551 126 
L 359.980551 17.28 
" clip-path="url(#p80a029f746)" style="fill: none; stroke: #cccccc; stroke-linecap: round"/>
     </g>
     <g id="text_6">
      <!-- 6 -->
      <g style="fill: #262626" transform="translate(356.481176 143.858281)scale(0.11 -0.11)">
       <defs>
        <path id="DejaVuSans-36" d="M 2113 2584 
Q 1688 2584 1439 2293 
Q 1191 2003 1191 1497 
Q 1191 994 1439 701 
Q 1688 409 2113 409 
Q 2538 409 2786 701 
Q 3034 994 3034 1497 
Q 3034 2003 2786 2293 
Q 2538 2584 2113 2584 
z
M 3366 4563 
L 3366 3988 
Q 3128 4100 2886 4159 
Q 2644 4219 2406 4219 
Q 1781 4219 1451 3797 
Q 1122 3375 1075 2522 
Q 1259 2794 1537 2939 
Q 1816 3084 2150 3084 
Q 2853 3084 3261 2657 
Q 3669 2231 3669 1497 
Q 3669 778 3244 343 
Q 2819 -91 2113 -91 
Q 1303 -91 875 529 
Q 447 1150 447 2328 
Q 447 3434 972 4092 
Q 1497 4750 2381 4750 
Q 2619 4750 2861 4703 
Q 3103 4656 3366 4563 
z
" transform="scale(0.015625)"/>
       </defs>
       <use xlink:href="#DejaVuSans-36"/>
      </g>
     </g>
    </g>
    <g id="xtick_7">
     <g id="line2d_7">
      <path d="M 413.329231 126 
L 413.329231 17.28 
" clip-path="url(#p80a029f746)" style="fill: none; stroke: #cccccc; stroke-linecap: round"/>
     </g>
     <g id="text_7">
      <!-- 8 -->
      <g style="fill: #262626" transform="translate(409.829856 143.858281)scale(0.11 -0.11)">
       <defs>
        <path id="DejaVuSans-38" d="M 2034 2216 
Q 1584 2216 1326 1975 
Q 1069 1734 1069 1313 
Q 1069 891 1326 650 
Q 1584 409 2034 409 
Q 2484 409 2743 651 
Q 3003 894 3003 1313 
Q 3003 1734 2745 1975 
Q 2488 2216 2034 2216 
z
M 1403 2484 
Q 997 2584 770 2862 
Q 544 3141 544 3541 
Q 544 4100 942 4425 
Q 1341 4750 2034 4750 
Q 2731 4750 3128 4425 
Q 3525 4100 3525 3541 
Q 3525 3141 3298 2862 
Q 3072 2584 2669 2484 
Q 3125 2378 3379 2068 
Q 3634 1759 3634 1313 
Q 3634 634 3220 271 
Q 2806 -91 2034 -91 
Q 1263 -91 848 271 
Q 434 634 434 1313 
Q 434 1759 690 2068 
Q 947 2378 1403 2484 
z
M 1172 3481 
Q 1172 3119 1398 2916 
Q 1625 2713 2034 2713 
Q 2441 2713 2670 2916 
Q 2900 3119 2900 3481 
Q 2900 3844 2670 4047 
Q 2441 4250 2034 4250 
Q 1625 4250 1398 4047 
Q 1172 3844 1172 3481 
z
" transform="scale(0.015625)"/>
       </defs>
       <use xlink:href="#DejaVuSans-38"/>
      </g>
     </g>
    </g>
    <g id="text_8">
     <!-- CP4-44 iModulon activity -->
     <g style="fill: #262626" transform="translate(183.677813 159.264062)scale(0.12 -0.12)">
      <defs>
       <path id="DejaVuSans-43" d="M 4122 4306 
L 4122 3641 
Q 3803 3938 3442 4084 
Q 3081 4231 2675 4231 
Q 1875 4231 1450 3742 
Q 1025 3253 1025 2328 
Q 1025 1406 1450 917 
Q 1875 428 2675 428 
Q 3081 428 3442 575 
Q 3803 722 4122 1019 
L 4122 359 
Q 3791 134 3420 21 
Q 3050 -91 2638 -91 
Q 1578 -91 968 557 
Q 359 1206 359 2328 
Q 359 3453 968 4101 
Q 1578 4750 2638 4750 
Q 3056 4750 3426 4639 
Q 3797 4528 4122 4306 
z
" transform="scale(0.015625)"/>
       <path id="DejaVuSans-50" d="M 1259 4147 
L 1259 2394 
L 2053 2394 
Q 2494 2394 2734 2622 
Q 2975 2850 2975 3272 
Q 2975 3691 2734 3919 
Q 2494 4147 2053 4147 
L 1259 4147 
z
M 628 4666 
L 2053 4666 
Q 2838 4666 3239 4311 
Q 3641 3956 3641 3272 
Q 3641 2581 3239 2228 
Q 2838 1875 2053 1875 
L 1259 1875 
L 1259 0 
L 628 0 
L 628 4666 
z
" transform="scale(0.015625)"/>
       <path id="DejaVuSans-2d" d="M 313 2009 
L 1997 2009 
L 1997 1497 
L 313 1497 
L 313 2009 
z
" transform="scale(0.015625)"/>
       <path id="DejaVuSans-20" transform="scale(0.015625)"/>
       <path id="DejaVuSans-69" d="M 603 3500 
L 1178 3500 
L 1178 0 
L 603 0 
L 603 3500 
z
M 603 4863 
L 1178 4863 
L 1178 4134 
L 603 4134 
L 603 4863 
z
" transform="scale(0.015625)"/>
       <path id="DejaVuSans-4d" d="M 628 4666 
L 1569 4666 
L 2759 1491 
L 3956 4666 
L 4897 4666 
L 4897 0 
L 4281 0 
L 4281 4097 
L 3078 897 
L 2444 897 
L 1241 4097 
L 1241 0 
L 628 0 
L 628 4666 
z
" transform="scale(0.015625)"/>
       <path id="DejaVuSans-6f" d="M 1959 3097 
Q 1497 3097 1228 2736 
Q 959 2375 959 1747 
Q 959 1119 1226 758 
Q 1494 397 1959 397 
Q 2419 397 2687 759 
Q 2956 1122 2956 1747 
Q 2956 2369 2687 2733 
Q 2419 3097 1959 3097 
z
M 1959 3584 
Q 2709 3584 3137 3096 
Q 3566 2609 3566 1747 
Q 3566 888 3137 398 
Q 2709 -91 1959 -91 
Q 1206 -91 779 398 
Q 353 888 353 1747 
Q 353 2609 779 3096 
Q 1206 3584 1959 3584 
z
" transform="scale(0.015625)"/>
       <path id="DejaVuSans-64" d="M 2906 2969 
L 2906 4863 
L 3481 4863 
L 3481 0 
L 2906 0 
L 2906 525 
Q 2725 213 2448 61 
Q 2172 -91 1784 -91 
Q 1150 -91 751 415 
Q 353 922 353 1747 
Q 353 2572 751 3078 
Q 1150 3584 1784 3584 
Q 2172 3584 2448 3432 
Q 2725 3281 2906 2969 
z
M 947 1747 
Q 947 1113 1208 752 
Q 1469 391 1925 391 
Q 2381 391 2643 752 
Q 2906 1113 2906 1747 
Q 2906 2381 2643 2742 
Q 2381 3103 1925 3103 
Q 1469 3103 1208 2742 
Q 947 2381 947 1747 
z
" transform="scale(0.015625)"/>
       <path id="DejaVuSans-75" d="M 544 1381 
L 544 3500 
L 1119 3500 
L 1119 1403 
Q 1119 906 1312 657 
Q 1506 409 1894 409 
Q 2359 409 2629 706 
Q 2900 1003 2900 1516 
L 2900 3500 
L 3475 3500 
L 3475 0 
L 2900 0 
L 2900 538 
Q 2691 219 2414 64 
Q 2138 -91 1772 -91 
Q 1169 -91 856 284 
Q 544 659 544 1381 
z
M 1991 3584 
L 1991 3584 
z
" transform="scale(0.015625)"/>
       <path id="DejaVuSans-6c" d="M 603 4863 
L 1178 4863 
L 1178 0 
L 603 0 
L 603 4863 
z
" transform="scale(0.015625)"/>
       <path id="DejaVuSans-6e" d="M 3513 2113 
L 3513 0 
L 2938 0 
L 2938 2094 
Q 2938 2591 2744 2837 
Q 2550 3084 2163 3084 
Q 1697 3084 1428 2787 
Q 1159 2491 1159 1978 
L 1159 0 
L 581 0 
L 581 3500 
L 1159 3500 
L 1159 2956 
Q 1366 3272 1645 3428 
Q 1925 3584 2291 3584 
Q 2894 3584 3203 3211 
Q 3513 2838 3513 2113 
z
" transform="scale(0.015625)"/>
       <path id="DejaVuSans-61" d="M 2194 1759 
Q 1497 1759 1228 1600 
Q 959 1441 959 1056 
Q 959 750 1161 570 
Q 1363 391 1709 391 
Q 2188 391 2477 730 
Q 2766 1069 2766 1631 
L 2766 1759 
L 2194 1759 
z
M 3341 1997 
L 3341 0 
L 2766 0 
L 2766 531 
Q 2569 213 2275 61 
Q 1981 -91 1556 -91 
Q 1019 -91 701 211 
Q 384 513 384 1019 
Q 384 1609 779 1909 
Q 1175 2209 1959 2209 
L 2766 2209 
L 2766 2266 
Q 2766 2663 2505 2880 
Q 2244 3097 1772 3097 
Q 1472 3097 1187 3025 
Q 903 2953 641 2809 
L 641 3341 
Q 956 3463 1253 3523 
Q 1550 3584 1831 3584 
Q 2591 3584 2966 3190 
Q 3341 2797 3341 1997 
z
" transform="scale(0.015625)"/>
       <path id="DejaVuSans-63" d="M 3122 3366 
L 3122 2828 
Q 2878 2963 2633 3030 
Q 2388 3097 2138 3097 
Q 1578 3097 1268 2742 
Q 959 2388 959 1747 
Q 959 1106 1268 751 
Q 1578 397 2138 397 
Q 2388 397 2633 464 
Q 2878 531 3122 666 
L 3122 134 
Q 2881 22 2623 -34 
Q 2366 -91 2075 -91 
Q 1284 -91 818 406 
Q 353 903 353 1747 
Q 353 2603 823 3093 
Q 1294 3584 2113 3584 
Q 2378 3584 2631 3529 
Q 2884 3475 3122 3366 
z
" transform="scale(0.015625)"/>
       <path id="DejaVuSans-74" d="M 1172 4494 
L 1172 3500 
L 2356 3500 
L 2356 3053 
L 1172 3053 
L 1172 1153 
Q 1172 725 1289 603 
Q 1406 481 1766 481 
L 2356 481 
L 2356 0 
L 1766 0 
Q 1100 0 847 248 
Q 594 497 594 1153 
L 594 3053 
L 172 3053 
L 172 3500 
L 594 3500 
L 594 4494 
L 1172 4494 
z
" transform="scale(0.015625)"/>
       <path id="DejaVuSans-76" d="M 191 3500 
L 800 3500 
L 1894 563 
L 2988 3500 
L 3597 3500 
L 2284 0 
L 1503 0 
L 191 3500 
z
" transform="scale(0.015625)"/>
       <path id="DejaVuSans-79" d="M 2059 -325 
Q 1816 -950 1584 -1140 
Q 1353 -1331 966 -1331 
L 506 -1331 
L 506 -850 
L 844 -850 
Q 1081 -850 1212 -737 
Q 1344 -625 1503 -206 
L 1606 56 
L 191 3500 
L 800 3500 
L 1894 763 
L 2988 3500 
L 3597 3500 
L 2059 -325 
z
" transform="scale(0.015625)"/>
      </defs>
      <use xlink:href="#DejaVuSans-43"/>
      <use xlink:href="#DejaVuSans-50" x="69.824219"/>
      <use xlink:href="#DejaVuSans-34" x="130.126953"/>
      <use xlink:href="#DejaVuSans-2d" x="193.75"/>
      <use xlink:href="#DejaVuSans-34" x="229.833984"/>
      <use xlink:href="#DejaVuSans-34" x="293.457031"/>
      <use xlink:href="#DejaVuSans-20" x="357.080078"/>
      <use xlink:href="#DejaVuSans-69" x="388.867188"/>
      <use xlink:href="#DejaVuSans-4d" x="416.650391"/>
      <use xlink:href="#DejaVuSans-6f" x="502.929688"/>
      <use xlink:href="#DejaVuSans-64" x="564.111328"/>
      <use xlink:href="#DejaVuSans-75" x="627.587891"/>
      <use xlink:href="#DejaVuSans-6c" x="690.966797"/>
      <use xlink:href="#DejaVuSans-6f" x="718.75"/>
      <use xlink:href="#DejaVuSans-6e" x="779.931641"/>
      <use xlink:href="#DejaVuSans-20" x="843.310547"/>
      <use xlink:href="#DejaVuSans-61" x="875.097656"/>
      <use xlink:href="#DejaVuSans-63" x="936.376953"/>
      <use xlink:href="#DejaVuSans-74" x="991.357422"/>
      <use xlink:href="#DejaVuSans-69" x="1030.566406"/>
      <use xlink:href="#DejaVuSans-76" x="1058.349609"/>
      <use xlink:href="#DejaVuSans-69" x="1117.529297"/>
      <use xlink:href="#DejaVuSans-74" x="1145.3125"/>
      <use xlink:href="#DejaVuSans-79" x="1184.521484"/>
     </g>
    </g>
   </g>
   <g id="matplotlib.axis_2">
    <g id="ytick_1">
     <g id="text_9">
      <!-- 5mM H2O2 (6 samples) -->
      <g style="fill: #6b3286" transform="translate(-76.427188 32.331141)scale(0.11 -0.11)">
       <defs>
        <path id="DejaVuSans-35" d="M 691 4666 
L 3169 4666 
L 3169 4134 
L 1269 4134 
L 1269 2991 
Q 1406 3038 1543 3061 
Q 1681 3084 1819 3084 
Q 2600 3084 3056 2656 
Q 3513 2228 3513 1497 
Q 3513 744 3044 326 
Q 2575 -91 1722 -91 
Q 1428 -91 1123 -41 
Q 819 9 494 109 
L 494 744 
Q 775 591 1075 516 
Q 1375 441 1709 441 
Q 2250 441 2565 725 
Q 2881 1009 2881 1497 
Q 2881 1984 2565 2268 
Q 2250 2553 1709 2553 
Q 1456 2553 1204 2497 
Q 953 2441 691 2322 
L 691 4666 
z
" transform="scale(0.015625)"/>
        <path id="DejaVuSans-6d" d="M 3328 2828 
Q 3544 3216 3844 3400 
Q 4144 3584 4550 3584 
Q 5097 3584 5394 3201 
Q 5691 2819 5691 2113 
L 5691 0 
L 5113 0 
L 5113 2094 
Q 5113 2597 4934 2840 
Q 4756 3084 4391 3084 
Q 3944 3084 3684 2787 
Q 3425 2491 3425 1978 
L 3425 0 
L 2847 0 
L 2847 2094 
Q 2847 2600 2669 2842 
Q 2491 3084 2119 3084 
Q 1678 3084 1418 2786 
Q 1159 2488 1159 1978 
L 1159 0 
L 581 0 
L 581 3500 
L 1159 3500 
L 1159 2956 
Q 1356 3278 1631 3431 
Q 1906 3584 2284 3584 
Q 2666 3584 2933 3390 
Q 3200 3197 3328 2828 
z
" transform="scale(0.015625)"/>
        <path id="DejaVuSans-48" d="M 628 4666 
L 1259 4666 
L 1259 2753 
L 3553 2753 
L 3553 4666 
L 4184 4666 
L 4184 0 
L 3553 0 
L 3553 2222 
L 1259 2222 
L 1259 0 
L 628 0 
L 628 4666 
z
" transform="scale(0.015625)"/>
        <path id="DejaVuSans-4f" d="M 2522 4238 
Q 1834 4238 1429 3725 
Q 1025 3213 1025 2328 
Q 1025 1447 1429 934 
Q 1834 422 2522 422 
Q 3209 422 3611 934 
Q 4013 1447 4013 2328 
Q 4013 3213 3611 3725 
Q 3209 4238 2522 4238 
z
M 2522 4750 
Q 3503 4750 4090 4092 
Q 4678 3434 4678 2328 
Q 4678 1225 4090 567 
Q 3503 -91 2522 -91 
Q 1538 -91 948 565 
Q 359 1222 359 2328 
Q 359 3434 948 4092 
Q 1538 4750 2522 4750 
z
" transform="scale(0.015625)"/>
        <path id="DejaVuSans-28" d="M 1984 4856 
Q 1566 4138 1362 3434 
Q 1159 2731 1159 2009 
Q 1159 1288 1364 580 
Q 1569 -128 1984 -844 
L 1484 -844 
Q 1016 -109 783 600 
Q 550 1309 550 2009 
Q 550 2706 781 3412 
Q 1013 4119 1484 4856 
L 1984 4856 
z
" transform="scale(0.015625)"/>
        <path id="DejaVuSans-73" d="M 2834 3397 
L 2834 2853 
Q 2591 2978 2328 3040 
Q 2066 3103 1784 3103 
Q 1356 3103 1142 2972 
Q 928 2841 928 2578 
Q 928 2378 1081 2264 
Q 1234 2150 1697 2047 
L 1894 2003 
Q 2506 1872 2764 1633 
Q 3022 1394 3022 966 
Q 3022 478 2636 193 
Q 2250 -91 1575 -91 
Q 1294 -91 989 -36 
Q 684 19 347 128 
L 347 722 
Q 666 556 975 473 
Q 1284 391 1588 391 
Q 1994 391 2212 530 
Q 2431 669 2431 922 
Q 2431 1156 2273 1281 
Q 2116 1406 1581 1522 
L 1381 1569 
Q 847 1681 609 1914 
Q 372 2147 372 2553 
Q 372 3047 722 3315 
Q 1072 3584 1716 3584 
Q 2034 3584 2315 3537 
Q 2597 3491 2834 3397 
z
" transform="scale(0.015625)"/>
        <path id="DejaVuSans-70" d="M 1159 525 
L 1159 -1331 
L 581 -1331 
L 581 3500 
L 1159 3500 
L 1159 2969 
Q 1341 3281 1617 3432 
Q 1894 3584 2278 3584 
Q 2916 3584 3314 3078 
Q 3713 2572 3713 1747 
Q 3713 922 3314 415 
Q 2916 -91 2278 -91 
Q 1894 -91 1617 61 
Q 1341 213 1159 525 
z
M 3116 1747 
Q 3116 2381 2855 2742 
Q 2594 3103 2138 3103 
Q 1681 3103 1420 2742 
Q 1159 2381 1159 1747 
Q 1159 1113 1420 752 
Q 1681 391 2138 391 
Q 2594 391 2855 752 
Q 3116 1113 3116 1747 
z
" transform="scale(0.015625)"/>
        <path id="DejaVuSans-65" d="M 3597 1894 
L 3597 1613 
L 953 1613 
Q 991 1019 1311 708 
Q 1631 397 2203 397 
Q 2534 397 2845 478 
Q 3156 559 3463 722 
L 3463 178 
Q 3153 47 2828 -22 
Q 2503 -91 2169 -91 
Q 1331 -91 842 396 
Q 353 884 353 1716 
Q 353 2575 817 3079 
Q 1281 3584 2069 3584 
Q 2775 3584 3186 3129 
Q 3597 2675 3597 1894 
z
M 3022 2063 
Q 3016 2534 2758 2815 
Q 2500 3097 2075 3097 
Q 1594 3097 1305 2825 
Q 1016 2553 972 2059 
L 3022 2063 
z
" transform="scale(0.015625)"/>
        <path id="DejaVuSans-29" d="M 513 4856 
L 1013 4856 
Q 1481 4119 1714 3412 
Q 1947 2706 1947 2009 
Q 1947 1309 1714 600 
Q 1481 -109 1013 -844 
L 513 -844 
Q 928 -128 1133 580 
Q 1338 1288 1338 2009 
Q 1338 2731 1133 3434 
Q 928 4138 513 4856 
z
" transform="scale(0.015625)"/>
       </defs>
       <use xlink:href="#DejaVuSans-35"/>
       <use xlink:href="#DejaVuSans-6d" x="63.623047"/>
       <use xlink:href="#DejaVuSans-4d" x="161.035156"/>
       <use xlink:href="#DejaVuSans-20" x="247.314453"/>
       <use xlink:href="#DejaVuSans-48" x="279.101562"/>
       <use xlink:href="#DejaVuSans-32" x="354.296875"/>
       <use xlink:href="#DejaVuSans-4f" x="417.919922"/>
       <use xlink:href="#DejaVuSans-32" x="496.630859"/>
       <use xlink:href="#DejaVuSans-20" x="560.253906"/>
       <use xlink:href="#DejaVuSans-28" x="592.041016"/>
       <use xlink:href="#DejaVuSans-36" x="631.054688"/>
       <use xlink:href="#DejaVuSans-20" x="694.677734"/>
       <use xlink:href="#DejaVuSans-73" x="726.464844"/>
       <use xlink:href="#DejaVuSans-61" x="778.564453"/>
       <use xlink:href="#DejaVuSans-6d" x="839.84375"/>
       <use xlink:href="#DejaVuSans-70" x="937.255859"/>
       <use xlink:href="#DejaVuSans-6c" x="1000.732422"/>
       <use xlink:href="#DejaVuSans-65" x="1028.515625"/>
       <use xlink:href="#DejaVuSans-73" x="1090.039062"/>
       <use xlink:href="#DejaVuSans-29" x="1142.138672"/>
      </g>
     </g>
    </g>
    <g id="ytick_2">
     <g id="text_10">
      <!-- 250uM paraquat (36 samples) -->
      <g style="fill: #6b3286" transform="translate(-112.746094 54.075141)scale(0.11 -0.11)">
       <defs>
        <path id="DejaVuSans-72" d="M 2631 2963 
Q 2534 3019 2420 3045 
Q 2306 3072 2169 3072 
Q 1681 3072 1420 2755 
Q 1159 2438 1159 1844 
L 1159 0 
L 581 0 
L 581 3500 
L 1159 3500 
L 1159 2956 
Q 1341 3275 1631 3429 
Q 1922 3584 2338 3584 
Q 2397 3584 2469 3576 
Q 2541 3569 2628 3553 
L 2631 2963 
z
" transform="scale(0.015625)"/>
        <path id="DejaVuSans-71" d="M 947 1747 
Q 947 1113 1208 752 
Q 1469 391 1925 391 
Q 2381 391 2643 752 
Q 2906 1113 2906 1747 
Q 2906 2381 2643 2742 
Q 2381 3103 1925 3103 
Q 1469 3103 1208 2742 
Q 947 2381 947 1747 
z
M 2906 525 
Q 2725 213 2448 61 
Q 2172 -91 1784 -91 
Q 1150 -91 751 415 
Q 353 922 353 1747 
Q 353 2572 751 3078 
Q 1150 3584 1784 3584 
Q 2172 3584 2448 3432 
Q 2725 3281 2906 2969 
L 2906 3500 
L 3481 3500 
L 3481 -1331 
L 2906 -1331 
L 2906 525 
z
" transform="scale(0.015625)"/>
        <path id="DejaVuSans-33" d="M 2597 2516 
Q 3050 2419 3304 2112 
Q 3559 1806 3559 1356 
Q 3559 666 3084 287 
Q 2609 -91 1734 -91 
Q 1441 -91 1130 -33 
Q 819 25 488 141 
L 488 750 
Q 750 597 1062 519 
Q 1375 441 1716 441 
Q 2309 441 2620 675 
Q 2931 909 2931 1356 
Q 2931 1769 2642 2001 
Q 2353 2234 1838 2234 
L 1294 2234 
L 1294 2753 
L 1863 2753 
Q 2328 2753 2575 2939 
Q 2822 3125 2822 3475 
Q 2822 3834 2567 4026 
Q 2313 4219 1838 4219 
Q 1578 4219 1281 4162 
Q 984 4106 628 3988 
L 628 4550 
Q 988 4650 1302 4700 
Q 1616 4750 1894 4750 
Q 2613 4750 3031 4423 
Q 3450 4097 3450 3541 
Q 3450 3153 3228 2886 
Q 3006 2619 2597 2516 
z
" transform="scale(0.015625)"/>
       </defs>
       <use xlink:href="#DejaVuSans-32"/>
       <use xlink:href="#DejaVuSans-35" x="63.623047"/>
       <use xlink:href="#DejaVuSans-30" x="127.246094"/>
       <use xlink:href="#DejaVuSans-75" x="190.869141"/>
       <use xlink:href="#DejaVuSans-4d" x="254.248047"/>
       <use xlink:href="#DejaVuSans-20" x="340.527344"/>
       <use xlink:href="#DejaVuSans-70" x="372.314453"/>
       <use xlink:href="#DejaVuSans-61" x="435.791016"/>
       <use xlink:href="#DejaVuSans-72" x="497.070312"/>
       <use xlink:href="#DejaVuSans-61" x="538.183594"/>
       <use xlink:href="#DejaVuSans-71" x="599.462891"/>
       <use xlink:href="#DejaVuSans-75" x="662.939453"/>
       <use xlink:href="#DejaVuSans-61" x="726.318359"/>
       <use xlink:href="#DejaVuSans-74" x="787.597656"/>
       <use xlink:href="#DejaVuSans-20" x="826.806641"/>
       <use xlink:href="#DejaVuSans-28" x="858.59375"/>
       <use xlink:href="#DejaVuSans-33" x="897.607422"/>
       <use xlink:href="#DejaVuSans-36" x="961.230469"/>
       <use xlink:href="#DejaVuSans-20" x="1024.853516"/>
       <use xlink:href="#DejaVuSans-73" x="1056.640625"/>
       <use xlink:href="#DejaVuSans-61" x="1108.740234"/>
       <use xlink:href="#DejaVuSans-6d" x="1170.019531"/>
       <use xlink:href="#DejaVuSans-70" x="1267.431641"/>
       <use xlink:href="#DejaVuSans-6c" x="1330.908203"/>
       <use xlink:href="#DejaVuSans-65" x="1358.691406"/>
       <use xlink:href="#DejaVuSans-73" x="1420.214844"/>
       <use xlink:href="#DejaVuSans-29" x="1472.314453"/>
      </g>
     </g>
    </g>
    <g id="ytick_3">
     <g id="text_11">
      <!-- 750uM paraquat (31 samples) -->
      <g style="fill: #6b3286" transform="translate(-112.746094 75.819141)scale(0.11 -0.11)">
       <defs>
        <path id="DejaVuSans-37" d="M 525 4666 
L 3525 4666 
L 3525 4397 
L 1831 0 
L 1172 0 
L 2766 4134 
L 525 4134 
L 525 4666 
z
" transform="scale(0.015625)"/>
        <path id="DejaVuSans-31" d="M 794 531 
L 1825 531 
L 1825 4091 
L 703 3866 
L 703 4441 
L 1819 4666 
L 2450 4666 
L 2450 531 
L 3481 531 
L 3481 0 
L 794 0 
L 794 531 
z
" transform="scale(0.015625)"/>
       </defs>
       <use xlink:href="#DejaVuSans-37"/>
       <use xlink:href="#DejaVuSans-35" x="63.623047"/>
       <use xlink:href="#DejaVuSans-30" x="127.246094"/>
       <use xlink:href="#DejaVuSans-75" x="190.869141"/>
       <use xlink:href="#DejaVuSans-4d" x="254.248047"/>
       <use xlink:href="#DejaVuSans-20" x="340.527344"/>
       <use xlink:href="#DejaVuSans-70" x="372.314453"/>
       <use xlink:href="#DejaVuSans-61" x="435.791016"/>
       <use xlink:href="#DejaVuSans-72" x="497.070312"/>
       <use xlink:href="#DejaVuSans-61" x="538.183594"/>
       <use xlink:href="#DejaVuSans-71" x="599.462891"/>
       <use xlink:href="#DejaVuSans-75" x="662.939453"/>
       <use xlink:href="#DejaVuSans-61" x="726.318359"/>
       <use xlink:href="#DejaVuSans-74" x="787.597656"/>
       <use xlink:href="#DejaVuSans-20" x="826.806641"/>
       <use xlink:href="#DejaVuSans-28" x="858.59375"/>
       <use xlink:href="#DejaVuSans-33" x="897.607422"/>
       <use xlink:href="#DejaVuSans-31" x="961.230469"/>
       <use xlink:href="#DejaVuSans-20" x="1024.853516"/>
       <use xlink:href="#DejaVuSans-73" x="1056.640625"/>
       <use xlink:href="#DejaVuSans-61" x="1108.740234"/>
       <use xlink:href="#DejaVuSans-6d" x="1170.019531"/>
       <use xlink:href="#DejaVuSans-70" x="1267.431641"/>
       <use xlink:href="#DejaVuSans-6c" x="1330.908203"/>
       <use xlink:href="#DejaVuSans-65" x="1358.691406"/>
       <use xlink:href="#DejaVuSans-73" x="1420.214844"/>
       <use xlink:href="#DejaVuSans-29" x="1472.314453"/>
      </g>
     </g>
    </g>
    <g id="ytick_4">
     <g id="text_12">
      <!-- none (control, 40 samples) -->
      <g style="fill: #6b3286" transform="translate(-94.35375 97.563141)scale(0.11 -0.11)">
       <defs>
        <path id="DejaVuSans-2c" d="M 750 794 
L 1409 794 
L 1409 256 
L 897 -744 
L 494 -744 
L 750 256 
L 750 794 
z
" transform="scale(0.015625)"/>
       </defs>
       <use xlink:href="#DejaVuSans-6e"/>
       <use xlink:href="#DejaVuSans-6f" x="63.378906"/>
       <use xlink:href="#DejaVuSans-6e" x="124.560547"/>
       <use xlink:href="#DejaVuSans-65" x="187.939453"/>
       <use xlink:href="#DejaVuSans-20" x="249.462891"/>
       <use xlink:href="#DejaVuSans-28" x="281.25"/>
       <use xlink:href="#DejaVuSans-63" x="320.263672"/>
       <use xlink:href="#DejaVuSans-6f" x="375.244141"/>
       <use xlink:href="#DejaVuSans-6e" x="436.425781"/>
       <use xlink:href="#DejaVuSans-74" x="499.804688"/>
       <use xlink:href="#DejaVuSans-72" x="539.013672"/>
       <use xlink:href="#DejaVuSans-6f" x="577.876953"/>
       <use xlink:href="#DejaVuSans-6c" x="639.058594"/>
       <use xlink:href="#DejaVuSans-2c" x="666.841797"/>
       <use xlink:href="#DejaVuSans-20" x="698.628906"/>
       <use xlink:href="#DejaVuSans-34" x="730.416016"/>
       <use xlink:href="#DejaVuSans-30" x="794.039062"/>
       <use xlink:href="#DejaVuSans-20" x="857.662109"/>
       <use xlink:href="#DejaVuSans-73" x="889.449219"/>
       <use xlink:href="#DejaVuSans-61" x="941.548828"/>
       <use xlink:href="#DejaVuSans-6d" x="1002.828125"/>
       <use xlink:href="#DejaVuSans-70" x="1100.240234"/>
       <use xlink:href="#DejaVuSans-6c" x="1163.716797"/>
       <use xlink:href="#DejaVuSans-65" x="1191.5"/>
       <use xlink:href="#DejaVuSans-73" x="1253.023438"/>
       <use xlink:href="#DejaVuSans-29" x="1305.123047"/>
      </g>
     </g>
    </g>
    <g id="ytick_5">
     <g id="text_13">
      <!-- all others iModulon samples (934) -->
      <g style="fill: #262626" transform="translate(-133.665 119.307141)scale(0.11 -0.11)">
       <defs>
        <path id="DejaVuSans-68" d="M 3513 2113 
L 3513 0 
L 2938 0 
L 2938 2094 
Q 2938 2591 2744 2837 
Q 2550 3084 2163 3084 
Q 1697 3084 1428 2787 
Q 1159 2491 1159 1978 
L 1159 0 
L 581 0 
L 581 4863 
L 1159 4863 
L 1159 2956 
Q 1366 3272 1645 3428 
Q 1925 3584 2291 3584 
Q 2894 3584 3203 3211 
Q 3513 2838 3513 2113 
z
" transform="scale(0.015625)"/>
        <path id="DejaVuSans-39" d="M 703 97 
L 703 672 
Q 941 559 1184 500 
Q 1428 441 1663 441 
Q 2288 441 2617 861 
Q 2947 1281 2994 2138 
Q 2813 1869 2534 1725 
Q 2256 1581 1919 1581 
Q 1219 1581 811 2004 
Q 403 2428 403 3163 
Q 403 3881 828 4315 
Q 1253 4750 1959 4750 
Q 2769 4750 3195 4129 
Q 3622 3509 3622 2328 
Q 3622 1225 3098 567 
Q 2575 -91 1691 -91 
Q 1453 -91 1209 -44 
Q 966 3 703 97 
z
M 1959 2075 
Q 2384 2075 2632 2365 
Q 2881 2656 2881 3163 
Q 2881 3666 2632 3958 
Q 2384 4250 1959 4250 
Q 1534 4250 1286 3958 
Q 1038 3666 1038 3163 
Q 1038 2656 1286 2365 
Q 1534 2075 1959 2075 
z
" transform="scale(0.015625)"/>
       </defs>
       <use xlink:href="#DejaVuSans-61"/>
       <use xlink:href="#DejaVuSans-6c" x="61.279297"/>
       <use xlink:href="#DejaVuSans-6c" x="89.0625"/>
       <use xlink:href="#DejaVuSans-20" x="116.845703"/>
       <use xlink:href="#DejaVuSans-6f" x="148.632812"/>
       <use xlink:href="#DejaVuSans-74" x="209.814453"/>
       <use xlink:href="#DejaVuSans-68" x="249.023438"/>
       <use xlink:href="#DejaVuSans-65" x="312.402344"/>
       <use xlink:href="#DejaVuSans-72" x="373.925781"/>
       <use xlink:href="#DejaVuSans-73" x="415.039062"/>
       <use xlink:href="#DejaVuSans-20" x="467.138672"/>
       <use xlink:href="#DejaVuSans-69" x="498.925781"/>
       <use xlink:href="#DejaVuSans-4d" x="526.708984"/>
       <use xlink:href="#DejaVuSans-6f" x="612.988281"/>
       <use xlink:href="#DejaVuSans-64" x="674.169922"/>
       <use xlink:href="#DejaVuSans-75" x="737.646484"/>
       <use xlink:href="#DejaVuSans-6c" x="801.025391"/>
       <use xlink:href="#DejaVuSans-6f" x="828.808594"/>
       <use xlink:href="#DejaVuSans-6e" x="889.990234"/>
       <use xlink:href="#DejaVuSans-20" x="953.369141"/>
       <use xlink:href="#DejaVuSans-73" x="985.15625"/>
       <use xlink:href="#DejaVuSans-61" x="1037.255859"/>
       <use xlink:href="#DejaVuSans-6d" x="1098.535156"/>
       <use xlink:href="#DejaVuSans-70" x="1195.947266"/>
       <use xlink:href="#DejaVuSans-6c" x="1259.423828"/>
       <use xlink:href="#DejaVuSans-65" x="1287.207031"/>
       <use xlink:href="#DejaVuSans-73" x="1348.730469"/>
       <use xlink:href="#DejaVuSans-20" x="1400.830078"/>
       <use xlink:href="#DejaVuSans-28" x="1432.617188"/>
       <use xlink:href="#DejaVuSans-39" x="1471.630859"/>
       <use xlink:href="#DejaVuSans-33" x="1535.253906"/>
       <use xlink:href="#DejaVuSans-34" x="1598.876953"/>
       <use xlink:href="#DejaVuSans-29" x="1662.5"/>
      </g>
     </g>
    </g>
    <g id="text_14">
     <!-- iModulon experiment -->
     <g style="fill: #262626" transform="translate(-140.160625 135.2775)rotate(-90)scale(0.12 -0.12)">
      <defs>
       <path id="DejaVuSans-78" d="M 3513 3500 
L 2247 1797 
L 3578 0 
L 2900 0 
L 1881 1375 
L 863 0 
L 184 0 
L 1544 1831 
L 300 3500 
L 978 3500 
L 1906 2253 
L 2834 3500 
L 3513 3500 
z
" transform="scale(0.015625)"/>
      </defs>
      <use xlink:href="#DejaVuSans-69"/>
      <use xlink:href="#DejaVuSans-4d" x="27.783203"/>
      <use xlink:href="#DejaVuSans-6f" x="114.0625"/>
      <use xlink:href="#DejaVuSans-64" x="175.244141"/>
      <use xlink:href="#DejaVuSans-75" x="238.720703"/>
      <use xlink:href="#DejaVuSans-6c" x="302.099609"/>
      <use xlink:href="#DejaVuSans-6f" x="329.882812"/>
      <use xlink:href="#DejaVuSans-6e" x="391.064453"/>
      <use xlink:href="#DejaVuSans-20" x="454.443359"/>
      <use xlink:href="#DejaVuSans-65" x="486.230469"/>
      <use xlink:href="#DejaVuSans-78" x="546.003906"/>
      <use xlink:href="#DejaVuSans-70" x="605.183594"/>
      <use xlink:href="#DejaVuSans-65" x="668.660156"/>
      <use xlink:href="#DejaVuSans-72" x="730.183594"/>
      <use xlink:href="#DejaVuSans-69" x="771.296875"/>
      <use xlink:href="#DejaVuSans-6d" x="799.080078"/>
      <use xlink:href="#DejaVuSans-65" x="896.492188"/>
      <use xlink:href="#DejaVuSans-6e" x="958.015625"/>
      <use xlink:href="#DejaVuSans-74" x="1021.394531"/>
     </g>
    </g>
   </g>
   <g id="patch_3">
    <path d="M 322.986517 19.4544 
L 322.986517 36.8496 
L 334.419127 36.8496 
L 334.419127 19.4544 
L 322.986517 19.4544 
L 322.986517 19.4544 
z
" clip-path="url(#p80a029f746)" style="fill: none; stroke: #7f7f7f; stroke-width: 1.5; stroke-linejoin: miter"/>
   </g>
   <g id="patch_4">
    <path d="M 216.726422 41.1984 
L 216.726422 58.5936 
L 218.849369 58.5936 
L 218.849369 41.1984 
L 216.726422 41.1984 
L 216.726422 41.1984 
z
" clip-path="url(#p80a029f746)" style="fill: none; stroke: #7f7f7f; stroke-width: 1.5; stroke-linejoin: miter"/>
   </g>
   <g id="patch_5">
    <path d="M 228.715244 84.6864 
L 228.715244 102.0816 
L 358.322411 102.0816 
L 358.322411 84.6864 
L 228.715244 84.6864 
L 228.715244 84.6864 
z
" clip-path="url(#p80a029f746)" style="fill: none; stroke: #7f7f7f; stroke-width: 1.5; stroke-linejoin: miter"/>
   </g>
   <g id="patch_6">
    <path d="M 193.31269 106.4304 
L 193.31269 123.8256 
L 270.583808 123.8256 
L 270.583808 106.4304 
L 193.31269 106.4304 
L 193.31269 106.4304 
z
" clip-path="url(#p80a029f746)" style="fill: none; stroke: #7f7f7f; stroke-width: 1.5; stroke-linejoin: miter"/>
   </g>
   <g id="line2d_8">
    <path d="M 322.986517 28.152 
L 312.198936 28.152 
" clip-path="url(#p80a029f746)" style="fill: none; stroke: #7f7f7f; stroke-width: 1.5; stroke-linecap: round"/>
   </g>
   <g id="line2d_9">
    <path d="M 334.419127 28.152 
L 335.064157 28.152 
" clip-path="url(#p80a029f746)" style="fill: none; stroke: #7f7f7f; stroke-width: 1.5; stroke-linecap: round"/>
   </g>
   <g id="line2d_10">
    <path d="M 312.198936 23.8032 
L 312.198936 32.5008 
" clip-path="url(#p80a029f746)" style="fill: none; stroke: #7f7f7f; stroke-width: 1.5; stroke-linecap: round"/>
   </g>
   <g id="line2d_11">
    <path d="M 335.064157 23.8032 
L 335.064157 32.5008 
" clip-path="url(#p80a029f746)" style="fill: none; stroke: #7f7f7f; stroke-width: 1.5; stroke-linecap: round"/>
   </g>
   <g id="line2d_12"/>
   <g id="line2d_13">
    <path d="M 216.726422 49.896 
L 215.664948 49.896 
" clip-path="url(#p80a029f746)" style="fill: none; stroke: #7f7f7f; stroke-width: 1.5; stroke-linecap: round"/>
   </g>
   <g id="line2d_14">
    <path d="M 218.849369 49.896 
L 219.910842 49.896 
" clip-path="url(#p80a029f746)" style="fill: none; stroke: #7f7f7f; stroke-width: 1.5; stroke-linecap: round"/>
   </g>
   <g id="line2d_15">
    <path d="M 215.664948 45.5472 
L 215.664948 54.2448 
" clip-path="url(#p80a029f746)" style="fill: none; stroke: #7f7f7f; stroke-width: 1.5; stroke-linecap: round"/>
   </g>
   <g id="line2d_16">
    <path d="M 219.910842 45.5472 
L 219.910842 54.2448 
" clip-path="url(#p80a029f746)" style="fill: none; stroke: #7f7f7f; stroke-width: 1.5; stroke-linecap: round"/>
   </g>
   <g id="line2d_17"/>
   <g id="line2d_18">
    <path d="M 228.715244 93.384 
L 224.181211 93.384 
" clip-path="url(#p80a029f746)" style="fill: none; stroke: #7f7f7f; stroke-width: 1.5; stroke-linecap: round"/>
   </g>
   <g id="line2d_19">
    <path d="M 358.322411 93.384 
L 367.118955 93.384 
" clip-path="url(#p80a029f746)" style="fill: none; stroke: #7f7f7f; stroke-width: 1.5; stroke-linecap: round"/>
   </g>
   <g id="line2d_20">
    <path d="M 224.181211 89.0352 
L 224.181211 97.7328 
" clip-path="url(#p80a029f746)" style="fill: none; stroke: #7f7f7f; stroke-width: 1.5; stroke-linecap: round"/>
   </g>
   <g id="line2d_21">
    <path d="M 367.118955 89.0352 
L 367.118955 97.7328 
" clip-path="url(#p80a029f746)" style="fill: none; stroke: #7f7f7f; stroke-width: 1.5; stroke-linecap: round"/>
   </g>
   <g id="line2d_22"/>
   <g id="line2d_23">
    <path d="M 193.31269 115.128 
L 80.754545 115.128 
" clip-path="url(#p80a029f746)" style="fill: none; stroke: #7f7f7f; stroke-width: 1.5; stroke-linecap: round"/>
   </g>
   <g id="line2d_24">
    <path d="M 270.583808 115.128 
L 384.246215 115.128 
" clip-path="url(#p80a029f746)" style="fill: none; stroke: #7f7f7f; stroke-width: 1.5; stroke-linecap: round"/>
   </g>
   <g id="line2d_25">
    <path d="M 80.754545 110.7792 
L 80.754545 119.4768 
" clip-path="url(#p80a029f746)" style="fill: none; stroke: #7f7f7f; stroke-width: 1.5; stroke-linecap: round"/>
   </g>
   <g id="line2d_26">
    <path d="M 384.246215 110.7792 
L 384.246215 119.4768 
" clip-path="url(#p80a029f746)" style="fill: none; stroke: #7f7f7f; stroke-width: 1.5; stroke-linecap: round"/>
   </g>
   <g id="line2d_27">
    <defs>
     <path id="m7dcf0c1578" d="M 0 1.25 
C 0.331504 1.25 0.649475 1.118292 0.883883 0.883883 
C 1.118292 0.649475 1.25 0.331504 1.25 0 
C 1.25 -0.331504 1.118292 -0.649475 0.883883 -0.883883 
C 0.649475 -1.118292 0.331504 -1.25 0 -1.25 
C -0.331504 -1.25 -0.649475 -1.118292 -0.883883 -0.883883 
C -1.118292 -0.649475 -1.25 -0.331504 -1.25 0 
C -1.25 0.331504 -1.118292 0.649475 -0.883883 0.883883 
C -0.649475 1.118292 -0.331504 1.25 0 1.25 
z
" style="stroke: #000000; stroke-opacity: 0"/>
    </defs>
    <g clip-path="url(#p80a029f746)">
     <use xlink:href="#m7dcf0c1578" x="418.949689" y="115.128" style="fill: #7f7f7f; stroke: #000000; stroke-opacity: 0"/>
     <use xlink:href="#m7dcf0c1578" x="400.909172" y="115.128" style="fill: #7f7f7f; stroke: #000000; stroke-opacity: 0"/>
     <use xlink:href="#m7dcf0c1578" x="394.050297" y="115.128" style="fill: #7f7f7f; stroke: #000000; stroke-opacity: 0"/>
     <use xlink:href="#m7dcf0c1578" x="404.711476" y="115.128" style="fill: #7f7f7f; stroke: #000000; stroke-opacity: 0"/>
     <use xlink:href="#m7dcf0c1578" x="422.484649" y="115.128" style="fill: #7f7f7f; stroke: #000000; stroke-opacity: 0"/>
     <use xlink:href="#m7dcf0c1578" x="430.453061" y="115.128" style="fill: #7f7f7f; stroke: #000000; stroke-opacity: 0"/>
     <use xlink:href="#m7dcf0c1578" x="412.040449" y="115.128" style="fill: #7f7f7f; stroke: #000000; stroke-opacity: 0"/>
     <use xlink:href="#m7dcf0c1578" x="408.774669" y="115.128" style="fill: #7f7f7f; stroke: #000000; stroke-opacity: 0"/>
     <use xlink:href="#m7dcf0c1578" x="424.470127" y="115.128" style="fill: #7f7f7f; stroke: #000000; stroke-opacity: 0"/>
     <use xlink:href="#m7dcf0c1578" x="423.481635" y="115.128" style="fill: #7f7f7f; stroke: #000000; stroke-opacity: 0"/>
     <use xlink:href="#m7dcf0c1578" x="412.379645" y="115.128" style="fill: #7f7f7f; stroke: #000000; stroke-opacity: 0"/>
     <use xlink:href="#m7dcf0c1578" x="406.062454" y="115.128" style="fill: #7f7f7f; stroke: #000000; stroke-opacity: 0"/>
     <use xlink:href="#m7dcf0c1578" x="434.41756" y="115.128" style="fill: #7f7f7f; stroke: #000000; stroke-opacity: 0"/>
     <use xlink:href="#m7dcf0c1578" x="428.496324" y="115.128" style="fill: #7f7f7f; stroke: #000000; stroke-opacity: 0"/>
     <use xlink:href="#m7dcf0c1578" x="405.601789" y="115.128" style="fill: #7f7f7f; stroke: #000000; stroke-opacity: 0"/>
     <use xlink:href="#m7dcf0c1578" x="407.096233" y="115.128" style="fill: #7f7f7f; stroke: #000000; stroke-opacity: 0"/>
     <use xlink:href="#m7dcf0c1578" x="393.435279" y="115.128" style="fill: #7f7f7f; stroke: #000000; stroke-opacity: 0"/>
     <use xlink:href="#m7dcf0c1578" x="394.878989" y="115.128" style="fill: #7f7f7f; stroke: #000000; stroke-opacity: 0"/>
     <use xlink:href="#m7dcf0c1578" x="404.143774" y="115.128" style="fill: #7f7f7f; stroke: #000000; stroke-opacity: 0"/>
     <use xlink:href="#m7dcf0c1578" x="403.255197" y="115.128" style="fill: #7f7f7f; stroke: #000000; stroke-opacity: 0"/>
     <use xlink:href="#m7dcf0c1578" x="401.803622" y="115.128" style="fill: #7f7f7f; stroke: #000000; stroke-opacity: 0"/>
     <use xlink:href="#m7dcf0c1578" x="403.343374" y="115.128" style="fill: #7f7f7f; stroke: #000000; stroke-opacity: 0"/>
     <use xlink:href="#m7dcf0c1578" x="389.776828" y="115.128" style="fill: #7f7f7f; stroke: #000000; stroke-opacity: 0"/>
     <use xlink:href="#m7dcf0c1578" x="386.673276" y="115.128" style="fill: #7f7f7f; stroke: #000000; stroke-opacity: 0"/>
     <use xlink:href="#m7dcf0c1578" x="404.354982" y="115.128" style="fill: #7f7f7f; stroke: #000000; stroke-opacity: 0"/>
     <use xlink:href="#m7dcf0c1578" x="387.425424" y="115.128" style="fill: #7f7f7f; stroke: #000000; stroke-opacity: 0"/>
     <use xlink:href="#m7dcf0c1578" x="389.997562" y="115.128" style="fill: #7f7f7f; stroke: #000000; stroke-opacity: 0"/>
     <use xlink:href="#m7dcf0c1578" x="402.733979" y="115.128" style="fill: #7f7f7f; stroke: #000000; stroke-opacity: 0"/>
     <use xlink:href="#m7dcf0c1578" x="395.72191" y="115.128" style="fill: #7f7f7f; stroke: #000000; stroke-opacity: 0"/>
     <use xlink:href="#m7dcf0c1578" x="425.711771" y="115.128" style="fill: #7f7f7f; stroke: #000000; stroke-opacity: 0"/>
     <use xlink:href="#m7dcf0c1578" x="421.975675" y="115.128" style="fill: #7f7f7f; stroke: #000000; stroke-opacity: 0"/>
     <use xlink:href="#m7dcf0c1578" x="386.985304" y="115.128" style="fill: #7f7f7f; stroke: #000000; stroke-opacity: 0"/>
     <use xlink:href="#m7dcf0c1578" x="396.742041" y="115.128" style="fill: #7f7f7f; stroke: #000000; stroke-opacity: 0"/>
     <use xlink:href="#m7dcf0c1578" x="389.553664" y="115.128" style="fill: #7f7f7f; stroke: #000000; stroke-opacity: 0"/>
     <use xlink:href="#m7dcf0c1578" x="396.409581" y="115.128" style="fill: #7f7f7f; stroke: #000000; stroke-opacity: 0"/>
     <use xlink:href="#m7dcf0c1578" x="410.686917" y="115.128" style="fill: #7f7f7f; stroke: #000000; stroke-opacity: 0"/>
     <use xlink:href="#m7dcf0c1578" x="409.022036" y="115.128" style="fill: #7f7f7f; stroke: #000000; stroke-opacity: 0"/>
     <use xlink:href="#m7dcf0c1578" x="416.784344" y="115.128" style="fill: #7f7f7f; stroke: #000000; stroke-opacity: 0"/>
     <use xlink:href="#m7dcf0c1578" x="426.969784" y="115.128" style="fill: #7f7f7f; stroke: #000000; stroke-opacity: 0"/>
     <use xlink:href="#m7dcf0c1578" x="398.270439" y="115.128" style="fill: #7f7f7f; stroke: #000000; stroke-opacity: 0"/>
     <use xlink:href="#m7dcf0c1578" x="390.409537" y="115.128" style="fill: #7f7f7f; stroke: #000000; stroke-opacity: 0"/>
     <use xlink:href="#m7dcf0c1578" x="397.711934" y="115.128" style="fill: #7f7f7f; stroke: #000000; stroke-opacity: 0"/>
     <use xlink:href="#m7dcf0c1578" x="399.699867" y="115.128" style="fill: #7f7f7f; stroke: #000000; stroke-opacity: 0"/>
     <use xlink:href="#m7dcf0c1578" x="387.757027" y="115.128" style="fill: #7f7f7f; stroke: #000000; stroke-opacity: 0"/>
     <use xlink:href="#m7dcf0c1578" x="417.806525" y="115.128" style="fill: #7f7f7f; stroke: #000000; stroke-opacity: 0"/>
     <use xlink:href="#m7dcf0c1578" x="432.110627" y="115.128" style="fill: #7f7f7f; stroke: #000000; stroke-opacity: 0"/>
     <use xlink:href="#m7dcf0c1578" x="424.812701" y="115.128" style="fill: #7f7f7f; stroke: #000000; stroke-opacity: 0"/>
     <use xlink:href="#m7dcf0c1578" x="421.635195" y="115.128" style="fill: #7f7f7f; stroke: #000000; stroke-opacity: 0"/>
     <use xlink:href="#m7dcf0c1578" x="435.845455" y="115.128" style="fill: #7f7f7f; stroke: #000000; stroke-opacity: 0"/>
     <use xlink:href="#m7dcf0c1578" x="429.9657" y="115.128" style="fill: #7f7f7f; stroke: #000000; stroke-opacity: 0"/>
     <use xlink:href="#m7dcf0c1578" x="426.034924" y="115.128" style="fill: #7f7f7f; stroke: #000000; stroke-opacity: 0"/>
     <use xlink:href="#m7dcf0c1578" x="429.257042" y="115.128" style="fill: #7f7f7f; stroke: #000000; stroke-opacity: 0"/>
    </g>
   </g>
   <g id="PathCollection_1"/>
   <g id="PathCollection_2"/>
   <g id="PathCollection_3"/>
   <g id="PathCollection_4"/>
   <g id="PathCollection_5"/>
   <g id="PathCollection_6"/>
   <g id="PathCollection_7"/>
   <g id="PathCollection_8"/>
   <g id="line2d_28">
    <path d="M 333.774097 19.4544 
L 333.774097 36.8496 
" clip-path="url(#p80a029f746)" style="fill: none; stroke: #7f7f7f; stroke-width: 1.5; stroke-linecap: round"/>
   </g>
   <g id="line2d_29">
    <path d="M 217.787895 41.1984 
L 217.787895 58.5936 
" clip-path="url(#p80a029f746)" style="fill: none; stroke: #7f7f7f; stroke-width: 1.5; stroke-linecap: round"/>
   </g>
   <g id="line2d_30">
    <path d="M 353.396529 84.6864 
L 353.396529 102.0816 
" clip-path="url(#p80a029f746)" style="fill: none; stroke: #7f7f7f; stroke-width: 1.5; stroke-linecap: round"/>
   </g>
   <g id="line2d_31">
    <path d="M 221.673745 106.4304 
L 221.673745 123.8256 
" clip-path="url(#p80a029f746)" style="fill: none; stroke: #7f7f7f; stroke-width: 1.5; stroke-linecap: round"/>
   </g>
   <g id="PathCollection_9">
    <defs>
     <path id="C0_0_eeb954ac7f" d="M 0 2.375 
C 0.629857 2.375 1.234002 2.124755 1.679379 1.679379 
C 2.124755 1.234002 2.375 0.629857 2.375 -0 
C 2.375 -0.629857 2.124755 -1.234002 1.679379 -1.679379 
C 1.234002 -2.124755 0.629857 -2.375 0 -2.375 
C -0.629857 -2.375 -1.234002 -2.124755 -1.679379 -1.679379 
C -2.124755 -1.234002 -2.375 -0.629857 -2.375 0 
C -2.375 0.629857 -2.124755 1.234002 -1.679379 1.679379 
C -1.234002 2.124755 -0.629857 2.375 0 2.375 
z
"/>
    </defs>
    <g clip-path="url(#p80a029f746)">
     <use xlink:href="#C0_0_eeb954ac7f" x="161.516164" y="28.152" style="fill: #a6cee3"/>
    </g>
    <g clip-path="url(#p80a029f746)">
     <use xlink:href="#C0_0_eeb954ac7f" x="169.145065" y="28.152" style="fill: #a6cee3"/>
    </g>
    <g clip-path="url(#p80a029f746)">
     <use xlink:href="#C0_0_eeb954ac7f" x="198.925039" y="28.152" style="fill: #a6cee3"/>
    </g>
   </g>
   <g id="PathCollection_10">
    <defs>
     <path id="C1_0_4ea067a74c" d="M 0 2.375 
C 0.629857 2.375 1.234002 2.124755 1.679379 1.679379 
C 2.124755 1.234002 2.375 0.629857 2.375 -0 
C 2.375 -0.629857 2.124755 -1.234002 1.679379 -1.679379 
C 1.234002 -2.124755 0.629857 -2.375 0 -2.375 
C -0.629857 -2.375 -1.234002 -2.124755 -1.679379 -1.679379 
C -2.124755 -1.234002 -2.375 -0.629857 -2.375 0 
C -2.375 0.629857 -2.124755 1.234002 -1.679379 1.679379 
C -1.234002 2.124755 -0.629857 2.375 0 2.375 
z
"/>
    </defs>
    <g clip-path="url(#p80a029f746)">
     <use xlink:href="#C1_0_4ea067a74c" x="169.840074" y="49.896" style="fill: #956cb4"/>
    </g>
    <g clip-path="url(#p80a029f746)">
     <use xlink:href="#C1_0_4ea067a74c" x="174.429218" y="48.609048" style="fill: #b2df8a"/>
    </g>
    <g clip-path="url(#p80a029f746)">
     <use xlink:href="#C1_0_4ea067a74c" x="177.844908" y="52.074932" style="fill: #956cb4"/>
    </g>
    <g clip-path="url(#p80a029f746)">
     <use xlink:href="#C1_0_4ea067a74c" x="181.819988" y="49.344682" style="fill: #33a02c"/>
    </g>
    <g clip-path="url(#p80a029f746)">
     <use xlink:href="#C1_0_4ea067a74c" x="190.699263" y="49.896" style="fill: #33a02c"/>
    </g>
    <g clip-path="url(#p80a029f746)">
     <use xlink:href="#C1_0_4ea067a74c" x="192.724322" y="45.384464" style="fill: #b2df8a"/>
    </g>
    <g clip-path="url(#p80a029f746)">
     <use xlink:href="#C1_0_4ea067a74c" x="205.619483" y="49.896" style="fill: #b2df8a"/>
    </g>
    <g clip-path="url(#p80a029f746)">
     <use xlink:href="#C1_0_4ea067a74c" x="206.789235" y="45.062101" style="fill: #b2df8a"/>
    </g>
    <g clip-path="url(#p80a029f746)">
     <use xlink:href="#C1_0_4ea067a74c" x="216.582342" y="49.896" style="fill: #b2df8a"/>
    </g>
    <g clip-path="url(#p80a029f746)">
     <use xlink:href="#C1_0_4ea067a74c" x="220.041825" y="46.478338" style="fill: #b2df8a"/>
    </g>
    <g clip-path="url(#p80a029f746)">
     <use xlink:href="#C1_0_4ea067a74c" x="235.300034" y="49.896" style="fill: #956cb4"/>
    </g>
    <g clip-path="url(#p80a029f746)">
     <use xlink:href="#C1_0_4ea067a74c" x="238.023645" y="45.809834" style="fill: #956cb4"/>
    </g>
    <g clip-path="url(#p80a029f746)">
     <use xlink:href="#C1_0_4ea067a74c" x="245.193796" y="49.896" style="fill: #956cb4"/>
    </g>
    <g clip-path="url(#p80a029f746)">
     <use xlink:href="#C1_0_4ea067a74c" x="247.84582" y="45.758245" style="fill: #b2df8a"/>
    </g>
    <g clip-path="url(#p80a029f746)">
     <use xlink:href="#C1_0_4ea067a74c" x="249.138278" y="52.674746" style="fill: #b2df8a"/>
    </g>
    <g clip-path="url(#p80a029f746)">
     <use xlink:href="#C1_0_4ea067a74c" x="250.480305" y="57.459045" style="fill: #956cb4"/>
    </g>
    <g clip-path="url(#p80a029f746)">
     <use xlink:href="#C1_0_4ea067a74c" x="252.053187" y="48.736783" style="fill: #b2df8a"/>
    </g>
    <g clip-path="url(#p80a029f746)">
     <use xlink:href="#C1_0_4ea067a74c" x="257.869244" y="49.896" style="fill: #b2df8a"/>
    </g>
    <g clip-path="url(#p80a029f746)">
     <use xlink:href="#C1_0_4ea067a74c" x="311.854718" y="49.896" style="fill: #1f78b4"/>
    </g>
    <g clip-path="url(#p80a029f746)">
     <use xlink:href="#C1_0_4ea067a74c" x="315.015324" y="46.172855" style="fill: #1f78b4"/>
    </g>
    <g clip-path="url(#p80a029f746)">
     <use xlink:href="#C1_0_4ea067a74c" x="323.82316" y="49.896" style="fill: #1f78b4"/>
    </g>
    <g clip-path="url(#p80a029f746)">
     <use xlink:href="#C1_0_4ea067a74c" x="328.043077" y="47.606421" style="fill: #1f78b4"/>
    </g>
    <g clip-path="url(#p80a029f746)">
     <use xlink:href="#C1_0_4ea067a74c" x="331.39683" y="51.138363" style="fill: #1f78b4"/>
    </g>
    <g clip-path="url(#p80a029f746)">
     <use xlink:href="#C1_0_4ea067a74c" x="336.73672" y="49.896" style="fill: #956cb4"/>
    </g>
    <g clip-path="url(#p80a029f746)">
     <use xlink:href="#C1_0_4ea067a74c" x="340.159207" y="46.437515" style="fill: #956cb4"/>
    </g>
    <g clip-path="url(#p80a029f746)">
     <use xlink:href="#C1_0_4ea067a74c" x="349.29008" y="49.896" style="fill: #956cb4"/>
    </g>
    <g clip-path="url(#p80a029f746)">
     <use xlink:href="#C1_0_4ea067a74c" x="350.916581" y="45.210012" style="fill: #1f78b4"/>
    </g>
    <g clip-path="url(#p80a029f746)">
     <use xlink:href="#C1_0_4ea067a74c" x="359.333171" y="49.896" style="fill: #956cb4"/>
    </g>
    <g clip-path="url(#p80a029f746)">
     <use xlink:href="#C1_0_4ea067a74c" x="364.19373" y="49.896" style="fill: #956cb4"/>
    </g>
    <g clip-path="url(#p80a029f746)">
     <use xlink:href="#C1_0_4ea067a74c" x="367.151278" y="45.993245" style="fill: #956cb4"/>
    </g>
    <g clip-path="url(#p80a029f746)">
     <use xlink:href="#C1_0_4ea067a74c" x="372.052828" y="49.896" style="fill: #956cb4"/>
    </g>
    <g clip-path="url(#p80a029f746)">
     <use xlink:href="#C1_0_4ea067a74c" x="374.809737" y="45.834528" style="fill: #956cb4"/>
    </g>
    <g clip-path="url(#p80a029f746)">
     <use xlink:href="#C1_0_4ea067a74c" x="375.235449" y="53.598411" style="fill: #1f78b4"/>
    </g>
    <g clip-path="url(#p80a029f746)">
     <use xlink:href="#C1_0_4ea067a74c" x="389.750196" y="49.896" style="fill: #1f78b4"/>
    </g>
   </g>
   <g id="PathCollection_11">
    <defs>
     <path id="C2_0_7ff01341c7" d="M 0 2.375 
C 0.629857 2.375 1.234002 2.124755 1.679379 1.679379 
C 2.124755 1.234002 2.375 0.629857 2.375 -0 
C 2.375 -0.629857 2.124755 -1.234002 1.679379 -1.679379 
C 1.234002 -2.124755 0.629857 -2.375 0 -2.375 
C -0.629857 -2.375 -1.234002 -2.124755 -1.679379 -1.679379 
C -2.124755 -1.234002 -2.375 -0.629857 -2.375 0 
C -2.375 0.629857 -2.124755 1.234002 -1.679379 1.679379 
C -1.234002 2.124755 -0.629857 2.375 0 2.375 
z
"/>
    </defs>
    <g clip-path="url(#p80a029f746)">
     <use xlink:href="#C2_0_7ff01341c7" x="180.925064" y="71.64" style="fill: #b2df8a"/>
    </g>
    <g clip-path="url(#p80a029f746)">
     <use xlink:href="#C2_0_7ff01341c7" x="185.624885" y="70.916959" style="fill: #956cb4"/>
    </g>
    <g clip-path="url(#p80a029f746)">
     <use xlink:href="#C2_0_7ff01341c7" x="191.005866" y="71.64" style="fill: #956cb4"/>
    </g>
    <g clip-path="url(#p80a029f746)">
     <use xlink:href="#C2_0_7ff01341c7" x="191.719633" y="66.709131" style="fill: #956cb4"/>
    </g>
    <g clip-path="url(#p80a029f746)">
     <use xlink:href="#C2_0_7ff01341c7" x="194.744208" y="74.71693" style="fill: #956cb4"/>
    </g>
    <g clip-path="url(#p80a029f746)">
     <use xlink:href="#C2_0_7ff01341c7" x="195.149269" y="79.686263" style="fill: #b2df8a"/>
    </g>
    <g clip-path="url(#p80a029f746)">
     <use xlink:href="#C2_0_7ff01341c7" x="195.385527" y="69.775098" style="fill: #b2df8a"/>
    </g>
    <g clip-path="url(#p80a029f746)">
     <use xlink:href="#C2_0_7ff01341c7" x="200.028382" y="71.64" style="fill: #b2df8a"/>
    </g>
    <g clip-path="url(#p80a029f746)">
     <use xlink:href="#C2_0_7ff01341c7" x="205.141827" y="71.64" style="fill: #b2df8a"/>
    </g>
    <g clip-path="url(#p80a029f746)">
     <use xlink:href="#C2_0_7ff01341c7" x="216.655996" y="71.64" style="fill: #956cb4"/>
    </g>
    <g clip-path="url(#p80a029f746)">
     <use xlink:href="#C2_0_7ff01341c7" x="224.01971" y="71.64" style="fill: #b2df8a"/>
    </g>
    <g clip-path="url(#p80a029f746)">
     <use xlink:href="#C2_0_7ff01341c7" x="229.37114" y="71.64" style="fill: #b2df8a"/>
    </g>
    <g clip-path="url(#p80a029f746)">
     <use xlink:href="#C2_0_7ff01341c7" x="239.99624" y="71.64" style="fill: #956cb4"/>
    </g>
    <g clip-path="url(#p80a029f746)">
     <use xlink:href="#C2_0_7ff01341c7" x="241.031332" y="66.77236" style="fill: #956cb4"/>
    </g>
    <g clip-path="url(#p80a029f746)">
     <use xlink:href="#C2_0_7ff01341c7" x="241.52564" y="76.3619" style="fill: #956cb4"/>
    </g>
    <g clip-path="url(#p80a029f746)">
     <use xlink:href="#C2_0_7ff01341c7" x="259.986384" y="71.64" style="fill: #b2df8a"/>
    </g>
    <g clip-path="url(#p80a029f746)">
     <use xlink:href="#C2_0_7ff01341c7" x="261.680153" y="66.98036" style="fill: #b2df8a"/>
    </g>
    <g clip-path="url(#p80a029f746)">
     <use xlink:href="#C2_0_7ff01341c7" x="266.639854" y="71.64" style="fill: #b2df8a"/>
    </g>
    <g clip-path="url(#p80a029f746)">
     <use xlink:href="#C2_0_7ff01341c7" x="276.965405" y="71.64" style="fill: #b2df8a"/>
    </g>
    <g clip-path="url(#p80a029f746)">
     <use xlink:href="#C2_0_7ff01341c7" x="286.215748" y="71.64" style="fill: #1f78b4"/>
    </g>
    <g clip-path="url(#p80a029f746)">
     <use xlink:href="#C2_0_7ff01341c7" x="288.626105" y="67.342346" style="fill: #1f78b4"/>
    </g>
    <g clip-path="url(#p80a029f746)">
     <use xlink:href="#C2_0_7ff01341c7" x="290.310094" y="74.168481" style="fill: #1f78b4"/>
    </g>
    <g clip-path="url(#p80a029f746)">
     <use xlink:href="#C2_0_7ff01341c7" x="332.469971" y="71.64" style="fill: #1f78b4"/>
    </g>
    <g clip-path="url(#p80a029f746)">
     <use xlink:href="#C2_0_7ff01341c7" x="335.912948" y="68.204011" style="fill: #1f78b4"/>
    </g>
    <g clip-path="url(#p80a029f746)">
     <use xlink:href="#C2_0_7ff01341c7" x="349.600916" y="71.64" style="fill: #1f78b4"/>
    </g>
    <g clip-path="url(#p80a029f746)">
     <use xlink:href="#C2_0_7ff01341c7" x="352.277298" y="67.519572" style="fill: #956cb4"/>
    </g>
    <g clip-path="url(#p80a029f746)">
     <use xlink:href="#C2_0_7ff01341c7" x="365.004117" y="71.64" style="fill: #956cb4"/>
    </g>
    <g clip-path="url(#p80a029f746)">
     <use xlink:href="#C2_0_7ff01341c7" x="366.247179" y="66.826314" style="fill: #956cb4"/>
    </g>
    <g clip-path="url(#p80a029f746)">
     <use xlink:href="#C2_0_7ff01341c7" x="371.205877" y="71.64" style="fill: #1f78b4"/>
    </g>
    <g clip-path="url(#p80a029f746)">
     <use xlink:href="#C2_0_7ff01341c7" x="371.476528" y="66.660603" style="fill: #956cb4"/>
    </g>
    <g clip-path="url(#p80a029f746)">
     <use xlink:href="#C2_0_7ff01341c7" x="374.807863" y="74.891306" style="fill: #1f78b4"/>
    </g>
   </g>
   <g id="PathCollection_12">
    <defs>
     <path id="C3_0_95a52794f0" d="M 0 2.375 
C 0.629857 2.375 1.234002 2.124755 1.679379 1.679379 
C 2.124755 1.234002 2.375 0.629857 2.375 -0 
C 2.375 -0.629857 2.124755 -1.234002 1.679379 -1.679379 
C 1.234002 -2.124755 0.629857 -2.375 0 -2.375 
C -0.629857 -2.375 -1.234002 -2.124755 -1.679379 -1.679379 
C -2.124755 -1.234002 -2.375 -0.629857 -2.375 0 
C -2.375 0.629857 -2.124755 1.234002 -1.679379 1.679379 
C -1.234002 2.124755 -0.629857 2.375 0 2.375 
z
"/>
    </defs>
    <g clip-path="url(#p80a029f746)">
     <use xlink:href="#C3_0_95a52794f0" x="142.08648" y="93.384" style="fill: #b2df8a"/>
    </g>
    <g clip-path="url(#p80a029f746)">
     <use xlink:href="#C3_0_95a52794f0" x="149.286096" y="93.384" style="fill: #b2df8a"/>
    </g>
    <g clip-path="url(#p80a029f746)">
     <use xlink:href="#C3_0_95a52794f0" x="165.864193" y="93.384" style="fill: #b2df8a"/>
    </g>
    <g clip-path="url(#p80a029f746)">
     <use xlink:href="#C3_0_95a52794f0" x="172.370414" y="93.384" style="fill: #956cb4"/>
    </g>
    <g clip-path="url(#p80a029f746)">
     <use xlink:href="#C3_0_95a52794f0" x="177.078436" y="92.722398" style="fill: #a6cee3"/>
    </g>
    <g clip-path="url(#p80a029f746)">
     <use xlink:href="#C3_0_95a52794f0" x="188.202976" y="93.384" style="fill: #a6cee3"/>
    </g>
    <g clip-path="url(#p80a029f746)">
     <use xlink:href="#C3_0_95a52794f0" x="188.600314" y="88.41398" style="fill: #956cb4"/>
    </g>
    <g clip-path="url(#p80a029f746)">
     <use xlink:href="#C3_0_95a52794f0" x="190.189548" y="97.914361" style="fill: #a6cee3"/>
    </g>
    <g clip-path="url(#p80a029f746)">
     <use xlink:href="#C3_0_95a52794f0" x="191.260382" y="84.6864" style="fill: #b2df8a"/>
    </g>
    <g clip-path="url(#p80a029f746)">
     <use xlink:href="#C3_0_95a52794f0" x="232.039506" y="93.384" style="fill: #956cb4"/>
    </g>
    <g clip-path="url(#p80a029f746)">
     <use xlink:href="#C3_0_95a52794f0" x="234.056583" y="88.868524" style="fill: #956cb4"/>
    </g>
    <g clip-path="url(#p80a029f746)">
     <use xlink:href="#C3_0_95a52794f0" x="235.176829" y="97.128792" style="fill: #b2df8a"/>
    </g>
    <g clip-path="url(#p80a029f746)">
     <use xlink:href="#C3_0_95a52794f0" x="240.255724" y="93.384" style="fill: #956cb4"/>
    </g>
    <g clip-path="url(#p80a029f746)">
     <use xlink:href="#C3_0_95a52794f0" x="244.75273" y="91.778001" style="fill: #956cb4"/>
    </g>
    <g clip-path="url(#p80a029f746)">
     <use xlink:href="#C3_0_95a52794f0" x="248.414224" y="94.955176" style="fill: #b2df8a"/>
    </g>
    <g clip-path="url(#p80a029f746)">
     <use xlink:href="#C3_0_95a52794f0" x="252.176845" y="91.911048" style="fill: #b2df8a"/>
    </g>
    <g clip-path="url(#p80a029f746)">
     <use xlink:href="#C3_0_95a52794f0" x="252.240462" y="97.910587" style="fill: #b2df8a"/>
    </g>
    <g clip-path="url(#p80a029f746)">
     <use xlink:href="#C3_0_95a52794f0" x="260.046425" y="93.384" style="fill: #b2df8a"/>
    </g>
    <g clip-path="url(#p80a029f746)">
     <use xlink:href="#C3_0_95a52794f0" x="260.280972" y="88.402584" style="fill: #b2df8a"/>
    </g>
    <g clip-path="url(#p80a029f746)">
     <use xlink:href="#C3_0_95a52794f0" x="293.22541" y="93.384" style="fill: #1f78b4"/>
    </g>
    <g clip-path="url(#p80a029f746)">
     <use xlink:href="#C3_0_95a52794f0" x="298.15803" y="93.384" style="fill: #1f78b4"/>
    </g>
    <g clip-path="url(#p80a029f746)">
     <use xlink:href="#C3_0_95a52794f0" x="332.424776" y="93.384" style="fill: #956cb4"/>
    </g>
    <g clip-path="url(#p80a029f746)">
     <use xlink:href="#C3_0_95a52794f0" x="335.39343" y="89.490553" style="fill: #1f78b4"/>
    </g>
    <g clip-path="url(#p80a029f746)">
     <use xlink:href="#C3_0_95a52794f0" x="339.300188" y="93.384" style="fill: #956cb4"/>
    </g>
    <g clip-path="url(#p80a029f746)">
     <use xlink:href="#C3_0_95a52794f0" x="339.412588" y="98.370103" style="fill: #1f78b4"/>
    </g>
    <g clip-path="url(#p80a029f746)">
     <use xlink:href="#C3_0_95a52794f0" x="340.161154" y="88.479113" style="fill: #956cb4"/>
    </g>
    <g clip-path="url(#p80a029f746)">
     <use xlink:href="#C3_0_95a52794f0" x="346.139451" y="93.384" style="fill: #956cb4"/>
    </g>
    <g clip-path="url(#p80a029f746)">
     <use xlink:href="#C3_0_95a52794f0" x="352.967086" y="93.384" style="fill: #1f78b4"/>
    </g>
    <g clip-path="url(#p80a029f746)">
     <use xlink:href="#C3_0_95a52794f0" x="362.566559" y="93.384" style="fill: #1f78b4"/>
    </g>
    <g clip-path="url(#p80a029f746)">
     <use xlink:href="#C3_0_95a52794f0" x="365.496002" y="89.457945" style="fill: #b2df8a"/>
    </g>
    <g clip-path="url(#p80a029f746)">
     <use xlink:href="#C3_0_95a52794f0" x="366.631176" y="95.96482" style="fill: #b2df8a"/>
    </g>
    <g clip-path="url(#p80a029f746)">
     <use xlink:href="#C3_0_95a52794f0" x="369.590295" y="92.063379" style="fill: #1f78b4"/>
    </g>
    <g clip-path="url(#p80a029f746)">
     <use xlink:href="#C3_0_95a52794f0" x="371.130279" y="97.564331" style="fill: #b2df8a"/>
    </g>
    <g clip-path="url(#p80a029f746)">
     <use xlink:href="#C3_0_95a52794f0" x="372.57998" y="88.187715" style="fill: #1f78b4"/>
    </g>
    <g clip-path="url(#p80a029f746)">
     <use xlink:href="#C3_0_95a52794f0" x="374.596746" y="93.384" style="fill: #b2df8a"/>
    </g>
   </g>
   <g id="PathCollection_13">
    <path d="M 0 146.375 
C 0.629857 146.375 1.234002 146.124755 1.679379 145.679379 
C 2.124755 145.234002 2.375 144.629857 2.375 144 
C 2.375 143.370143 2.124755 142.765998 1.679379 142.320621 
C 1.234002 141.875245 0.629857 141.625 0 141.625 
C -0.629857 141.625 -1.234002 141.875245 -1.679379 142.320621 
C -2.124755 142.765998 -2.375 143.370143 -2.375 144 
C -2.375 144.629857 -2.124755 145.234002 -1.679379 145.679379 
C -1.234002 146.124755 -0.629857 146.375 0 146.375 
" clip-path="url(#p80a029f746)" style="fill: none"/>
   </g>
   <g id="patch_7">
    <path d="M 63 126 
L 63 17.28 
" style="fill: none; stroke: #cccccc; stroke-width: 1.25; stroke-linejoin: miter; stroke-linecap: square"/>
   </g>
   <g id="patch_8">
    <path d="M 453.6 126 
L 453.6 17.28 
" style="fill: none; stroke: #cccccc; stroke-width: 1.25; stroke-linejoin: miter; stroke-linecap: square"/>
   </g>
   <g id="patch_9">
    <path d="M 63 126 
L 453.6 126 
" style="fill: none; stroke: #cccccc; stroke-width: 1.25; stroke-linejoin: miter; stroke-linecap: square"/>
   </g>
   <g id="patch_10">
    <path d="M 63 17.28 
L 453.6 17.28 
" style="fill: none; stroke: #cccccc; stroke-width: 1.25; stroke-linejoin: miter; stroke-linecap: square"/>
   </g>
   <g id="legend_1">
    <g id="patch_11">
     <path d="M 461.3 131.372 
L 695.634375 131.372 
Q 697.834375 131.372 697.834375 129.172 
L 697.834375 16.256375 
Q 697.834375 14.056375 695.634375 14.056375 
L 461.3 14.056375 
Q 459.1 14.056375 459.1 16.256375 
L 459.1 129.172 
Q 459.1 131.372 461.3 131.372 
z
" style="fill: #ffffff; opacity: 0.8; stroke: #cccccc; stroke-linejoin: miter"/>
    </g>
    <g id="text_15">
     <!-- $\it{E. coli}$ YgfZ mutant strains -->
     <g style="fill: #262626" transform="translate(499.807187 27.576375)scale(0.12 -0.12)">
      <defs>
       <path id="DejaVuSans-Oblique-45" d="M 1081 4666 
L 4031 4666 
L 3928 4134 
L 1606 4134 
L 1338 2753 
L 3566 2753 
L 3463 2222 
L 1234 2222 
L 909 531 
L 3284 531 
L 3181 0 
L 172 0 
L 1081 4666 
z
" transform="scale(0.015625)"/>
       <path id="DejaVuSans-2e" d="M 684 794 
L 1344 794 
L 1344 0 
L 684 0 
L 684 794 
z
" transform="scale(0.015625)"/>
       <path id="DejaVuSans-Oblique-63" d="M 3431 3366 
L 3316 2797 
Q 3109 2947 2876 3022 
Q 2644 3097 2394 3097 
Q 2119 3097 1870 3000 
Q 1622 2903 1453 2725 
Q 1184 2453 1037 2087 
Q 891 1722 891 1331 
Q 891 859 1127 628 
Q 1363 397 1844 397 
Q 2081 397 2348 469 
Q 2616 541 2906 684 
L 2797 116 
Q 2547 13 2283 -39 
Q 2019 -91 1741 -91 
Q 1044 -91 669 257 
Q 294 606 294 1253 
Q 294 1797 489 2255 
Q 684 2713 1069 3078 
Q 1331 3328 1684 3456 
Q 2038 3584 2456 3584 
Q 2700 3584 2940 3529 
Q 3181 3475 3431 3366 
z
" transform="scale(0.015625)"/>
       <path id="DejaVuSans-Oblique-6f" d="M 1625 -91 
Q 1009 -91 651 289 
Q 294 669 294 1325 
Q 294 1706 417 2101 
Q 541 2497 738 2766 
Q 1047 3184 1428 3384 
Q 1809 3584 2291 3584 
Q 2888 3584 3255 3212 
Q 3622 2841 3622 2241 
Q 3622 1825 3500 1412 
Q 3378 1000 3181 728 
Q 2875 309 2494 109 
Q 2113 -91 1625 -91 
z
M 891 1344 
Q 891 869 1089 633 
Q 1288 397 1691 397 
Q 2269 397 2648 901 
Q 3028 1406 3028 2181 
Q 3028 2634 2825 2865 
Q 2622 3097 2228 3097 
Q 1903 3097 1650 2945 
Q 1397 2794 1197 2484 
Q 1050 2253 970 1956 
Q 891 1659 891 1344 
z
" transform="scale(0.015625)"/>
       <path id="DejaVuSans-Oblique-6c" d="M 1172 4863 
L 1747 4863 
L 800 0 
L 225 0 
L 1172 4863 
z
" transform="scale(0.015625)"/>
       <path id="DejaVuSans-Oblique-69" d="M 1172 4863 
L 1747 4863 
L 1606 4134 
L 1031 4134 
L 1172 4863 
z
M 909 3500 
L 1484 3500 
L 800 0 
L 225 0 
L 909 3500 
z
" transform="scale(0.015625)"/>
       <path id="DejaVuSans-59" d="M -13 4666 
L 666 4666 
L 1959 2747 
L 3244 4666 
L 3922 4666 
L 2272 2222 
L 2272 0 
L 1638 0 
L 1638 2222 
L -13 4666 
z
" transform="scale(0.015625)"/>
       <path id="DejaVuSans-67" d="M 2906 1791 
Q 2906 2416 2648 2759 
Q 2391 3103 1925 3103 
Q 1463 3103 1205 2759 
Q 947 2416 947 1791 
Q 947 1169 1205 825 
Q 1463 481 1925 481 
Q 2391 481 2648 825 
Q 2906 1169 2906 1791 
z
M 3481 434 
Q 3481 -459 3084 -895 
Q 2688 -1331 1869 -1331 
Q 1566 -1331 1297 -1286 
Q 1028 -1241 775 -1147 
L 775 -588 
Q 1028 -725 1275 -790 
Q 1522 -856 1778 -856 
Q 2344 -856 2625 -561 
Q 2906 -266 2906 331 
L 2906 616 
Q 2728 306 2450 153 
Q 2172 0 1784 0 
Q 1141 0 747 490 
Q 353 981 353 1791 
Q 353 2603 747 3093 
Q 1141 3584 1784 3584 
Q 2172 3584 2450 3431 
Q 2728 3278 2906 2969 
L 2906 3500 
L 3481 3500 
L 3481 434 
z
" transform="scale(0.015625)"/>
       <path id="DejaVuSans-66" d="M 2375 4863 
L 2375 4384 
L 1825 4384 
Q 1516 4384 1395 4259 
Q 1275 4134 1275 3809 
L 1275 3500 
L 2222 3500 
L 2222 3053 
L 1275 3053 
L 1275 0 
L 697 0 
L 697 3053 
L 147 3053 
L 147 3500 
L 697 3500 
L 697 3744 
Q 697 4328 969 4595 
Q 1241 4863 1831 4863 
L 2375 4863 
z
" transform="scale(0.015625)"/>
       <path id="DejaVuSans-5a" d="M 359 4666 
L 4025 4666 
L 4025 4184 
L 1075 531 
L 4097 531 
L 4097 0 
L 288 0 
L 288 481 
L 3238 4134 
L 359 4134 
L 359 4666 
z
" transform="scale(0.015625)"/>
      </defs>
      <use xlink:href="#DejaVuSans-Oblique-45" transform="translate(0 0.015625)"/>
      <use xlink:href="#DejaVuSans-2e" transform="translate(63.183594 0.015625)"/>
      <use xlink:href="#DejaVuSans-Oblique-63" transform="translate(114.453125 0.015625)"/>
      <use xlink:href="#DejaVuSans-Oblique-6f" transform="translate(169.433594 0.015625)"/>
      <use xlink:href="#DejaVuSans-Oblique-6c" transform="translate(230.615234 0.015625)"/>
      <use xlink:href="#DejaVuSans-Oblique-69" transform="translate(258.398438 0.015625)"/>
      <use xlink:href="#DejaVuSans-20" transform="translate(286.181641 0.015625)"/>
      <use xlink:href="#DejaVuSans-59" transform="translate(317.96875 0.015625)"/>
      <use xlink:href="#DejaVuSans-67" transform="translate(379.052734 0.015625)"/>
      <use xlink:href="#DejaVuSans-66" transform="translate(442.529297 0.015625)"/>
      <use xlink:href="#DejaVuSans-5a" transform="translate(477.734375 0.015625)"/>
      <use xlink:href="#DejaVuSans-20" transform="translate(546.240234 0.015625)"/>
      <use xlink:href="#DejaVuSans-6d" transform="translate(578.027344 0.015625)"/>
      <use xlink:href="#DejaVuSans-75" transform="translate(675.439453 0.015625)"/>
      <use xlink:href="#DejaVuSans-74" transform="translate(738.818359 0.015625)"/>
      <use xlink:href="#DejaVuSans-61" transform="translate(778.027344 0.015625)"/>
      <use xlink:href="#DejaVuSans-6e" transform="translate(839.306641 0.015625)"/>
      <use xlink:href="#DejaVuSans-74" transform="translate(902.685547 0.015625)"/>
      <use xlink:href="#DejaVuSans-20" transform="translate(941.894531 0.015625)"/>
      <use xlink:href="#DejaVuSans-73" transform="translate(973.681641 0.015625)"/>
      <use xlink:href="#DejaVuSans-74" transform="translate(1025.78125 0.015625)"/>
      <use xlink:href="#DejaVuSans-72" transform="translate(1064.990234 0.015625)"/>
      <use xlink:href="#DejaVuSans-61" transform="translate(1106.103516 0.015625)"/>
      <use xlink:href="#DejaVuSans-69" transform="translate(1167.382812 0.015625)"/>
      <use xlink:href="#DejaVuSans-6e" transform="translate(1195.166016 0.015625)"/>
      <use xlink:href="#DejaVuSans-73" transform="translate(1258.544922 0.015625)"/>
     </g>
    </g>
    <g id="PathCollection_14">
     <defs>
      <path id="m1f5322b38f" d="M 0 3 
C 0.795609 3 1.55874 2.683901 2.12132 2.12132 
C 2.683901 1.55874 3 0.795609 3 0 
C 3 -0.795609 2.683901 -1.55874 2.12132 -2.12132 
C 1.55874 -2.683901 0.795609 -3 0 -3 
C -0.795609 -3 -1.55874 -2.683901 -2.12132 -2.12132 
C -2.683901 -1.55874 -3 -0.795609 -3 0 
C -3 0.795609 -2.683901 1.55874 -2.12132 2.12132 
C -1.55874 2.683901 -0.795609 3 0 3 
z
" style="stroke: #7f7f7f"/>
     </defs>
     <g>
      <use xlink:href="#m1f5322b38f" x="474.5" y="41.067156" style="fill: #7f7f7f; stroke: #7f7f7f"/>
     </g>
    </g>
    <g id="text_16">
     <!-- no YgfZ mutation -->
     <g style="fill: #262626" transform="translate(494.3 43.954656)scale(0.11 -0.11)">
      <use xlink:href="#DejaVuSans-6e"/>
      <use xlink:href="#DejaVuSans-6f" x="63.378906"/>
      <use xlink:href="#DejaVuSans-20" x="124.560547"/>
      <use xlink:href="#DejaVuSans-59" x="156.347656"/>
      <use xlink:href="#DejaVuSans-67" x="217.431641"/>
      <use xlink:href="#DejaVuSans-66" x="280.908203"/>
      <use xlink:href="#DejaVuSans-5a" x="316.113281"/>
      <use xlink:href="#DejaVuSans-20" x="384.619141"/>
      <use xlink:href="#DejaVuSans-6d" x="416.40625"/>
      <use xlink:href="#DejaVuSans-75" x="513.818359"/>
      <use xlink:href="#DejaVuSans-74" x="577.197266"/>
      <use xlink:href="#DejaVuSans-61" x="616.40625"/>
      <use xlink:href="#DejaVuSans-74" x="677.685547"/>
      <use xlink:href="#DejaVuSans-69" x="716.894531"/>
      <use xlink:href="#DejaVuSans-6f" x="744.677734"/>
      <use xlink:href="#DejaVuSans-6e" x="805.859375"/>
     </g>
    </g>
    <g id="PathCollection_15">
     <defs>
      <path id="ma1d40965a1" d="M 0 3.872983 
C 1.027127 3.872983 2.012324 3.464901 2.738613 2.738613 
C 3.464901 2.012324 3.872983 1.027127 3.872983 0 
C 3.872983 -1.027127 3.464901 -2.012324 2.738613 -2.738613 
C 2.012324 -3.464901 1.027127 -3.872983 0 -3.872983 
C -1.027127 -3.872983 -2.012324 -3.464901 -2.738613 -2.738613 
C -3.464901 -2.012324 -3.872983 -1.027127 -3.872983 0 
C -3.872983 1.027127 -3.464901 2.012324 -2.738613 2.738613 
C -2.012324 3.464901 -1.027127 3.872983 0 3.872983 
z
" style="stroke: #956cb4"/>
     </defs>
     <g>
      <use xlink:href="#ma1d40965a1" x="474.5" y="57.213094" style="fill: #956cb4; stroke: #956cb4"/>
     </g>
    </g>
    <g id="text_17">
     <!-- V107E (paraquat ALE) -->
     <g style="fill: #262626" transform="translate(494.3 60.100594)scale(0.11 -0.11)">
      <defs>
       <path id="DejaVuSans-56" d="M 1831 0 
L 50 4666 
L 709 4666 
L 2188 738 
L 3669 4666 
L 4325 4666 
L 2547 0 
L 1831 0 
z
" transform="scale(0.015625)"/>
       <path id="DejaVuSans-45" d="M 628 4666 
L 3578 4666 
L 3578 4134 
L 1259 4134 
L 1259 2753 
L 3481 2753 
L 3481 2222 
L 1259 2222 
L 1259 531 
L 3634 531 
L 3634 0 
L 628 0 
L 628 4666 
z
" transform="scale(0.015625)"/>
       <path id="DejaVuSans-41" d="M 2188 4044 
L 1331 1722 
L 3047 1722 
L 2188 4044 
z
M 1831 4666 
L 2547 4666 
L 4325 0 
L 3669 0 
L 3244 1197 
L 1141 1197 
L 716 0 
L 50 0 
L 1831 4666 
z
" transform="scale(0.015625)"/>
       <path id="DejaVuSans-4c" d="M 628 4666 
L 1259 4666 
L 1259 531 
L 3531 531 
L 3531 0 
L 628 0 
L 628 4666 
z
" transform="scale(0.015625)"/>
      </defs>
      <use xlink:href="#DejaVuSans-56"/>
      <use xlink:href="#DejaVuSans-31" x="68.408203"/>
      <use xlink:href="#DejaVuSans-30" x="132.03125"/>
      <use xlink:href="#DejaVuSans-37" x="195.654297"/>
      <use xlink:href="#DejaVuSans-45" x="259.277344"/>
      <use xlink:href="#DejaVuSans-20" x="322.460938"/>
      <use xlink:href="#DejaVuSans-28" x="354.248047"/>
      <use xlink:href="#DejaVuSans-70" x="393.261719"/>
      <use xlink:href="#DejaVuSans-61" x="456.738281"/>
      <use xlink:href="#DejaVuSans-72" x="518.017578"/>
      <use xlink:href="#DejaVuSans-61" x="559.130859"/>
      <use xlink:href="#DejaVuSans-71" x="620.410156"/>
      <use xlink:href="#DejaVuSans-75" x="683.886719"/>
      <use xlink:href="#DejaVuSans-61" x="747.265625"/>
      <use xlink:href="#DejaVuSans-74" x="808.544922"/>
      <use xlink:href="#DejaVuSans-20" x="847.753906"/>
      <use xlink:href="#DejaVuSans-41" x="879.541016"/>
      <use xlink:href="#DejaVuSans-4c" x="947.949219"/>
      <use xlink:href="#DejaVuSans-45" x="1003.662109"/>
      <use xlink:href="#DejaVuSans-29" x="1066.845703"/>
     </g>
    </g>
    <g id="PathCollection_16">
     <defs>
      <path id="mbee7cc7e3b" d="M 0 3.872983 
C 1.027127 3.872983 2.012324 3.464901 2.738613 2.738613 
C 3.464901 2.012324 3.872983 1.027127 3.872983 0 
C 3.872983 -1.027127 3.464901 -2.012324 2.738613 -2.738613 
C 2.012324 -3.464901 1.027127 -3.872983 0 -3.872983 
C -1.027127 -3.872983 -2.012324 -3.464901 -2.738613 -2.738613 
C -3.464901 -2.012324 -3.872983 -1.027127 -3.872983 0 
C -3.872983 1.027127 -3.464901 2.012324 -2.738613 2.738613 
C -2.012324 3.464901 -1.027127 3.872983 0 3.872983 
z
" style="stroke: #33a02c"/>
     </defs>
     <g>
      <use xlink:href="#mbee7cc7e3b" x="474.5" y="73.359031" style="fill: #33a02c; stroke: #33a02c"/>
     </g>
    </g>
    <g id="text_18">
     <!-- W27C (paraquat ALE) -->
     <g style="fill: #262626" transform="translate(494.3 76.246531)scale(0.11 -0.11)">
      <defs>
       <path id="DejaVuSans-57" d="M 213 4666 
L 850 4666 
L 1831 722 
L 2809 4666 
L 3519 4666 
L 4500 722 
L 5478 4666 
L 6119 4666 
L 4947 0 
L 4153 0 
L 3169 4050 
L 2175 0 
L 1381 0 
L 213 4666 
z
" transform="scale(0.015625)"/>
      </defs>
      <use xlink:href="#DejaVuSans-57"/>
      <use xlink:href="#DejaVuSans-32" x="98.876953"/>
      <use xlink:href="#DejaVuSans-37" x="162.5"/>
      <use xlink:href="#DejaVuSans-43" x="226.123047"/>
      <use xlink:href="#DejaVuSans-20" x="295.947266"/>
      <use xlink:href="#DejaVuSans-28" x="327.734375"/>
      <use xlink:href="#DejaVuSans-70" x="366.748047"/>
      <use xlink:href="#DejaVuSans-61" x="430.224609"/>
      <use xlink:href="#DejaVuSans-72" x="491.503906"/>
      <use xlink:href="#DejaVuSans-61" x="532.617188"/>
      <use xlink:href="#DejaVuSans-71" x="593.896484"/>
      <use xlink:href="#DejaVuSans-75" x="657.373047"/>
      <use xlink:href="#DejaVuSans-61" x="720.751953"/>
      <use xlink:href="#DejaVuSans-74" x="782.03125"/>
      <use xlink:href="#DejaVuSans-20" x="821.240234"/>
      <use xlink:href="#DejaVuSans-41" x="853.027344"/>
      <use xlink:href="#DejaVuSans-4c" x="921.435547"/>
      <use xlink:href="#DejaVuSans-45" x="977.148438"/>
      <use xlink:href="#DejaVuSans-29" x="1040.332031"/>
     </g>
    </g>
    <g id="PathCollection_17">
     <defs>
      <path id="m9dba4ef730" d="M 0 3.872983 
C 1.027127 3.872983 2.012324 3.464901 2.738613 2.738613 
C 3.464901 2.012324 3.872983 1.027127 3.872983 0 
C 3.872983 -1.027127 3.464901 -2.012324 2.738613 -2.738613 
C 2.012324 -3.464901 1.027127 -3.872983 0 -3.872983 
C -1.027127 -3.872983 -2.012324 -3.464901 -2.738613 -2.738613 
C -3.464901 -2.012324 -3.872983 -1.027127 -3.872983 0 
C -3.872983 1.027127 -3.464901 2.012324 -2.738613 2.738613 
C -2.012324 3.464901 -1.027127 3.872983 0 3.872983 
z
" style="stroke: #1f78b4"/>
     </defs>
     <g>
      <use xlink:href="#m9dba4ef730" x="474.5" y="89.504969" style="fill: #1f78b4; stroke: #1f78b4"/>
     </g>
    </g>
    <g id="text_19">
     <!-- T108P (paraquat ALE) -->
     <g style="fill: #262626" transform="translate(494.3 92.392469)scale(0.11 -0.11)">
      <defs>
       <path id="DejaVuSans-54" d="M -19 4666 
L 3928 4666 
L 3928 4134 
L 2272 4134 
L 2272 0 
L 1638 0 
L 1638 4134 
L -19 4134 
L -19 4666 
z
" transform="scale(0.015625)"/>
      </defs>
      <use xlink:href="#DejaVuSans-54"/>
      <use xlink:href="#DejaVuSans-31" x="61.083984"/>
      <use xlink:href="#DejaVuSans-30" x="124.707031"/>
      <use xlink:href="#DejaVuSans-38" x="188.330078"/>
      <use xlink:href="#DejaVuSans-50" x="251.953125"/>
      <use xlink:href="#DejaVuSans-20" x="312.255859"/>
      <use xlink:href="#DejaVuSans-28" x="344.042969"/>
      <use xlink:href="#DejaVuSans-70" x="383.056641"/>
      <use xlink:href="#DejaVuSans-61" x="446.533203"/>
      <use xlink:href="#DejaVuSans-72" x="507.8125"/>
      <use xlink:href="#DejaVuSans-61" x="548.925781"/>
      <use xlink:href="#DejaVuSans-71" x="610.205078"/>
      <use xlink:href="#DejaVuSans-75" x="673.681641"/>
      <use xlink:href="#DejaVuSans-61" x="737.060547"/>
      <use xlink:href="#DejaVuSans-74" x="798.339844"/>
      <use xlink:href="#DejaVuSans-20" x="837.548828"/>
      <use xlink:href="#DejaVuSans-41" x="869.335938"/>
      <use xlink:href="#DejaVuSans-4c" x="937.744141"/>
      <use xlink:href="#DejaVuSans-45" x="993.457031"/>
      <use xlink:href="#DejaVuSans-29" x="1056.640625"/>
     </g>
    </g>
    <g id="PathCollection_18">
     <defs>
      <path id="mdf4b7e58ce" d="M 0 3.872983 
C 1.027127 3.872983 2.012324 3.464901 2.738613 2.738613 
C 3.464901 2.012324 3.872983 1.027127 3.872983 0 
C 3.872983 -1.027127 3.464901 -2.012324 2.738613 -2.738613 
C 2.012324 -3.464901 1.027127 -3.872983 0 -3.872983 
C -1.027127 -3.872983 -2.012324 -3.464901 -2.738613 -2.738613 
C -3.464901 -2.012324 -3.872983 -1.027127 -3.872983 0 
C -3.872983 1.027127 -3.464901 2.012324 -2.738613 2.738613 
C -2.012324 3.464901 -1.027127 3.872983 0 3.872983 
z
" style="stroke: #b2df8a"/>
     </defs>
     <g>
      <use xlink:href="#mdf4b7e58ce" x="474.5" y="105.650906" style="fill: #b2df8a; stroke: #b2df8a"/>
     </g>
    </g>
    <g id="text_20">
     <!-- L29R (paraquat ALE) -->
     <g style="fill: #262626" transform="translate(494.3 108.538406)scale(0.11 -0.11)">
      <defs>
       <path id="DejaVuSans-52" d="M 2841 2188 
Q 3044 2119 3236 1894 
Q 3428 1669 3622 1275 
L 4263 0 
L 3584 0 
L 2988 1197 
Q 2756 1666 2539 1819 
Q 2322 1972 1947 1972 
L 1259 1972 
L 1259 0 
L 628 0 
L 628 4666 
L 2053 4666 
Q 2853 4666 3247 4331 
Q 3641 3997 3641 3322 
Q 3641 2881 3436 2590 
Q 3231 2300 2841 2188 
z
M 1259 4147 
L 1259 2491 
L 2053 2491 
Q 2509 2491 2742 2702 
Q 2975 2913 2975 3322 
Q 2975 3731 2742 3939 
Q 2509 4147 2053 4147 
L 1259 4147 
z
" transform="scale(0.015625)"/>
      </defs>
      <use xlink:href="#DejaVuSans-4c"/>
      <use xlink:href="#DejaVuSans-32" x="55.712891"/>
      <use xlink:href="#DejaVuSans-39" x="119.335938"/>
      <use xlink:href="#DejaVuSans-52" x="182.958984"/>
      <use xlink:href="#DejaVuSans-20" x="252.441406"/>
      <use xlink:href="#DejaVuSans-28" x="284.228516"/>
      <use xlink:href="#DejaVuSans-70" x="323.242188"/>
      <use xlink:href="#DejaVuSans-61" x="386.71875"/>
      <use xlink:href="#DejaVuSans-72" x="447.998047"/>
      <use xlink:href="#DejaVuSans-61" x="489.111328"/>
      <use xlink:href="#DejaVuSans-71" x="550.390625"/>
      <use xlink:href="#DejaVuSans-75" x="613.867188"/>
      <use xlink:href="#DejaVuSans-61" x="677.246094"/>
      <use xlink:href="#DejaVuSans-74" x="738.525391"/>
      <use xlink:href="#DejaVuSans-20" x="777.734375"/>
      <use xlink:href="#DejaVuSans-41" x="809.521484"/>
      <use xlink:href="#DejaVuSans-4c" x="877.929688"/>
      <use xlink:href="#DejaVuSans-45" x="933.642578"/>
      <use xlink:href="#DejaVuSans-29" x="996.826172"/>
     </g>
    </g>
    <g id="PathCollection_19">
     <defs>
      <path id="m089232cf90" d="M 0 3.872983 
C 1.027127 3.872983 2.012324 3.464901 2.738613 2.738613 
C 3.464901 2.012324 3.872983 1.027127 3.872983 0 
C 3.872983 -1.027127 3.464901 -2.012324 2.738613 -2.738613 
C 2.012324 -3.464901 1.027127 -3.872983 0 -3.872983 
C -1.027127 -3.872983 -2.012324 -3.464901 -2.738613 -2.738613 
C -3.464901 -2.012324 -3.872983 -1.027127 -3.872983 0 
C -3.872983 1.027127 -3.464901 2.012324 -2.738613 2.738613 
C -2.012324 3.464901 -1.027127 3.872983 0 3.872983 
z
" style="stroke: #a6cee3"/>
     </defs>
     <g>
      <use xlink:href="#m089232cf90" x="474.5" y="121.796844" style="fill: #a6cee3; stroke: #a6cee3"/>
     </g>
    </g>
    <g id="text_21">
     <!-- T108P (melatonin production strain) -->
     <g style="fill: #262626" transform="translate(494.3 124.684344)scale(0.11 -0.11)">
      <use xlink:href="#DejaVuSans-54"/>
      <use xlink:href="#DejaVuSans-31" x="61.083984"/>
      <use xlink:href="#DejaVuSans-30" x="124.707031"/>
      <use xlink:href="#DejaVuSans-38" x="188.330078"/>
      <use xlink:href="#DejaVuSans-50" x="251.953125"/>
      <use xlink:href="#DejaVuSans-20" x="312.255859"/>
      <use xlink:href="#DejaVuSans-28" x="344.042969"/>
      <use xlink:href="#DejaVuSans-6d" x="383.056641"/>
      <use xlink:href="#DejaVuSans-65" x="480.46875"/>
      <use xlink:href="#DejaVuSans-6c" x="541.992188"/>
      <use xlink:href="#DejaVuSans-61" x="569.775391"/>
      <use xlink:href="#DejaVuSans-74" x="631.054688"/>
      <use xlink:href="#DejaVuSans-6f" x="670.263672"/>
      <use xlink:href="#DejaVuSans-6e" x="731.445312"/>
      <use xlink:href="#DejaVuSans-69" x="794.824219"/>
      <use xlink:href="#DejaVuSans-6e" x="822.607422"/>
      <use xlink:href="#DejaVuSans-20" x="885.986328"/>
      <use xlink:href="#DejaVuSans-70" x="917.773438"/>
      <use xlink:href="#DejaVuSans-72" x="981.25"/>
      <use xlink:href="#DejaVuSans-6f" x="1020.113281"/>
      <use xlink:href="#DejaVuSans-64" x="1081.294922"/>
      <use xlink:href="#DejaVuSans-75" x="1144.771484"/>
      <use xlink:href="#DejaVuSans-63" x="1208.150391"/>
      <use xlink:href="#DejaVuSans-74" x="1263.130859"/>
      <use xlink:href="#DejaVuSans-69" x="1302.339844"/>
      <use xlink:href="#DejaVuSans-6f" x="1330.123047"/>
      <use xlink:href="#DejaVuSans-6e" x="1391.304688"/>
      <use xlink:href="#DejaVuSans-20" x="1454.683594"/>
      <use xlink:href="#DejaVuSans-73" x="1486.470703"/>
      <use xlink:href="#DejaVuSans-74" x="1538.570312"/>
      <use xlink:href="#DejaVuSans-72" x="1577.779297"/>
      <use xlink:href="#DejaVuSans-61" x="1618.892578"/>
      <use xlink:href="#DejaVuSans-69" x="1680.171875"/>
      <use xlink:href="#DejaVuSans-6e" x="1707.955078"/>
      <use xlink:href="#DejaVuSans-29" x="1771.333984"/>
     </g>
    </g>
   </g>
   <g id="legend_2">
    <g id="patch_12">
     <path d="M -105.07 171.459844 
L 32.85625 171.459844 
Q 35.05625 171.459844 35.05625 169.259844 
L 35.05625 137.100156 
Q 35.05625 134.900156 32.85625 134.900156 
L -105.07 134.900156 
Q -107.27 134.900156 -107.27 137.100156 
L -107.27 169.259844 
Q -107.27 171.459844 -105.07 171.459844 
z
" style="fill: #ffffff; opacity: 0.8; stroke: #cccccc; stroke-linejoin: miter"/>
    </g>
    <g id="text_22">
     <!-- iModulon experiments -->
     <g style="fill: #262626" transform="translate(-102.87 148.418281)scale(0.12 -0.12)">
      <use xlink:href="#DejaVuSans-69"/>
      <use xlink:href="#DejaVuSans-4d" x="27.783203"/>
      <use xlink:href="#DejaVuSans-6f" x="114.0625"/>
      <use xlink:href="#DejaVuSans-64" x="175.244141"/>
      <use xlink:href="#DejaVuSans-75" x="238.720703"/>
      <use xlink:href="#DejaVuSans-6c" x="302.099609"/>
      <use xlink:href="#DejaVuSans-6f" x="329.882812"/>
      <use xlink:href="#DejaVuSans-6e" x="391.064453"/>
      <use xlink:href="#DejaVuSans-20" x="454.443359"/>
      <use xlink:href="#DejaVuSans-65" x="486.230469"/>
      <use xlink:href="#DejaVuSans-78" x="546.003906"/>
      <use xlink:href="#DejaVuSans-70" x="605.183594"/>
      <use xlink:href="#DejaVuSans-65" x="668.660156"/>
      <use xlink:href="#DejaVuSans-72" x="730.183594"/>
      <use xlink:href="#DejaVuSans-69" x="771.296875"/>
      <use xlink:href="#DejaVuSans-6d" x="799.080078"/>
      <use xlink:href="#DejaVuSans-65" x="896.492188"/>
      <use xlink:href="#DejaVuSans-6e" x="958.015625"/>
      <use xlink:href="#DejaVuSans-74" x="1021.394531"/>
      <use xlink:href="#DejaVuSans-73" x="1060.603516"/>
     </g>
    </g>
    <g id="PathCollection_20">
     <defs>
      <path id="m6f136c8d08" style="stroke: #800080; stroke-width: 1.5"/>
     </defs>
     <g/>
    </g>
    <g id="text_23">
     <!-- ROS stress -->
     <g style="fill: #6b3286" transform="translate(-91.423125 164.772188)scale(0.11 -0.11)">
      <defs>
       <path id="DejaVuSans-53" d="M 3425 4513 
L 3425 3897 
Q 3066 4069 2747 4153 
Q 2428 4238 2131 4238 
Q 1616 4238 1336 4038 
Q 1056 3838 1056 3469 
Q 1056 3159 1242 3001 
Q 1428 2844 1947 2747 
L 2328 2669 
Q 3034 2534 3370 2195 
Q 3706 1856 3706 1288 
Q 3706 609 3251 259 
Q 2797 -91 1919 -91 
Q 1588 -91 1214 -16 
Q 841 59 441 206 
L 441 856 
Q 825 641 1194 531 
Q 1563 422 1919 422 
Q 2459 422 2753 634 
Q 3047 847 3047 1241 
Q 3047 1584 2836 1778 
Q 2625 1972 2144 2069 
L 1759 2144 
Q 1053 2284 737 2584 
Q 422 2884 422 3419 
Q 422 4038 858 4394 
Q 1294 4750 2059 4750 
Q 2388 4750 2728 4690 
Q 3069 4631 3425 4513 
z
" transform="scale(0.015625)"/>
      </defs>
      <use xlink:href="#DejaVuSans-52"/>
      <use xlink:href="#DejaVuSans-4f" x="69.482422"/>
      <use xlink:href="#DejaVuSans-53" x="148.193359"/>
      <use xlink:href="#DejaVuSans-20" x="211.669922"/>
      <use xlink:href="#DejaVuSans-73" x="243.457031"/>
      <use xlink:href="#DejaVuSans-74" x="295.556641"/>
      <use xlink:href="#DejaVuSans-72" x="334.765625"/>
      <use xlink:href="#DejaVuSans-65" x="373.628906"/>
      <use xlink:href="#DejaVuSans-73" x="435.152344"/>
      <use xlink:href="#DejaVuSans-73" x="487.251953"/>
     </g>
    </g>
    <g id="PathCollection_21">
     <defs>
      <path id="me91186f2c1" style="stroke: #4c72b0; stroke-width: 1.5"/>
     </defs>
     <g/>
    </g>
    <g id="text_24">
     <!-- other -->
     <g style="fill: #262626" transform="translate(-10.095313 164.772188)scale(0.11 -0.11)">
      <use xlink:href="#DejaVuSans-6f"/>
      <use xlink:href="#DejaVuSans-74" x="61.181641"/>
      <use xlink:href="#DejaVuSans-68" x="100.390625"/>
      <use xlink:href="#DejaVuSans-65" x="163.769531"/>
      <use xlink:href="#DejaVuSans-72" x="225.292969"/>
     </g>
    </g>
   </g>
  </g>
 </g>
 <defs>
  <clipPath id="p80a029f746">
   <rect x="63" y="17.28" width="390.6" height="108.72"/>
  </clipPath>
 </defs>
</svg>
