<?xml version="1.0" encoding="utf-8" standalone="no"?>
<!DOCTYPE svg PUBLIC "-//W3C//DTD SVG 1.1//EN"
  "http://www.w3.org/Graphics/SVG/1.1/DTD/svg11.dtd">
<svg xmlns:xlink="http://www.w3.org/1999/xlink" width="396pt" height="234pt" viewBox="0 0 396 234" xmlns="http://www.w3.org/2000/svg" version="1.1">
 <metadata>
  <rdf:RDF xmlns:dc="http://purl.org/dc/elements/1.1/" xmlns:cc="http://creativecommons.org/ns#" xmlns:rdf="http://www.w3.org/1999/02/22-rdf-syntax-ns#">
   <cc:Work>
    <dc:type rdf:resource="http://purl.org/dc/dcmitype/StillImage"/>
    <dc:date>2024-02-16T09:26:31.075560</dc:date>
    <dc:format>image/svg+xml</dc:format>
    <dc:creator>
     <cc:Agent>
      <dc:title>Matplotlib v3.5.1, https://matplotlib.org/</dc:title>
     </cc:Agent>
    </dc:creator>
   </cc:Work>
  </rdf:RDF>
 </metadata>
 <defs>
  <style type="text/css">*{stroke-linejoin: round; stroke-linecap: butt}</style>
 </defs>
 <g id="figure_1">
  <g id="patch_1">
   <path d="M 0 234 
L 396 234 
L 396 0 
L 0 0 
z
" style="fill: #ffffff"/>
  </g>
  <g id="axes_1">
   <g id="patch_2">
    <path d="M 49.5 204.75 
L 356.4 204.75 
L 356.4 28.08 
L 49.5 28.08 
z
" style="fill: #ffffff"/>
   </g>
   <g id="matplotlib.axis_1">
    <g id="xtick_1">
     <g id="text_1">
      <!-- 2mM H2O2 -->
      <g style="fill: #6b3286" transform="translate(34.500413 256.445771)rotate(-35)scale(0.11 -0.11)">
       <defs>
        <path id="DejaVuSans-32" d="M 1228 531 
L 3431 531 
L 3431 0 
L 469 0 
L 469 531 
Q 828 903 1448 1529 
Q 2069 2156 2228 2338 
Q 2531 2678 2651 2914 
Q 2772 3150 2772 3378 
Q 2772 3750 2511 3984 
Q 2250 4219 1831 4219 
Q 1534 4219 1204 4116 
Q 875 4013 500 3803 
L 500 4441 
Q 881 4594 1212 4672 
Q 1544 4750 1819 4750 
Q 2544 4750 2975 4387 
Q 3406 4025 3406 3419 
Q 3406 3131 3298 2873 
Q 3191 2616 2906 2266 
Q 2828 2175 2409 1742 
Q 1991 1309 1228 531 
z
" transform="scale(0.015625)"/>
        <path id="DejaVuSans-6d" d="M 3328 2828 
Q 3544 3216 3844 3400 
Q 4144 3584 4550 3584 
Q 5097 3584 5394 3201 
Q 5691 2819 5691 2113 
L 5691 0 
L 5113 0 
L 5113 2094 
Q 5113 2597 4934 2840 
Q 4756 3084 4391 3084 
Q 3944 3084 3684 2787 
Q 3425 2491 3425 1978 
L 3425 0 
L 2847 0 
L 2847 2094 
Q 2847 2600 2669 2842 
Q 2491 3084 2119 3084 
Q 1678 3084 1418 2786 
Q 1159 2488 1159 1978 
L 1159 0 
L 581 0 
L 581 3500 
L 1159 3500 
L 1159 2956 
Q 1356 3278 1631 3431 
Q 1906 3584 2284 3584 
Q 2666 3584 2933 3390 
Q 3200 3197 3328 2828 
z
" transform="scale(0.015625)"/>
        <path id="DejaVuSans-4d" d="M 628 4666 
L 1569 4666 
L 2759 1491 
L 3956 4666 
L 4897 4666 
L 4897 0 
L 4281 0 
L 4281 4097 
L 3078 897 
L 2444 897 
L 1241 4097 
L 1241 0 
L 628 0 
L 628 4666 
z
" transform="scale(0.015625)"/>
        <path id="DejaVuSans-20" transform="scale(0.015625)"/>
        <path id="DejaVuSans-48" d="M 628 4666 
L 1259 4666 
L 1259 2753 
L 3553 2753 
L 3553 4666 
L 4184 4666 
L 4184 0 
L 3553 0 
L 3553 2222 
L 1259 2222 
L 1259 0 
L 628 0 
L 628 4666 
z
" transform="scale(0.015625)"/>
        <path id="DejaVuSans-4f" d="M 2522 4238 
Q 1834 4238 1429 3725 
Q 1025 3213 1025 2328 
Q 1025 1447 1429 934 
Q 1834 422 2522 422 
Q 3209 422 3611 934 
Q 4013 1447 4013 2328 
Q 4013 3213 3611 3725 
Q 3209 4238 2522 4238 
z
M 2522 4750 
Q 3503 4750 4090 4092 
Q 4678 3434 4678 2328 
Q 4678 1225 4090 567 
Q 3503 -91 2522 -91 
Q 1538 -91 948 565 
Q 359 1222 359 2328 
Q 359 3434 948 4092 
Q 1538 4750 2522 4750 
z
" transform="scale(0.015625)"/>
       </defs>
       <use xlink:href="#DejaVuSans-32"/>
       <use xlink:href="#DejaVuSans-6d" x="63.623047"/>
       <use xlink:href="#DejaVuSans-4d" x="161.035156"/>
       <use xlink:href="#DejaVuSans-20" x="247.314453"/>
       <use xlink:href="#DejaVuSans-48" x="279.101562"/>
       <use xlink:href="#DejaVuSans-32" x="354.296875"/>
       <use xlink:href="#DejaVuSans-4f" x="417.919922"/>
       <use xlink:href="#DejaVuSans-32" x="496.630859"/>
      </g>
      <!-- (12 samples) -->
      <g style="fill: #6b3286" transform="translate(33.233438 272.369922)rotate(-35)scale(0.11 -0.11)">
       <defs>
        <path id="DejaVuSans-28" d="M 1984 4856 
Q 1566 4138 1362 3434 
Q 1159 2731 1159 2009 
Q 1159 1288 1364 580 
Q 1569 -128 1984 -844 
L 1484 -844 
Q 1016 -109 783 600 
Q 550 1309 550 2009 
Q 550 2706 781 3412 
Q 1013 4119 1484 4856 
L 1984 4856 
z
" transform="scale(0.015625)"/>
        <path id="DejaVuSans-31" d="M 794 531 
L 1825 531 
L 1825 4091 
L 703 3866 
L 703 4441 
L 1819 4666 
L 2450 4666 
L 2450 531 
L 3481 531 
L 3481 0 
L 794 0 
L 794 531 
z
" transform="scale(0.015625)"/>
        <path id="DejaVuSans-73" d="M 2834 3397 
L 2834 2853 
Q 2591 2978 2328 3040 
Q 2066 3103 1784 3103 
Q 1356 3103 1142 2972 
Q 928 2841 928 2578 
Q 928 2378 1081 2264 
Q 1234 2150 1697 2047 
L 1894 2003 
Q 2506 1872 2764 1633 
Q 3022 1394 3022 966 
Q 3022 478 2636 193 
Q 2250 -91 1575 -91 
Q 1294 -91 989 -36 
Q 684 19 347 128 
L 347 722 
Q 666 556 975 473 
Q 1284 391 1588 391 
Q 1994 391 2212 530 
Q 2431 669 2431 922 
Q 2431 1156 2273 1281 
Q 2116 1406 1581 1522 
L 1381 1569 
Q 847 1681 609 1914 
Q 372 2147 372 2553 
Q 372 3047 722 3315 
Q 1072 3584 1716 3584 
Q 2034 3584 2315 3537 
Q 2597 3491 2834 3397 
z
" transform="scale(0.015625)"/>
        <path id="DejaVuSans-61" d="M 2194 1759 
Q 1497 1759 1228 1600 
Q 959 1441 959 1056 
Q 959 750 1161 570 
Q 1363 391 1709 391 
Q 2188 391 2477 730 
Q 2766 1069 2766 1631 
L 2766 1759 
L 2194 1759 
z
M 3341 1997 
L 3341 0 
L 2766 0 
L 2766 531 
Q 2569 213 2275 61 
Q 1981 -91 1556 -91 
Q 1019 -91 701 211 
Q 384 513 384 1019 
Q 384 1609 779 1909 
Q 1175 2209 1959 2209 
L 2766 2209 
L 2766 2266 
Q 2766 2663 2505 2880 
Q 2244 3097 1772 3097 
Q 1472 3097 1187 3025 
Q 903 2953 641 2809 
L 641 3341 
Q 956 3463 1253 3523 
Q 1550 3584 1831 3584 
Q 2591 3584 2966 3190 
Q 3341 2797 3341 1997 
z
" transform="scale(0.015625)"/>
        <path id="DejaVuSans-70" d="M 1159 525 
L 1159 -1331 
L 581 -1331 
L 581 3500 
L 1159 3500 
L 1159 2969 
Q 1341 3281 1617 3432 
Q 1894 3584 2278 3584 
Q 2916 3584 3314 3078 
Q 3713 2572 3713 1747 
Q 3713 922 3314 415 
Q 2916 -91 2278 -91 
Q 1894 -91 1617 61 
Q 1341 213 1159 525 
z
M 3116 1747 
Q 3116 2381 2855 2742 
Q 2594 3103 2138 3103 
Q 1681 3103 1420 2742 
Q 1159 2381 1159 1747 
Q 1159 1113 1420 752 
Q 1681 391 2138 391 
Q 2594 391 2855 752 
Q 3116 1113 3116 1747 
z
" transform="scale(0.015625)"/>
        <path id="DejaVuSans-6c" d="M 603 4863 
L 1178 4863 
L 1178 0 
L 603 0 
L 603 4863 
z
" transform="scale(0.015625)"/>
        <path id="DejaVuSans-65" d="M 3597 1894 
L 3597 1613 
L 953 1613 
Q 991 1019 1311 708 
Q 1631 397 2203 397 
Q 2534 397 2845 478 
Q 3156 559 3463 722 
L 3463 178 
Q 3153 47 2828 -22 
Q 2503 -91 2169 -91 
Q 1331 -91 842 396 
Q 353 884 353 1716 
Q 353 2575 817 3079 
Q 1281 3584 2069 3584 
Q 2775 3584 3186 3129 
Q 3597 2675 3597 1894 
z
M 3022 2063 
Q 3016 2534 2758 2815 
Q 2500 3097 2075 3097 
Q 1594 3097 1305 2825 
Q 1016 2553 972 2059 
L 3022 2063 
z
" transform="scale(0.015625)"/>
        <path id="DejaVuSans-29" d="M 513 4856 
L 1013 4856 
Q 1481 4119 1714 3412 
Q 1947 2706 1947 2009 
Q 1947 1309 1714 600 
Q 1481 -109 1013 -844 
L 513 -844 
Q 928 -128 1133 580 
Q 1338 1288 1338 2009 
Q 1338 2731 1133 3434 
Q 928 4138 513 4856 
z
" transform="scale(0.015625)"/>
       </defs>
       <use xlink:href="#DejaVuSans-28"/>
       <use xlink:href="#DejaVuSans-31" x="39.013672"/>
       <use xlink:href="#DejaVuSans-32" x="102.636719"/>
       <use xlink:href="#DejaVuSans-20" x="166.259766"/>
       <use xlink:href="#DejaVuSans-73" x="198.046875"/>
       <use xlink:href="#DejaVuSans-61" x="250.146484"/>
       <use xlink:href="#DejaVuSans-6d" x="311.425781"/>
       <use xlink:href="#DejaVuSans-70" x="408.837891"/>
       <use xlink:href="#DejaVuSans-6c" x="472.314453"/>
       <use xlink:href="#DejaVuSans-65" x="500.097656"/>
       <use xlink:href="#DejaVuSans-73" x="561.621094"/>
       <use xlink:href="#DejaVuSans-29" x="613.720703"/>
      </g>
     </g>
    </g>
    <g id="xtick_2">
     <g id="text_2">
      <!-- 250uM paraquat -->
      <g style="fill: #6b3286" transform="translate(71.862747 273.263122)rotate(-35)scale(0.11 -0.11)">
       <defs>
        <path id="DejaVuSans-35" d="M 691 4666 
L 3169 4666 
L 3169 4134 
L 1269 4134 
L 1269 2991 
Q 1406 3038 1543 3061 
Q 1681 3084 1819 3084 
Q 2600 3084 3056 2656 
Q 3513 2228 3513 1497 
Q 3513 744 3044 326 
Q 2575 -91 1722 -91 
Q 1428 -91 1123 -41 
Q 819 9 494 109 
L 494 744 
Q 775 591 1075 516 
Q 1375 441 1709 441 
Q 2250 441 2565 725 
Q 2881 1009 2881 1497 
Q 2881 1984 2565 2268 
Q 2250 2553 1709 2553 
Q 1456 2553 1204 2497 
Q 953 2441 691 2322 
L 691 4666 
z
" transform="scale(0.015625)"/>
        <path id="DejaVuSans-30" d="M 2034 4250 
Q 1547 4250 1301 3770 
Q 1056 3291 1056 2328 
Q 1056 1369 1301 889 
Q 1547 409 2034 409 
Q 2525 409 2770 889 
Q 3016 1369 3016 2328 
Q 3016 3291 2770 3770 
Q 2525 4250 2034 4250 
z
M 2034 4750 
Q 2819 4750 3233 4129 
Q 3647 3509 3647 2328 
Q 3647 1150 3233 529 
Q 2819 -91 2034 -91 
Q 1250 -91 836 529 
Q 422 1150 422 2328 
Q 422 3509 836 4129 
Q 1250 4750 2034 4750 
z
" transform="scale(0.015625)"/>
        <path id="DejaVuSans-75" d="M 544 1381 
L 544 3500 
L 1119 3500 
L 1119 1403 
Q 1119 906 1312 657 
Q 1506 409 1894 409 
Q 2359 409 2629 706 
Q 2900 1003 2900 1516 
L 2900 3500 
L 3475 3500 
L 3475 0 
L 2900 0 
L 2900 538 
Q 2691 219 2414 64 
Q 2138 -91 1772 -91 
Q 1169 -91 856 284 
Q 544 659 544 1381 
z
M 1991 3584 
L 1991 3584 
z
" transform="scale(0.015625)"/>
        <path id="DejaVuSans-72" d="M 2631 2963 
Q 2534 3019 2420 3045 
Q 2306 3072 2169 3072 
Q 1681 3072 1420 2755 
Q 1159 2438 1159 1844 
L 1159 0 
L 581 0 
L 581 3500 
L 1159 3500 
L 1159 2956 
Q 1341 3275 1631 3429 
Q 1922 3584 2338 3584 
Q 2397 3584 2469 3576 
Q 2541 3569 2628 3553 
L 2631 2963 
z
" transform="scale(0.015625)"/>
        <path id="DejaVuSans-71" d="M 947 1747 
Q 947 1113 1208 752 
Q 1469 391 1925 391 
Q 2381 391 2643 752 
Q 2906 1113 2906 1747 
Q 2906 2381 2643 2742 
Q 2381 3103 1925 3103 
Q 1469 3103 1208 2742 
Q 947 2381 947 1747 
z
M 2906 525 
Q 2725 213 2448 61 
Q 2172 -91 1784 -91 
Q 1150 -91 751 415 
Q 353 922 353 1747 
Q 353 2572 751 3078 
Q 1150 3584 1784 3584 
Q 2172 3584 2448 3432 
Q 2725 3281 2906 2969 
L 2906 3500 
L 3481 3500 
L 3481 -1331 
L 2906 -1331 
L 2906 525 
z
" transform="scale(0.015625)"/>
        <path id="DejaVuSans-74" d="M 1172 4494 
L 1172 3500 
L 2356 3500 
L 2356 3053 
L 1172 3053 
L 1172 1153 
Q 1172 725 1289 603 
Q 1406 481 1766 481 
L 2356 481 
L 2356 0 
L 1766 0 
Q 1100 0 847 248 
Q 594 497 594 1153 
L 594 3053 
L 172 3053 
L 172 3500 
L 594 3500 
L 594 4494 
L 1172 4494 
z
" transform="scale(0.015625)"/>
       </defs>
       <use xlink:href="#DejaVuSans-32"/>
       <use xlink:href="#DejaVuSans-35" x="63.623047"/>
       <use xlink:href="#DejaVuSans-30" x="127.246094"/>
       <use xlink:href="#DejaVuSans-75" x="190.869141"/>
       <use xlink:href="#DejaVuSans-4d" x="254.248047"/>
       <use xlink:href="#DejaVuSans-20" x="340.527344"/>
       <use xlink:href="#DejaVuSans-70" x="372.314453"/>
       <use xlink:href="#DejaVuSans-61" x="435.791016"/>
       <use xlink:href="#DejaVuSans-72" x="497.070312"/>
       <use xlink:href="#DejaVuSans-61" x="538.183594"/>
       <use xlink:href="#DejaVuSans-71" x="599.462891"/>
       <use xlink:href="#DejaVuSans-75" x="662.939453"/>
       <use xlink:href="#DejaVuSans-61" x="726.318359"/>
       <use xlink:href="#DejaVuSans-74" x="787.597656"/>
      </g>
      <!-- (36 samples) -->
      <g style="fill: #6b3286" transform="translate(94.613438 272.369922)rotate(-35)scale(0.11 -0.11)">
       <defs>
        <path id="DejaVuSans-33" d="M 2597 2516 
Q 3050 2419 3304 2112 
Q 3559 1806 3559 1356 
Q 3559 666 3084 287 
Q 2609 -91 1734 -91 
Q 1441 -91 1130 -33 
Q 819 25 488 141 
L 488 750 
Q 750 597 1062 519 
Q 1375 441 1716 441 
Q 2309 441 2620 675 
Q 2931 909 2931 1356 
Q 2931 1769 2642 2001 
Q 2353 2234 1838 2234 
L 1294 2234 
L 1294 2753 
L 1863 2753 
Q 2328 2753 2575 2939 
Q 2822 3125 2822 3475 
Q 2822 3834 2567 4026 
Q 2313 4219 1838 4219 
Q 1578 4219 1281 4162 
Q 984 4106 628 3988 
L 628 4550 
Q 988 4650 1302 4700 
Q 1616 4750 1894 4750 
Q 2613 4750 3031 4423 
Q 3450 4097 3450 3541 
Q 3450 3153 3228 2886 
Q 3006 2619 2597 2516 
z
" transform="scale(0.015625)"/>
        <path id="DejaVuSans-36" d="M 2113 2584 
Q 1688 2584 1439 2293 
Q 1191 2003 1191 1497 
Q 1191 994 1439 701 
Q 1688 409 2113 409 
Q 2538 409 2786 701 
Q 3034 994 3034 1497 
Q 3034 2003 2786 2293 
Q 2538 2584 2113 2584 
z
M 3366 4563 
L 3366 3988 
Q 3128 4100 2886 4159 
Q 2644 4219 2406 4219 
Q 1781 4219 1451 3797 
Q 1122 3375 1075 2522 
Q 1259 2794 1537 2939 
Q 1816 3084 2150 3084 
Q 2853 3084 3261 2657 
Q 3669 2231 3669 1497 
Q 3669 778 3244 343 
Q 2819 -91 2113 -91 
Q 1303 -91 875 529 
Q 447 1150 447 2328 
Q 447 3434 972 4092 
Q 1497 4750 2381 4750 
Q 2619 4750 2861 4703 
Q 3103 4656 3366 4563 
z
" transform="scale(0.015625)"/>
       </defs>
       <use xlink:href="#DejaVuSans-28"/>
       <use xlink:href="#DejaVuSans-33" x="39.013672"/>
       <use xlink:href="#DejaVuSans-36" x="102.636719"/>
       <use xlink:href="#DejaVuSans-20" x="166.259766"/>
       <use xlink:href="#DejaVuSans-73" x="198.046875"/>
       <use xlink:href="#DejaVuSans-61" x="250.146484"/>
       <use xlink:href="#DejaVuSans-6d" x="311.425781"/>
       <use xlink:href="#DejaVuSans-70" x="408.837891"/>
       <use xlink:href="#DejaVuSans-6c" x="472.314453"/>
       <use xlink:href="#DejaVuSans-65" x="500.097656"/>
       <use xlink:href="#DejaVuSans-73" x="561.621094"/>
       <use xlink:href="#DejaVuSans-29" x="613.720703"/>
      </g>
     </g>
    </g>
    <g id="xtick_3">
     <g id="text_3">
      <!-- 750uM paraquat -->
      <g style="fill: #6b3286" transform="translate(133.242747 273.263122)rotate(-35)scale(0.11 -0.11)">
       <defs>
        <path id="DejaVuSans-37" d="M 525 4666 
L 3525 4666 
L 3525 4397 
L 1831 0 
L 1172 0 
L 2766 4134 
L 525 4134 
L 525 4666 
z
" transform="scale(0.015625)"/>
       </defs>
       <use xlink:href="#DejaVuSans-37"/>
       <use xlink:href="#DejaVuSans-35" x="63.623047"/>
       <use xlink:href="#DejaVuSans-30" x="127.246094"/>
       <use xlink:href="#DejaVuSans-75" x="190.869141"/>
       <use xlink:href="#DejaVuSans-4d" x="254.248047"/>
       <use xlink:href="#DejaVuSans-20" x="340.527344"/>
       <use xlink:href="#DejaVuSans-70" x="372.314453"/>
       <use xlink:href="#DejaVuSans-61" x="435.791016"/>
       <use xlink:href="#DejaVuSans-72" x="497.070312"/>
       <use xlink:href="#DejaVuSans-61" x="538.183594"/>
       <use xlink:href="#DejaVuSans-71" x="599.462891"/>
       <use xlink:href="#DejaVuSans-75" x="662.939453"/>
       <use xlink:href="#DejaVuSans-61" x="726.318359"/>
       <use xlink:href="#DejaVuSans-74" x="787.597656"/>
      </g>
      <!-- (31 samples) -->
      <g style="fill: #6b3286" transform="translate(155.993438 272.369922)rotate(-35)scale(0.11 -0.11)">
       <use xlink:href="#DejaVuSans-28"/>
       <use xlink:href="#DejaVuSans-33" x="39.013672"/>
       <use xlink:href="#DejaVuSans-31" x="102.636719"/>
       <use xlink:href="#DejaVuSans-20" x="166.259766"/>
       <use xlink:href="#DejaVuSans-73" x="198.046875"/>
       <use xlink:href="#DejaVuSans-61" x="250.146484"/>
       <use xlink:href="#DejaVuSans-6d" x="311.425781"/>
       <use xlink:href="#DejaVuSans-70" x="408.837891"/>
       <use xlink:href="#DejaVuSans-6c" x="472.314453"/>
       <use xlink:href="#DejaVuSans-65" x="500.097656"/>
       <use xlink:href="#DejaVuSans-73" x="561.621094"/>
       <use xlink:href="#DejaVuSans-29" x="613.720703"/>
      </g>
     </g>
    </g>
    <g id="xtick_4">
     <g id="text_4">
      <!-- none (control, -->
      <g style="fill: #6b3286" transform="translate(206.173303 265.175335)rotate(-35)scale(0.11 -0.11)">
       <defs>
        <path id="DejaVuSans-6e" d="M 3513 2113 
L 3513 0 
L 2938 0 
L 2938 2094 
Q 2938 2591 2744 2837 
Q 2550 3084 2163 3084 
Q 1697 3084 1428 2787 
Q 1159 2491 1159 1978 
L 1159 0 
L 581 0 
L 581 3500 
L 1159 3500 
L 1159 2956 
Q 1366 3272 1645 3428 
Q 1925 3584 2291 3584 
Q 2894 3584 3203 3211 
Q 3513 2838 3513 2113 
z
" transform="scale(0.015625)"/>
        <path id="DejaVuSans-6f" d="M 1959 3097 
Q 1497 3097 1228 2736 
Q 959 2375 959 1747 
Q 959 1119 1226 758 
Q 1494 397 1959 397 
Q 2419 397 2687 759 
Q 2956 1122 2956 1747 
Q 2956 2369 2687 2733 
Q 2419 3097 1959 3097 
z
M 1959 3584 
Q 2709 3584 3137 3096 
Q 3566 2609 3566 1747 
Q 3566 888 3137 398 
Q 2709 -91 1959 -91 
Q 1206 -91 779 398 
Q 353 888 353 1747 
Q 353 2609 779 3096 
Q 1206 3584 1959 3584 
z
" transform="scale(0.015625)"/>
        <path id="DejaVuSans-63" d="M 3122 3366 
L 3122 2828 
Q 2878 2963 2633 3030 
Q 2388 3097 2138 3097 
Q 1578 3097 1268 2742 
Q 959 2388 959 1747 
Q 959 1106 1268 751 
Q 1578 397 2138 397 
Q 2388 397 2633 464 
Q 2878 531 3122 666 
L 3122 134 
Q 2881 22 2623 -34 
Q 2366 -91 2075 -91 
Q 1284 -91 818 406 
Q 353 903 353 1747 
Q 353 2603 823 3093 
Q 1294 3584 2113 3584 
Q 2378 3584 2631 3529 
Q 2884 3475 3122 3366 
z
" transform="scale(0.015625)"/>
        <path id="DejaVuSans-2c" d="M 750 794 
L 1409 794 
L 1409 256 
L 897 -744 
L 494 -744 
L 750 256 
L 750 794 
z
" transform="scale(0.015625)"/>
       </defs>
       <use xlink:href="#DejaVuSans-6e"/>
       <use xlink:href="#DejaVuSans-6f" x="63.378906"/>
       <use xlink:href="#DejaVuSans-6e" x="124.560547"/>
       <use xlink:href="#DejaVuSans-65" x="187.939453"/>
       <use xlink:href="#DejaVuSans-20" x="249.462891"/>
       <use xlink:href="#DejaVuSans-28" x="281.25"/>
       <use xlink:href="#DejaVuSans-63" x="320.263672"/>
       <use xlink:href="#DejaVuSans-6f" x="375.244141"/>
       <use xlink:href="#DejaVuSans-6e" x="436.425781"/>
       <use xlink:href="#DejaVuSans-74" x="499.804688"/>
       <use xlink:href="#DejaVuSans-72" x="539.013672"/>
       <use xlink:href="#DejaVuSans-6f" x="577.876953"/>
       <use xlink:href="#DejaVuSans-6c" x="639.058594"/>
       <use xlink:href="#DejaVuSans-2c" x="666.841797"/>
      </g>
      <!-- 46 samples) -->
      <g style="fill: #6b3286" transform="translate(220.889008 269.908293)rotate(-35)scale(0.11 -0.11)">
       <defs>
        <path id="DejaVuSans-34" d="M 2419 4116 
L 825 1625 
L 2419 1625 
L 2419 4116 
z
M 2253 4666 
L 3047 4666 
L 3047 1625 
L 3713 1625 
L 3713 1100 
L 3047 1100 
L 3047 0 
L 2419 0 
L 2419 1100 
L 313 1100 
L 313 1709 
L 2253 4666 
z
" transform="scale(0.015625)"/>
       </defs>
       <use xlink:href="#DejaVuSans-34"/>
       <use xlink:href="#DejaVuSans-36" x="63.623047"/>
       <use xlink:href="#DejaVuSans-20" x="127.246094"/>
       <use xlink:href="#DejaVuSans-73" x="159.033203"/>
       <use xlink:href="#DejaVuSans-61" x="211.132812"/>
       <use xlink:href="#DejaVuSans-6d" x="272.412109"/>
       <use xlink:href="#DejaVuSans-70" x="369.824219"/>
       <use xlink:href="#DejaVuSans-6c" x="433.300781"/>
       <use xlink:href="#DejaVuSans-65" x="461.083984"/>
       <use xlink:href="#DejaVuSans-73" x="522.607422"/>
       <use xlink:href="#DejaVuSans-29" x="574.707031"/>
      </g>
     </g>
    </g>
    <g id="xtick_5">
     <g id="text_5">
      <!-- all other iModulon -->
      <g style="fill: #262626" transform="translate(249.294019 277.960623)rotate(-35)scale(0.11 -0.11)">
       <defs>
        <path id="DejaVuSans-68" d="M 3513 2113 
L 3513 0 
L 2938 0 
L 2938 2094 
Q 2938 2591 2744 2837 
Q 2550 3084 2163 3084 
Q 1697 3084 1428 2787 
Q 1159 2491 1159 1978 
L 1159 0 
L 581 0 
L 581 4863 
L 1159 4863 
L 1159 2956 
Q 1366 3272 1645 3428 
Q 1925 3584 2291 3584 
Q 2894 3584 3203 3211 
Q 3513 2838 3513 2113 
z
" transform="scale(0.015625)"/>
        <path id="DejaVuSans-69" d="M 603 3500 
L 1178 3500 
L 1178 0 
L 603 0 
L 603 3500 
z
M 603 4863 
L 1178 4863 
L 1178 4134 
L 603 4134 
L 603 4863 
z
" transform="scale(0.015625)"/>
        <path id="DejaVuSans-64" d="M 2906 2969 
L 2906 4863 
L 3481 4863 
L 3481 0 
L 2906 0 
L 2906 525 
Q 2725 213 2448 61 
Q 2172 -91 1784 -91 
Q 1150 -91 751 415 
Q 353 922 353 1747 
Q 353 2572 751 3078 
Q 1150 3584 1784 3584 
Q 2172 3584 2448 3432 
Q 2725 3281 2906 2969 
z
M 947 1747 
Q 947 1113 1208 752 
Q 1469 391 1925 391 
Q 2381 391 2643 752 
Q 2906 1113 2906 1747 
Q 2906 2381 2643 2742 
Q 2381 3103 1925 3103 
Q 1469 3103 1208 2742 
Q 947 2381 947 1747 
z
" transform="scale(0.015625)"/>
       </defs>
       <use xlink:href="#DejaVuSans-61"/>
       <use xlink:href="#DejaVuSans-6c" x="61.279297"/>
       <use xlink:href="#DejaVuSans-6c" x="89.0625"/>
       <use xlink:href="#DejaVuSans-20" x="116.845703"/>
       <use xlink:href="#DejaVuSans-6f" x="148.632812"/>
       <use xlink:href="#DejaVuSans-74" x="209.814453"/>
       <use xlink:href="#DejaVuSans-68" x="249.023438"/>
       <use xlink:href="#DejaVuSans-65" x="312.402344"/>
       <use xlink:href="#DejaVuSans-72" x="373.925781"/>
       <use xlink:href="#DejaVuSans-20" x="415.039062"/>
       <use xlink:href="#DejaVuSans-69" x="446.826172"/>
       <use xlink:href="#DejaVuSans-4d" x="474.609375"/>
       <use xlink:href="#DejaVuSans-6f" x="560.888672"/>
       <use xlink:href="#DejaVuSans-64" x="622.070312"/>
       <use xlink:href="#DejaVuSans-75" x="685.546875"/>
       <use xlink:href="#DejaVuSans-6c" x="748.925781"/>
       <use xlink:href="#DejaVuSans-6f" x="776.708984"/>
       <use xlink:href="#DejaVuSans-6e" x="837.890625"/>
      </g>
      <!-- samples (922) -->
      <g style="fill: #262626" transform="translate(273.020398 276.38424)rotate(-35)scale(0.11 -0.11)">
       <defs>
        <path id="DejaVuSans-39" d="M 703 97 
L 703 672 
Q 941 559 1184 500 
Q 1428 441 1663 441 
Q 2288 441 2617 861 
Q 2947 1281 2994 2138 
Q 2813 1869 2534 1725 
Q 2256 1581 1919 1581 
Q 1219 1581 811 2004 
Q 403 2428 403 3163 
Q 403 3881 828 4315 
Q 1253 4750 1959 4750 
Q 2769 4750 3195 4129 
Q 3622 3509 3622 2328 
Q 3622 1225 3098 567 
Q 2575 -91 1691 -91 
Q 1453 -91 1209 -44 
Q 966 3 703 97 
z
M 1959 2075 
Q 2384 2075 2632 2365 
Q 2881 2656 2881 3163 
Q 2881 3666 2632 3958 
Q 2384 4250 1959 4250 
Q 1534 4250 1286 3958 
Q 1038 3666 1038 3163 
Q 1038 2656 1286 2365 
Q 1534 2075 1959 2075 
z
" transform="scale(0.015625)"/>
       </defs>
       <use xlink:href="#DejaVuSans-73"/>
       <use xlink:href="#DejaVuSans-61" x="52.099609"/>
       <use xlink:href="#DejaVuSans-6d" x="113.378906"/>
       <use xlink:href="#DejaVuSans-70" x="210.791016"/>
       <use xlink:href="#DejaVuSans-6c" x="274.267578"/>
       <use xlink:href="#DejaVuSans-65" x="302.050781"/>
       <use xlink:href="#DejaVuSans-73" x="363.574219"/>
       <use xlink:href="#DejaVuSans-20" x="415.673828"/>
       <use xlink:href="#DejaVuSans-28" x="447.460938"/>
       <use xlink:href="#DejaVuSans-39" x="486.474609"/>
       <use xlink:href="#DejaVuSans-32" x="550.097656"/>
       <use xlink:href="#DejaVuSans-32" x="613.720703"/>
       <use xlink:href="#DejaVuSans-29" x="677.34375"/>
      </g>
     </g>
    </g>
    <g id="text_6">
     <!-- iModulon experiment -->
     <g style="fill: #262626" transform="translate(139.3125 303.042668)scale(0.12 -0.12)">
      <defs>
       <path id="DejaVuSans-78" d="M 3513 3500 
L 2247 1797 
L 3578 0 
L 2900 0 
L 1881 1375 
L 863 0 
L 184 0 
L 1544 1831 
L 300 3500 
L 978 3500 
L 1906 2253 
L 2834 3500 
L 3513 3500 
z
" transform="scale(0.015625)"/>
      </defs>
      <use xlink:href="#DejaVuSans-69"/>
      <use xlink:href="#DejaVuSans-4d" x="27.783203"/>
      <use xlink:href="#DejaVuSans-6f" x="114.0625"/>
      <use xlink:href="#DejaVuSans-64" x="175.244141"/>
      <use xlink:href="#DejaVuSans-75" x="238.720703"/>
      <use xlink:href="#DejaVuSans-6c" x="302.099609"/>
      <use xlink:href="#DejaVuSans-6f" x="329.882812"/>
      <use xlink:href="#DejaVuSans-6e" x="391.064453"/>
      <use xlink:href="#DejaVuSans-20" x="454.443359"/>
      <use xlink:href="#DejaVuSans-65" x="486.230469"/>
      <use xlink:href="#DejaVuSans-78" x="546.003906"/>
      <use xlink:href="#DejaVuSans-70" x="605.183594"/>
      <use xlink:href="#DejaVuSans-65" x="668.660156"/>
      <use xlink:href="#DejaVuSans-72" x="730.183594"/>
      <use xlink:href="#DejaVuSans-69" x="771.296875"/>
      <use xlink:href="#DejaVuSans-6d" x="799.080078"/>
      <use xlink:href="#DejaVuSans-65" x="896.492188"/>
      <use xlink:href="#DejaVuSans-6e" x="958.015625"/>
      <use xlink:href="#DejaVuSans-74" x="1021.394531"/>
     </g>
    </g>
   </g>
   <g id="matplotlib.axis_2">
    <g id="ytick_1">
     <g id="line2d_1">
      <path d="M 49.5 184.183986 
L 356.4 184.183986 
" clip-path="url(#pfc4886251c)" style="fill: none; stroke: #cccccc; stroke-linecap: round"/>
     </g>
     <g id="text_7">
      <!-- −5 -->
      <g style="fill: #262626" transform="translate(23.783594 188.363127)scale(0.11 -0.11)">
       <defs>
        <path id="DejaVuSans-2212" d="M 678 2272 
L 4684 2272 
L 4684 1741 
L 678 1741 
L 678 2272 
z
" transform="scale(0.015625)"/>
       </defs>
       <use xlink:href="#DejaVuSans-2212"/>
       <use xlink:href="#DejaVuSans-35" x="83.789062"/>
      </g>
     </g>
    </g>
    <g id="ytick_2">
     <g id="line2d_2">
      <path d="M 49.5 155.93761 
L 356.4 155.93761 
" clip-path="url(#pfc4886251c)" style="fill: none; stroke: #cccccc; stroke-linecap: round"/>
     </g>
     <g id="text_8">
      <!-- 0 -->
      <g style="fill: #262626" transform="translate(33.00125 160.11675)scale(0.11 -0.11)">
       <use xlink:href="#DejaVuSans-30"/>
      </g>
     </g>
    </g>
    <g id="ytick_3">
     <g id="line2d_3">
      <path d="M 49.5 127.691233 
L 356.4 127.691233 
" clip-path="url(#pfc4886251c)" style="fill: none; stroke: #cccccc; stroke-linecap: round"/>
     </g>
     <g id="text_9">
      <!-- 5 -->
      <g style="fill: #262626" transform="translate(33.00125 131.870374)scale(0.11 -0.11)">
       <use xlink:href="#DejaVuSans-35"/>
      </g>
     </g>
    </g>
    <g id="ytick_4">
     <g id="line2d_4">
      <path d="M 49.5 99.444857 
L 356.4 99.444857 
" clip-path="url(#pfc4886251c)" style="fill: none; stroke: #cccccc; stroke-linecap: round"/>
     </g>
     <g id="text_10">
      <!-- 10 -->
      <g style="fill: #262626" transform="translate(26.0025 103.623998)scale(0.11 -0.11)">
       <use xlink:href="#DejaVuSans-31"/>
       <use xlink:href="#DejaVuSans-30" x="63.623047"/>
      </g>
     </g>
    </g>
    <g id="ytick_5">
     <g id="line2d_5">
      <path d="M 49.5 71.198481 
L 356.4 71.198481 
" clip-path="url(#pfc4886251c)" style="fill: none; stroke: #cccccc; stroke-linecap: round"/>
     </g>
     <g id="text_11">
      <!-- 15 -->
      <g style="fill: #262626" transform="translate(26.0025 75.377621)scale(0.11 -0.11)">
       <use xlink:href="#DejaVuSans-31"/>
       <use xlink:href="#DejaVuSans-35" x="63.623047"/>
      </g>
     </g>
    </g>
    <g id="ytick_6">
     <g id="line2d_6">
      <path d="M 49.5 42.952104 
L 356.4 42.952104 
" clip-path="url(#pfc4886251c)" style="fill: none; stroke: #cccccc; stroke-linecap: round"/>
     </g>
     <g id="text_12">
      <!-- 20 -->
      <g style="fill: #262626" transform="translate(26.0025 47.131245)scale(0.11 -0.11)">
       <use xlink:href="#DejaVuSans-32"/>
       <use xlink:href="#DejaVuSans-30" x="63.623047"/>
      </g>
     </g>
    </g>
    <g id="text_13">
     <!-- OxyR iModulon activity -->
     <g style="fill: #262626" transform="translate(17.287969 185.607188)rotate(-90)scale(0.12 -0.12)">
      <defs>
       <path id="DejaVuSans-79" d="M 2059 -325 
Q 1816 -950 1584 -1140 
Q 1353 -1331 966 -1331 
L 506 -1331 
L 506 -850 
L 844 -850 
Q 1081 -850 1212 -737 
Q 1344 -625 1503 -206 
L 1606 56 
L 191 3500 
L 800 3500 
L 1894 763 
L 2988 3500 
L 3597 3500 
L 2059 -325 
z
" transform="scale(0.015625)"/>
       <path id="DejaVuSans-52" d="M 2841 2188 
Q 3044 2119 3236 1894 
Q 3428 1669 3622 1275 
L 4263 0 
L 3584 0 
L 2988 1197 
Q 2756 1666 2539 1819 
Q 2322 1972 1947 1972 
L 1259 1972 
L 1259 0 
L 628 0 
L 628 4666 
L 2053 4666 
Q 2853 4666 3247 4331 
Q 3641 3997 3641 3322 
Q 3641 2881 3436 2590 
Q 3231 2300 2841 2188 
z
M 1259 4147 
L 1259 2491 
L 2053 2491 
Q 2509 2491 2742 2702 
Q 2975 2913 2975 3322 
Q 2975 3731 2742 3939 
Q 2509 4147 2053 4147 
L 1259 4147 
z
" transform="scale(0.015625)"/>
       <path id="DejaVuSans-76" d="M 191 3500 
L 800 3500 
L 1894 563 
L 2988 3500 
L 3597 3500 
L 2284 0 
L 1503 0 
L 191 3500 
z
" transform="scale(0.015625)"/>
      </defs>
      <use xlink:href="#DejaVuSans-4f"/>
      <use xlink:href="#DejaVuSans-78" x="78.710938"/>
      <use xlink:href="#DejaVuSans-79" x="137.890625"/>
      <use xlink:href="#DejaVuSans-52" x="197.070312"/>
      <use xlink:href="#DejaVuSans-20" x="266.552734"/>
      <use xlink:href="#DejaVuSans-69" x="298.339844"/>
      <use xlink:href="#DejaVuSans-4d" x="326.123047"/>
      <use xlink:href="#DejaVuSans-6f" x="412.402344"/>
      <use xlink:href="#DejaVuSans-64" x="473.583984"/>
      <use xlink:href="#DejaVuSans-75" x="537.060547"/>
      <use xlink:href="#DejaVuSans-6c" x="600.439453"/>
      <use xlink:href="#DejaVuSans-6f" x="628.222656"/>
      <use xlink:href="#DejaVuSans-6e" x="689.404297"/>
      <use xlink:href="#DejaVuSans-20" x="752.783203"/>
      <use xlink:href="#DejaVuSans-61" x="784.570312"/>
      <use xlink:href="#DejaVuSans-63" x="845.849609"/>
      <use xlink:href="#DejaVuSans-74" x="900.830078"/>
      <use xlink:href="#DejaVuSans-69" x="940.039062"/>
      <use xlink:href="#DejaVuSans-76" x="967.822266"/>
      <use xlink:href="#DejaVuSans-69" x="1027.001953"/>
      <use xlink:href="#DejaVuSans-74" x="1054.785156"/>
      <use xlink:href="#DejaVuSans-79" x="1093.994141"/>
     </g>
    </g>
   </g>
   <g id="patch_3">
    <path d="M 55.638 161.723791 
L 104.742 161.723791 
L 104.742 154.58529 
L 55.638 154.58529 
L 55.638 161.723791 
L 55.638 161.723791 
z
" clip-path="url(#pfc4886251c)" style="fill: none; stroke: #7f7f7f; stroke-width: 1.5; stroke-linejoin: miter"/>
   </g>
   <g id="patch_4">
    <path d="M 117.018 162.043324 
L 166.122 162.043324 
L 166.122 135.971353 
L 117.018 135.971353 
L 117.018 162.043324 
L 117.018 162.043324 
z
" clip-path="url(#pfc4886251c)" style="fill: none; stroke: #7f7f7f; stroke-width: 1.5; stroke-linejoin: miter"/>
   </g>
   <g id="patch_5">
    <path d="M 178.398 161.147686 
L 227.502 161.147686 
L 227.502 124.995909 
L 178.398 124.995909 
L 178.398 161.147686 
L 178.398 161.147686 
z
" clip-path="url(#pfc4886251c)" style="fill: none; stroke: #7f7f7f; stroke-width: 1.5; stroke-linejoin: miter"/>
   </g>
   <g id="patch_6">
    <path d="M 239.778 174.28545 
L 288.882 174.28545 
L 288.882 158.240565 
L 239.778 158.240565 
L 239.778 174.28545 
L 239.778 174.28545 
z
" clip-path="url(#pfc4886251c)" style="fill: none; stroke: #7f7f7f; stroke-width: 1.5; stroke-linejoin: miter"/>
   </g>
   <g id="patch_7">
    <path d="M 301.158 165.249232 
L 350.262 165.249232 
L 350.262 155.265167 
L 301.158 155.265167 
L 301.158 165.249232 
L 301.158 165.249232 
z
" clip-path="url(#pfc4886251c)" style="fill: none; stroke: #7f7f7f; stroke-width: 1.5; stroke-linejoin: miter"/>
   </g>
   <g id="line2d_7">
    <path d="M 80.19 161.723791 
L 80.19 167.160591 
" clip-path="url(#pfc4886251c)" style="fill: none; stroke: #7f7f7f; stroke-width: 1.5; stroke-linecap: round"/>
   </g>
   <g id="line2d_8">
    <path d="M 80.19 154.58529 
L 80.19 153.269559 
" clip-path="url(#pfc4886251c)" style="fill: none; stroke: #7f7f7f; stroke-width: 1.5; stroke-linecap: round"/>
   </g>
   <g id="line2d_9">
    <path d="M 67.914 167.160591 
L 92.466 167.160591 
" clip-path="url(#pfc4886251c)" style="fill: none; stroke: #7f7f7f; stroke-width: 1.5; stroke-linecap: round"/>
   </g>
   <g id="line2d_10">
    <path d="M 67.914 153.269559 
L 92.466 153.269559 
" clip-path="url(#pfc4886251c)" style="fill: none; stroke: #7f7f7f; stroke-width: 1.5; stroke-linecap: round"/>
   </g>
   <g id="line2d_11"/>
   <g id="line2d_12">
    <path d="M 141.57 162.043324 
L 141.57 185.827704 
" clip-path="url(#pfc4886251c)" style="fill: none; stroke: #7f7f7f; stroke-width: 1.5; stroke-linecap: round"/>
   </g>
   <g id="line2d_13">
    <path d="M 141.57 135.971353 
L 141.57 120.825411 
" clip-path="url(#pfc4886251c)" style="fill: none; stroke: #7f7f7f; stroke-width: 1.5; stroke-linecap: round"/>
   </g>
   <g id="line2d_14">
    <path d="M 129.294 185.827704 
L 153.846 185.827704 
" clip-path="url(#pfc4886251c)" style="fill: none; stroke: #7f7f7f; stroke-width: 1.5; stroke-linecap: round"/>
   </g>
   <g id="line2d_15">
    <path d="M 129.294 120.825411 
L 153.846 120.825411 
" clip-path="url(#pfc4886251c)" style="fill: none; stroke: #7f7f7f; stroke-width: 1.5; stroke-linecap: round"/>
   </g>
   <g id="line2d_16">
    <defs>
     <path id="mb3ec8fc61f" d="M 0 1.25 
C 0.331504 1.25 0.649475 1.118292 0.883883 0.883883 
C 1.118292 0.649475 1.25 0.331504 1.25 0 
C 1.25 -0.331504 1.118292 -0.649475 0.883883 -0.883883 
C 0.649475 -1.118292 0.331504 -1.25 0 -1.25 
C -0.331504 -1.25 -0.649475 -1.118292 -0.883883 -0.883883 
C -1.118292 -0.649475 -1.25 -0.331504 -1.25 0 
C -1.25 0.331504 -1.118292 0.649475 -0.883883 0.883883 
C -0.649475 1.118292 -0.331504 1.25 0 1.25 
z
" style="stroke: #000000; stroke-opacity: 0"/>
    </defs>
    <g clip-path="url(#pfc4886251c)">
     <use xlink:href="#mb3ec8fc61f" x="141.57" y="71.761807" style="fill: #7f7f7f; stroke: #000000; stroke-opacity: 0"/>
     <use xlink:href="#mb3ec8fc61f" x="141.57" y="86.041548" style="fill: #7f7f7f; stroke: #000000; stroke-opacity: 0"/>
    </g>
   </g>
   <g id="line2d_17">
    <path d="M 202.95 161.147686 
L 202.95 179.936873 
" clip-path="url(#pfc4886251c)" style="fill: none; stroke: #7f7f7f; stroke-width: 1.5; stroke-linecap: round"/>
   </g>
   <g id="line2d_18">
    <path d="M 202.95 124.995909 
L 202.95 71.804764 
" clip-path="url(#pfc4886251c)" style="fill: none; stroke: #7f7f7f; stroke-width: 1.5; stroke-linecap: round"/>
   </g>
   <g id="line2d_19">
    <path d="M 190.674 179.936873 
L 215.226 179.936873 
" clip-path="url(#pfc4886251c)" style="fill: none; stroke: #7f7f7f; stroke-width: 1.5; stroke-linecap: round"/>
   </g>
   <g id="line2d_20">
    <path d="M 190.674 71.804764 
L 215.226 71.804764 
" clip-path="url(#pfc4886251c)" style="fill: none; stroke: #7f7f7f; stroke-width: 1.5; stroke-linecap: round"/>
   </g>
   <g id="line2d_21">
    <g clip-path="url(#pfc4886251c)">
     <use xlink:href="#mb3ec8fc61f" x="202.95" y="64.950323" style="fill: #7f7f7f; stroke: #000000; stroke-opacity: 0"/>
     <use xlink:href="#mb3ec8fc61f" x="202.95" y="52.733758" style="fill: #7f7f7f; stroke: #000000; stroke-opacity: 0"/>
     <use xlink:href="#mb3ec8fc61f" x="202.95" y="54.598286" style="fill: #7f7f7f; stroke: #000000; stroke-opacity: 0"/>
    </g>
   </g>
   <g id="line2d_22">
    <path d="M 264.33 174.28545 
L 264.33 196.719545 
" clip-path="url(#pfc4886251c)" style="fill: none; stroke: #7f7f7f; stroke-width: 1.5; stroke-linecap: round"/>
   </g>
   <g id="line2d_23">
    <path d="M 264.33 158.240565 
L 264.33 138.977906 
" clip-path="url(#pfc4886251c)" style="fill: none; stroke: #7f7f7f; stroke-width: 1.5; stroke-linecap: round"/>
   </g>
   <g id="line2d_24">
    <path d="M 252.054 196.719545 
L 276.606 196.719545 
" clip-path="url(#pfc4886251c)" style="fill: none; stroke: #7f7f7f; stroke-width: 1.5; stroke-linecap: round"/>
   </g>
   <g id="line2d_25">
    <path d="M 252.054 138.977906 
L 276.606 138.977906 
" clip-path="url(#pfc4886251c)" style="fill: none; stroke: #7f7f7f; stroke-width: 1.5; stroke-linecap: round"/>
   </g>
   <g id="line2d_26"/>
   <g id="line2d_27">
    <path d="M 325.71 165.249232 
L 325.71 180.207352 
" clip-path="url(#pfc4886251c)" style="fill: none; stroke: #7f7f7f; stroke-width: 1.5; stroke-linecap: round"/>
   </g>
   <g id="line2d_28">
    <path d="M 325.71 155.265167 
L 325.71 142.248556 
" clip-path="url(#pfc4886251c)" style="fill: none; stroke: #7f7f7f; stroke-width: 1.5; stroke-linecap: round"/>
   </g>
   <g id="line2d_29">
    <path d="M 313.434 180.207352 
L 337.986 180.207352 
" clip-path="url(#pfc4886251c)" style="fill: none; stroke: #7f7f7f; stroke-width: 1.5; stroke-linecap: round"/>
   </g>
   <g id="line2d_30">
    <path d="M 313.434 142.248556 
L 337.986 142.248556 
" clip-path="url(#pfc4886251c)" style="fill: none; stroke: #7f7f7f; stroke-width: 1.5; stroke-linecap: round"/>
   </g>
   <g id="line2d_31">
    <g clip-path="url(#pfc4886251c)">
     <use xlink:href="#mb3ec8fc61f" x="325.71" y="189.783432" style="fill: #7f7f7f; stroke: #000000; stroke-opacity: 0"/>
     <use xlink:href="#mb3ec8fc61f" x="325.71" y="189.766874" style="fill: #7f7f7f; stroke: #000000; stroke-opacity: 0"/>
     <use xlink:href="#mb3ec8fc61f" x="325.71" y="182.667765" style="fill: #7f7f7f; stroke: #000000; stroke-opacity: 0"/>
     <use xlink:href="#mb3ec8fc61f" x="325.71" y="109.446074" style="fill: #7f7f7f; stroke: #000000; stroke-opacity: 0"/>
     <use xlink:href="#mb3ec8fc61f" x="325.71" y="108.58419" style="fill: #7f7f7f; stroke: #000000; stroke-opacity: 0"/>
     <use xlink:href="#mb3ec8fc61f" x="325.71" y="110.514364" style="fill: #7f7f7f; stroke: #000000; stroke-opacity: 0"/>
     <use xlink:href="#mb3ec8fc61f" x="325.71" y="113.179722" style="fill: #7f7f7f; stroke: #000000; stroke-opacity: 0"/>
     <use xlink:href="#mb3ec8fc61f" x="325.71" y="112.970439" style="fill: #7f7f7f; stroke: #000000; stroke-opacity: 0"/>
     <use xlink:href="#mb3ec8fc61f" x="325.71" y="113.040261" style="fill: #7f7f7f; stroke: #000000; stroke-opacity: 0"/>
     <use xlink:href="#mb3ec8fc61f" x="325.71" y="62.66016" style="fill: #7f7f7f; stroke: #000000; stroke-opacity: 0"/>
     <use xlink:href="#mb3ec8fc61f" x="325.71" y="63.732667" style="fill: #7f7f7f; stroke: #000000; stroke-opacity: 0"/>
     <use xlink:href="#mb3ec8fc61f" x="325.71" y="100.008933" style="fill: #7f7f7f; stroke: #000000; stroke-opacity: 0"/>
     <use xlink:href="#mb3ec8fc61f" x="325.71" y="96.287043" style="fill: #7f7f7f; stroke: #000000; stroke-opacity: 0"/>
     <use xlink:href="#mb3ec8fc61f" x="325.71" y="94.025671" style="fill: #7f7f7f; stroke: #000000; stroke-opacity: 0"/>
     <use xlink:href="#mb3ec8fc61f" x="325.71" y="94.381675" style="fill: #7f7f7f; stroke: #000000; stroke-opacity: 0"/>
     <use xlink:href="#mb3ec8fc61f" x="325.71" y="78.736429" style="fill: #7f7f7f; stroke: #000000; stroke-opacity: 0"/>
     <use xlink:href="#mb3ec8fc61f" x="325.71" y="77.447797" style="fill: #7f7f7f; stroke: #000000; stroke-opacity: 0"/>
     <use xlink:href="#mb3ec8fc61f" x="325.71" y="76.544937" style="fill: #7f7f7f; stroke: #000000; stroke-opacity: 0"/>
     <use xlink:href="#mb3ec8fc61f" x="325.71" y="71.741321" style="fill: #7f7f7f; stroke: #000000; stroke-opacity: 0"/>
     <use xlink:href="#mb3ec8fc61f" x="325.71" y="136.261009" style="fill: #7f7f7f; stroke: #000000; stroke-opacity: 0"/>
     <use xlink:href="#mb3ec8fc61f" x="325.71" y="139.51485" style="fill: #7f7f7f; stroke: #000000; stroke-opacity: 0"/>
     <use xlink:href="#mb3ec8fc61f" x="325.71" y="135.173639" style="fill: #7f7f7f; stroke: #000000; stroke-opacity: 0"/>
     <use xlink:href="#mb3ec8fc61f" x="325.71" y="135.662821" style="fill: #7f7f7f; stroke: #000000; stroke-opacity: 0"/>
     <use xlink:href="#mb3ec8fc61f" x="325.71" y="123.560444" style="fill: #7f7f7f; stroke: #000000; stroke-opacity: 0"/>
     <use xlink:href="#mb3ec8fc61f" x="325.71" y="123.254351" style="fill: #7f7f7f; stroke: #000000; stroke-opacity: 0"/>
     <use xlink:href="#mb3ec8fc61f" x="325.71" y="136.373433" style="fill: #7f7f7f; stroke: #000000; stroke-opacity: 0"/>
     <use xlink:href="#mb3ec8fc61f" x="325.71" y="136.126703" style="fill: #7f7f7f; stroke: #000000; stroke-opacity: 0"/>
     <use xlink:href="#mb3ec8fc61f" x="325.71" y="117.239594" style="fill: #7f7f7f; stroke: #000000; stroke-opacity: 0"/>
     <use xlink:href="#mb3ec8fc61f" x="325.71" y="118.487408" style="fill: #7f7f7f; stroke: #000000; stroke-opacity: 0"/>
     <use xlink:href="#mb3ec8fc61f" x="325.71" y="134.329546" style="fill: #7f7f7f; stroke: #000000; stroke-opacity: 0"/>
     <use xlink:href="#mb3ec8fc61f" x="325.71" y="135.770462" style="fill: #7f7f7f; stroke: #000000; stroke-opacity: 0"/>
     <use xlink:href="#mb3ec8fc61f" x="325.71" y="136.430486" style="fill: #7f7f7f; stroke: #000000; stroke-opacity: 0"/>
     <use xlink:href="#mb3ec8fc61f" x="325.71" y="136.072942" style="fill: #7f7f7f; stroke: #000000; stroke-opacity: 0"/>
     <use xlink:href="#mb3ec8fc61f" x="325.71" y="128.831628" style="fill: #7f7f7f; stroke: #000000; stroke-opacity: 0"/>
     <use xlink:href="#mb3ec8fc61f" x="325.71" y="129.748414" style="fill: #7f7f7f; stroke: #000000; stroke-opacity: 0"/>
     <use xlink:href="#mb3ec8fc61f" x="325.71" y="129.50128" style="fill: #7f7f7f; stroke: #000000; stroke-opacity: 0"/>
     <use xlink:href="#mb3ec8fc61f" x="325.71" y="128.457072" style="fill: #7f7f7f; stroke: #000000; stroke-opacity: 0"/>
     <use xlink:href="#mb3ec8fc61f" x="325.71" y="118.433417" style="fill: #7f7f7f; stroke: #000000; stroke-opacity: 0"/>
     <use xlink:href="#mb3ec8fc61f" x="325.71" y="119.059883" style="fill: #7f7f7f; stroke: #000000; stroke-opacity: 0"/>
     <use xlink:href="#mb3ec8fc61f" x="325.71" y="126.593236" style="fill: #7f7f7f; stroke: #000000; stroke-opacity: 0"/>
     <use xlink:href="#mb3ec8fc61f" x="325.71" y="122.435448" style="fill: #7f7f7f; stroke: #000000; stroke-opacity: 0"/>
     <use xlink:href="#mb3ec8fc61f" x="325.71" y="130.34406" style="fill: #7f7f7f; stroke: #000000; stroke-opacity: 0"/>
     <use xlink:href="#mb3ec8fc61f" x="325.71" y="129.465399" style="fill: #7f7f7f; stroke: #000000; stroke-opacity: 0"/>
     <use xlink:href="#mb3ec8fc61f" x="325.71" y="129.626176" style="fill: #7f7f7f; stroke: #000000; stroke-opacity: 0"/>
     <use xlink:href="#mb3ec8fc61f" x="325.71" y="131.125424" style="fill: #7f7f7f; stroke: #000000; stroke-opacity: 0"/>
    </g>
   </g>
   <g id="PathCollection_1"/>
   <g id="PathCollection_2"/>
   <g id="PathCollection_3"/>
   <g id="PathCollection_4"/>
   <g id="PathCollection_5"/>
   <g id="PathCollection_6"/>
   <g id="PathCollection_7"/>
   <g id="PathCollection_8"/>
   <g id="PathCollection_9"/>
   <g id="PathCollection_10"/>
   <g id="PathCollection_11"/>
   <g id="line2d_32">
    <path d="M 55.638 157.467696 
L 104.742 157.467696 
" clip-path="url(#pfc4886251c)" style="fill: none; stroke: #7f7f7f; stroke-width: 1.5; stroke-linecap: round"/>
   </g>
   <g id="line2d_33">
    <path d="M 117.018 154.916762 
L 166.122 154.916762 
" clip-path="url(#pfc4886251c)" style="fill: none; stroke: #7f7f7f; stroke-width: 1.5; stroke-linecap: round"/>
   </g>
   <g id="line2d_34">
    <path d="M 178.398 142.704715 
L 227.502 142.704715 
" clip-path="url(#pfc4886251c)" style="fill: none; stroke: #7f7f7f; stroke-width: 1.5; stroke-linecap: round"/>
   </g>
   <g id="line2d_35">
    <path d="M 239.778 170.115505 
L 288.882 170.115505 
" clip-path="url(#pfc4886251c)" style="fill: none; stroke: #7f7f7f; stroke-width: 1.5; stroke-linecap: round"/>
   </g>
   <g id="line2d_36">
    <path d="M 301.158 159.601113 
L 350.262 159.601113 
" clip-path="url(#pfc4886251c)" style="fill: none; stroke: #7f7f7f; stroke-width: 1.5; stroke-linecap: round"/>
   </g>
   <g id="PathCollection_12">
    <defs>
     <path id="C0_0_8167ca0499" d="M 0 3.5 
C 0.928211 3.5 1.81853 3.131218 2.474874 2.474874 
C 3.131218 1.81853 3.5 0.928211 3.5 -0 
C 3.5 -0.928211 3.131218 -1.81853 2.474874 -2.474874 
C 1.81853 -3.131218 0.928211 -3.5 0 -3.5 
C -0.928211 -3.5 -1.81853 -3.131218 -2.474874 -2.474874 
C -3.131218 -1.81853 -3.5 -0.928211 -3.5 0 
C -3.5 0.928211 -3.131218 1.81853 -2.474874 2.474874 
C -1.81853 3.131218 -0.928211 3.5 0 3.5 
z
"/>
    </defs>
    <g clip-path="url(#pfc4886251c)">
     <use xlink:href="#C0_0_8167ca0499" x="80.19" y="77.971548" style="fill: #956cb4"/>
    </g>
    <g clip-path="url(#pfc4886251c)">
     <use xlink:href="#C0_0_8167ca0499" x="72.88046" y="77.238076" style="fill: #956cb4"/>
    </g>
    <g clip-path="url(#pfc4886251c)">
     <use xlink:href="#C0_0_8167ca0499" x="87.486427" y="77.127919" style="fill: #dc7ec0"/>
    </g>
    <g clip-path="url(#pfc4886251c)">
     <use xlink:href="#C0_0_8167ca0499" x="77.871775" y="71.328847" style="fill: #dc7ec0"/>
    </g>
    <g clip-path="url(#pfc4886251c)">
     <use xlink:href="#C0_0_8167ca0499" x="84.623328" y="68.56218" style="fill: #ee854a"/>
    </g>
    <g clip-path="url(#pfc4886251c)">
     <use xlink:href="#C0_0_8167ca0499" x="71.534744" y="67.782645" style="fill: #ee854a"/>
    </g>
    <g clip-path="url(#pfc4886251c)">
     <use xlink:href="#C0_0_8167ca0499" x="80.19" y="49.814861" style="fill: #6acc64"/>
    </g>
    <g clip-path="url(#pfc4886251c)">
     <use xlink:href="#C0_0_8167ca0499" x="72.850334" y="49.443799" style="fill: #6acc64"/>
    </g>
   </g>
   <g id="PathCollection_13">
    <defs>
     <path id="C1_0_e6bd6e5b6b" d="M 0 3.5 
C 0.928211 3.5 1.81853 3.131218 2.474874 2.474874 
C 3.131218 1.81853 3.5 0.928211 3.5 -0 
C 3.5 -0.928211 3.131218 -1.81853 2.474874 -2.474874 
C 1.81853 -3.131218 0.928211 -3.5 0 -3.5 
C -0.928211 -3.5 -1.81853 -3.131218 -2.474874 -2.474874 
C -3.131218 -1.81853 -3.5 -0.928211 -3.5 0 
C -3.5 0.928211 -3.131218 1.81853 -2.474874 2.474874 
C -1.81853 3.131218 -0.928211 3.5 0 3.5 
z
"/>
    </defs>
    <g clip-path="url(#pfc4886251c)">
     <use xlink:href="#C1_0_e6bd6e5b6b" x="141.57" y="158.021732" style="fill: #4878d0"/>
    </g>
    <g clip-path="url(#pfc4886251c)">
     <use xlink:href="#C1_0_e6bd6e5b6b" x="134.377257" y="156.58148" style="fill: #d65f5f"/>
    </g>
    <g clip-path="url(#pfc4886251c)">
     <use xlink:href="#C1_0_e6bd6e5b6b" x="148.067672" y="154.749814" style="fill: #4878d0"/>
    </g>
    <g clip-path="url(#pfc4886251c)">
     <use xlink:href="#C1_0_e6bd6e5b6b" x="128.162899" y="152.84355" style="fill: #d65f5f"/>
    </g>
    <g clip-path="url(#pfc4886251c)">
     <use xlink:href="#C1_0_e6bd6e5b6b" x="141.57" y="149.54611" style="fill: #4878d0"/>
    </g>
    <g clip-path="url(#pfc4886251c)">
     <use xlink:href="#C1_0_e6bd6e5b6b" x="134.329897" y="148.340152" style="fill: #4878d0"/>
    </g>
    <g clip-path="url(#pfc4886251c)">
     <use xlink:href="#C1_0_e6bd6e5b6b" x="145.344451" y="143.539612" style="fill: #8c613c"/>
    </g>
    <g clip-path="url(#pfc4886251c)">
     <use xlink:href="#C1_0_e6bd6e5b6b" x="138.306748" y="141.520826" style="fill: #c7ad7f"/>
    </g>
    <g clip-path="url(#pfc4886251c)">
     <use xlink:href="#C1_0_e6bd6e5b6b" x="152.112278" y="140.809245" style="fill: #8c613c"/>
    </g>
    <g clip-path="url(#pfc4886251c)">
     <use xlink:href="#C1_0_e6bd6e5b6b" x="141.57" y="134.005911" style="fill: #c7ad7f"/>
    </g>
   </g>
   <g id="PathCollection_14">
    <defs>
     <path id="C2_0_a84c6b64aa" d="M 0 3.5 
C 0.928211 3.5 1.81853 3.131218 2.474874 2.474874 
C 3.131218 1.81853 3.5 0.928211 3.5 -0 
C 3.5 -0.928211 3.131218 -1.81853 2.474874 -2.474874 
C 1.81853 -3.131218 0.928211 -3.5 0 -3.5 
C -0.928211 -3.5 -1.81853 -3.131218 -2.474874 -2.474874 
C -3.131218 -1.81853 -3.5 -0.928211 -3.5 0 
C -3.5 0.928211 -3.131218 1.81853 -2.474874 2.474874 
C -1.81853 3.131218 -0.928211 3.5 0 3.5 
z
"/>
    </defs>
    <g clip-path="url(#pfc4886251c)">
     <use xlink:href="#C2_0_a84c6b64aa" x="202.95" y="145.793737" style="fill: #4878d0"/>
    </g>
    <g clip-path="url(#pfc4886251c)">
     <use xlink:href="#C2_0_a84c6b64aa" x="195.836176" y="144.033504" style="fill: #4878d0"/>
    </g>
    <g clip-path="url(#pfc4886251c)">
     <use xlink:href="#C2_0_a84c6b64aa" x="209.802285" y="143.261642" style="fill: #d65f5f"/>
    </g>
    <g clip-path="url(#pfc4886251c)">
     <use xlink:href="#C2_0_a84c6b64aa" x="216.91954" y="141.514031" style="fill: #8c613c"/>
    </g>
    <g clip-path="url(#pfc4886251c)">
     <use xlink:href="#C2_0_a84c6b64aa" x="189.346549" y="140.747136" style="fill: #8c613c"/>
    </g>
    <g clip-path="url(#pfc4886251c)">
     <use xlink:href="#C2_0_a84c6b64aa" x="202.95" y="132.188182" style="fill: #d65f5f"/>
    </g>
    <g clip-path="url(#pfc4886251c)">
     <use xlink:href="#C2_0_a84c6b64aa" x="202.95" y="100.295096" style="fill: #c7ad7f"/>
    </g>
    <g clip-path="url(#pfc4886251c)">
     <use xlink:href="#C2_0_a84c6b64aa" x="196.10244" y="97.751431" style="fill: #c7ad7f"/>
    </g>
   </g>
   <g id="PathCollection_15">
    <defs>
     <path id="C3_0_6c7071f93d" d="M 0 3.5 
C 0.928211 3.5 1.81853 3.131218 2.474874 2.474874 
C 3.131218 1.81853 3.5 0.928211 3.5 -0 
C 3.5 -0.928211 3.131218 -1.81853 2.474874 -2.474874 
C 1.81853 -3.131218 0.928211 -3.5 0 -3.5 
C -0.928211 -3.5 -1.81853 -3.131218 -2.474874 -2.474874 
C -3.131218 -1.81853 -3.5 -0.928211 -3.5 0 
C -3.5 0.928211 -3.131218 1.81853 -2.474874 2.474874 
C -1.81853 3.131218 -0.928211 3.5 0 3.5 
z
"/>
    </defs>
    <g clip-path="url(#pfc4886251c)">
     <use xlink:href="#C3_0_6c7071f93d" x="264.33" y="180.047847" style="fill: #c7ad7f"/>
    </g>
    <g clip-path="url(#pfc4886251c)">
     <use xlink:href="#C3_0_6c7071f93d" x="257.008632" y="179.430586" style="fill: #c7ad7f"/>
    </g>
    <g clip-path="url(#pfc4886251c)">
     <use xlink:href="#C3_0_6c7071f93d" x="264.33" y="172.309559" style="fill: #d65f5f"/>
    </g>
    <g clip-path="url(#pfc4886251c)">
     <use xlink:href="#C3_0_6c7071f93d" x="257.261781" y="170.389907" style="fill: #d65f5f"/>
    </g>
    <g clip-path="url(#pfc4886251c)">
     <use xlink:href="#C3_0_6c7071f93d" x="264.33" y="155.033073" style="fill: #4878d0"/>
    </g>
    <g clip-path="url(#pfc4886251c)">
     <use xlink:href="#C3_0_6c7071f93d" x="257.91248" y="151.620686" style="fill: #4878d0"/>
    </g>
    <g clip-path="url(#pfc4886251c)">
     <use xlink:href="#C3_0_6c7071f93d" x="264.33" y="145.427797" style="fill: #8c613c"/>
    </g>
    <g clip-path="url(#pfc4886251c)">
     <use xlink:href="#C3_0_6c7071f93d" x="257.631338" y="142.546875" style="fill: #8c613c"/>
    </g>
    <g clip-path="url(#pfc4886251c)">
     <use xlink:href="#C3_0_6c7071f93d" x="264.33" y="93.313517" style="fill: #956cb4"/>
    </g>
    <g clip-path="url(#pfc4886251c)">
     <use xlink:href="#C3_0_6c7071f93d" x="256.983472" y="93.098371" style="fill: #956cb4"/>
    </g>
    <g clip-path="url(#pfc4886251c)">
     <use xlink:href="#C3_0_6c7071f93d" x="264.33" y="69.069311" style="fill: #dc7ec0"/>
    </g>
    <g clip-path="url(#pfc4886251c)">
     <use xlink:href="#C3_0_6c7071f93d" x="257.044597" y="68.143293" style="fill: #dc7ec0"/>
    </g>
    <g clip-path="url(#pfc4886251c)">
     <use xlink:href="#C3_0_6c7071f93d" x="270.433313" y="65.168956" style="fill: #ee854a"/>
    </g>
    <g clip-path="url(#pfc4886251c)">
     <use xlink:href="#C3_0_6c7071f93d" x="277.771392" y="64.770449" style="fill: #ee854a"/>
    </g>
    <g clip-path="url(#pfc4886251c)">
     <use xlink:href="#C3_0_6c7071f93d" x="264.33" y="37.537839" style="fill: #6acc64"/>
    </g>
    <g clip-path="url(#pfc4886251c)">
     <use xlink:href="#C3_0_6c7071f93d" x="257.134429" y="36.110455" style="fill: #6acc64"/>
    </g>
   </g>
   <g id="PathCollection_16">
    <path d="M 0 237.5 
C 0.928211 237.5 1.81853 237.131218 2.474874 236.474874 
C 3.131218 235.81853 3.5 234.928211 3.5 234 
C 3.5 233.071789 3.131218 232.18147 2.474874 231.525126 
C 1.81853 230.868782 0.928211 230.5 0 230.5 
C -0.928211 230.5 -1.81853 230.868782 -2.474874 231.525126 
C -3.131218 232.18147 -3.5 233.071789 -3.5 234 
C -3.5 234.928211 -3.131218 235.81853 -2.474874 236.474874 
C -1.81853 237.131218 -0.928211 237.5 0 237.5 
" clip-path="url(#pfc4886251c)" style="fill: none"/>
   </g>
   <g id="patch_8">
    <path d="M 49.5 204.75 
L 49.5 28.08 
" style="fill: none; stroke: #cccccc; stroke-width: 1.25; stroke-linejoin: miter; stroke-linecap: square"/>
   </g>
   <g id="patch_9">
    <path d="M 356.4 204.75 
L 356.4 28.08 
" style="fill: none; stroke: #cccccc; stroke-width: 1.25; stroke-linejoin: miter; stroke-linecap: square"/>
   </g>
   <g id="patch_10">
    <path d="M 49.5 204.75 
L 356.4 204.75 
" style="fill: none; stroke: #cccccc; stroke-width: 1.25; stroke-linejoin: miter; stroke-linecap: square"/>
   </g>
   <g id="patch_11">
    <path d="M 49.5 28.08 
L 356.4 28.08 
" style="fill: none; stroke: #cccccc; stroke-width: 1.25; stroke-linejoin: miter; stroke-linecap: square"/>
   </g>
   <g id="legend_1">
    <g id="patch_12">
     <path d="M 364.1 206.010406 
L 522.518906 206.010406 
Q 524.718906 206.010406 524.718906 203.810406 
L 524.718906 29.019594 
Q 524.718906 26.819594 522.518906 26.819594 
L 364.1 26.819594 
Q 361.9 26.819594 361.9 29.019594 
L 361.9 203.810406 
Q 361.9 206.010406 364.1 206.010406 
z
" style="fill: #ffffff; opacity: 0.8; stroke: #cccccc; stroke-linejoin: miter"/>
    </g>
    <g id="text_14">
     <!-- $\it{E. coli}$ OxyR -->
     <g style="fill: #262626" transform="translate(399.355703 40.339594)scale(0.12 -0.12)">
      <defs>
       <path id="DejaVuSans-Oblique-45" d="M 1081 4666 
L 4031 4666 
L 3928 4134 
L 1606 4134 
L 1338 2753 
L 3566 2753 
L 3463 2222 
L 1234 2222 
L 909 531 
L 3284 531 
L 3181 0 
L 172 0 
L 1081 4666 
z
" transform="scale(0.015625)"/>
       <path id="DejaVuSans-2e" d="M 684 794 
L 1344 794 
L 1344 0 
L 684 0 
L 684 794 
z
" transform="scale(0.015625)"/>
       <path id="DejaVuSans-Oblique-63" d="M 3431 3366 
L 3316 2797 
Q 3109 2947 2876 3022 
Q 2644 3097 2394 3097 
Q 2119 3097 1870 3000 
Q 1622 2903 1453 2725 
Q 1184 2453 1037 2087 
Q 891 1722 891 1331 
Q 891 859 1127 628 
Q 1363 397 1844 397 
Q 2081 397 2348 469 
Q 2616 541 2906 684 
L 2797 116 
Q 2547 13 2283 -39 
Q 2019 -91 1741 -91 
Q 1044 -91 669 257 
Q 294 606 294 1253 
Q 294 1797 489 2255 
Q 684 2713 1069 3078 
Q 1331 3328 1684 3456 
Q 2038 3584 2456 3584 
Q 2700 3584 2940 3529 
Q 3181 3475 3431 3366 
z
" transform="scale(0.015625)"/>
       <path id="DejaVuSans-Oblique-6f" d="M 1625 -91 
Q 1009 -91 651 289 
Q 294 669 294 1325 
Q 294 1706 417 2101 
Q 541 2497 738 2766 
Q 1047 3184 1428 3384 
Q 1809 3584 2291 3584 
Q 2888 3584 3255 3212 
Q 3622 2841 3622 2241 
Q 3622 1825 3500 1412 
Q 3378 1000 3181 728 
Q 2875 309 2494 109 
Q 2113 -91 1625 -91 
z
M 891 1344 
Q 891 869 1089 633 
Q 1288 397 1691 397 
Q 2269 397 2648 901 
Q 3028 1406 3028 2181 
Q 3028 2634 2825 2865 
Q 2622 3097 2228 3097 
Q 1903 3097 1650 2945 
Q 1397 2794 1197 2484 
Q 1050 2253 970 1956 
Q 891 1659 891 1344 
z
" transform="scale(0.015625)"/>
       <path id="DejaVuSans-Oblique-6c" d="M 1172 4863 
L 1747 4863 
L 800 0 
L 225 0 
L 1172 4863 
z
" transform="scale(0.015625)"/>
       <path id="DejaVuSans-Oblique-69" d="M 1172 4863 
L 1747 4863 
L 1606 4134 
L 1031 4134 
L 1172 4863 
z
M 909 3500 
L 1484 3500 
L 800 0 
L 225 0 
L 909 3500 
z
" transform="scale(0.015625)"/>
      </defs>
      <use xlink:href="#DejaVuSans-Oblique-45" transform="translate(0 0.015625)"/>
      <use xlink:href="#DejaVuSans-2e" transform="translate(63.183594 0.015625)"/>
      <use xlink:href="#DejaVuSans-Oblique-63" transform="translate(114.453125 0.015625)"/>
      <use xlink:href="#DejaVuSans-Oblique-6f" transform="translate(169.433594 0.015625)"/>
      <use xlink:href="#DejaVuSans-Oblique-6c" transform="translate(230.615234 0.015625)"/>
      <use xlink:href="#DejaVuSans-Oblique-69" transform="translate(258.398438 0.015625)"/>
      <use xlink:href="#DejaVuSans-20" transform="translate(286.181641 0.015625)"/>
      <use xlink:href="#DejaVuSans-4f" transform="translate(317.96875 0.015625)"/>
      <use xlink:href="#DejaVuSans-78" transform="translate(396.679688 0.015625)"/>
      <use xlink:href="#DejaVuSans-79" transform="translate(455.859375 0.015625)"/>
      <use xlink:href="#DejaVuSans-52" transform="translate(515.039062 0.015625)"/>
     </g>
     <!-- mutant strains -->
     <g style="fill: #262626" transform="translate(399.355703 53.801344)scale(0.12 -0.12)">
      <use xlink:href="#DejaVuSans-6d"/>
      <use xlink:href="#DejaVuSans-75" x="97.412109"/>
      <use xlink:href="#DejaVuSans-74" x="160.791016"/>
      <use xlink:href="#DejaVuSans-61" x="200"/>
      <use xlink:href="#DejaVuSans-6e" x="261.279297"/>
      <use xlink:href="#DejaVuSans-74" x="324.658203"/>
      <use xlink:href="#DejaVuSans-20" x="363.867188"/>
      <use xlink:href="#DejaVuSans-73" x="395.654297"/>
      <use xlink:href="#DejaVuSans-74" x="447.753906"/>
      <use xlink:href="#DejaVuSans-72" x="486.962891"/>
      <use xlink:href="#DejaVuSans-61" x="528.076172"/>
      <use xlink:href="#DejaVuSans-69" x="589.355469"/>
      <use xlink:href="#DejaVuSans-6e" x="617.138672"/>
      <use xlink:href="#DejaVuSans-73" x="680.517578"/>
     </g>
    </g>
    <g id="PathCollection_17">
     <defs>
      <path id="m3e089e873c" d="M 0 3 
C 0.795609 3 1.55874 2.683901 2.12132 2.12132 
C 2.683901 1.55874 3 0.795609 3 0 
C 3 -0.795609 2.683901 -1.55874 2.12132 -2.12132 
C 1.55874 -2.683901 0.795609 -3 0 -3 
C -0.795609 -3 -1.55874 -2.683901 -2.12132 -2.12132 
C -2.683901 -1.55874 -3 -0.795609 -3 0 
C -3 0.795609 -2.683901 1.55874 -2.12132 2.12132 
C -1.55874 2.683901 -0.795609 3 0 3 
z
" style="stroke: #7f7f7f"/>
     </defs>
     <g>
      <use xlink:href="#m3e089e873c" x="377.3" y="67.26775" style="fill: #7f7f7f; stroke: #7f7f7f"/>
     </g>
    </g>
    <g id="text_15">
     <!-- no OxyR mutation -->
     <g style="fill: #262626" transform="translate(397.1 70.15525)scale(0.11 -0.11)">
      <use xlink:href="#DejaVuSans-6e"/>
      <use xlink:href="#DejaVuSans-6f" x="63.378906"/>
      <use xlink:href="#DejaVuSans-20" x="124.560547"/>
      <use xlink:href="#DejaVuSans-4f" x="156.347656"/>
      <use xlink:href="#DejaVuSans-78" x="235.058594"/>
      <use xlink:href="#DejaVuSans-79" x="294.238281"/>
      <use xlink:href="#DejaVuSans-52" x="353.417969"/>
      <use xlink:href="#DejaVuSans-20" x="422.900391"/>
      <use xlink:href="#DejaVuSans-6d" x="454.6875"/>
      <use xlink:href="#DejaVuSans-75" x="552.099609"/>
      <use xlink:href="#DejaVuSans-74" x="615.478516"/>
      <use xlink:href="#DejaVuSans-61" x="654.6875"/>
      <use xlink:href="#DejaVuSans-74" x="715.966797"/>
      <use xlink:href="#DejaVuSans-69" x="755.175781"/>
      <use xlink:href="#DejaVuSans-6f" x="782.958984"/>
      <use xlink:href="#DejaVuSans-6e" x="844.140625"/>
     </g>
    </g>
    <g id="PathCollection_18">
     <defs>
      <path id="mce6f5736dd" d="M 0 3.872983 
C 1.027127 3.872983 2.012324 3.464901 2.738613 2.738613 
C 3.464901 2.012324 3.872983 1.027127 3.872983 0 
C 3.872983 -1.027127 3.464901 -2.012324 2.738613 -2.738613 
C 2.012324 -3.464901 1.027127 -3.872983 0 -3.872983 
C -1.027127 -3.872983 -2.012324 -3.464901 -2.738613 -2.738613 
C -3.464901 -2.012324 -3.872983 -1.027127 -3.872983 0 
C -3.872983 1.027127 -3.464901 2.012324 -2.738613 2.738613 
C -2.012324 3.464901 -1.027127 3.872983 0 3.872983 
z
" style="stroke: #dc7ec0"/>
     </defs>
     <g>
      <use xlink:href="#mce6f5736dd" x="377.3" y="83.413687" style="fill: #dc7ec0; stroke: #dc7ec0"/>
     </g>
    </g>
    <g id="text_16">
     <!-- A213P (FeSO4 ALE) -->
     <g style="fill: #262626" transform="translate(397.1 86.301187)scale(0.11 -0.11)">
      <defs>
       <path id="DejaVuSans-41" d="M 2188 4044 
L 1331 1722 
L 3047 1722 
L 2188 4044 
z
M 1831 4666 
L 2547 4666 
L 4325 0 
L 3669 0 
L 3244 1197 
L 1141 1197 
L 716 0 
L 50 0 
L 1831 4666 
z
" transform="scale(0.015625)"/>
       <path id="DejaVuSans-50" d="M 1259 4147 
L 1259 2394 
L 2053 2394 
Q 2494 2394 2734 2622 
Q 2975 2850 2975 3272 
Q 2975 3691 2734 3919 
Q 2494 4147 2053 4147 
L 1259 4147 
z
M 628 4666 
L 2053 4666 
Q 2838 4666 3239 4311 
Q 3641 3956 3641 3272 
Q 3641 2581 3239 2228 
Q 2838 1875 2053 1875 
L 1259 1875 
L 1259 0 
L 628 0 
L 628 4666 
z
" transform="scale(0.015625)"/>
       <path id="DejaVuSans-46" d="M 628 4666 
L 3309 4666 
L 3309 4134 
L 1259 4134 
L 1259 2759 
L 3109 2759 
L 3109 2228 
L 1259 2228 
L 1259 0 
L 628 0 
L 628 4666 
z
" transform="scale(0.015625)"/>
       <path id="DejaVuSans-53" d="M 3425 4513 
L 3425 3897 
Q 3066 4069 2747 4153 
Q 2428 4238 2131 4238 
Q 1616 4238 1336 4038 
Q 1056 3838 1056 3469 
Q 1056 3159 1242 3001 
Q 1428 2844 1947 2747 
L 2328 2669 
Q 3034 2534 3370 2195 
Q 3706 1856 3706 1288 
Q 3706 609 3251 259 
Q 2797 -91 1919 -91 
Q 1588 -91 1214 -16 
Q 841 59 441 206 
L 441 856 
Q 825 641 1194 531 
Q 1563 422 1919 422 
Q 2459 422 2753 634 
Q 3047 847 3047 1241 
Q 3047 1584 2836 1778 
Q 2625 1972 2144 2069 
L 1759 2144 
Q 1053 2284 737 2584 
Q 422 2884 422 3419 
Q 422 4038 858 4394 
Q 1294 4750 2059 4750 
Q 2388 4750 2728 4690 
Q 3069 4631 3425 4513 
z
" transform="scale(0.015625)"/>
       <path id="DejaVuSans-4c" d="M 628 4666 
L 1259 4666 
L 1259 531 
L 3531 531 
L 3531 0 
L 628 0 
L 628 4666 
z
" transform="scale(0.015625)"/>
       <path id="DejaVuSans-45" d="M 628 4666 
L 3578 4666 
L 3578 4134 
L 1259 4134 
L 1259 2753 
L 3481 2753 
L 3481 2222 
L 1259 2222 
L 1259 531 
L 3634 531 
L 3634 0 
L 628 0 
L 628 4666 
z
" transform="scale(0.015625)"/>
      </defs>
      <use xlink:href="#DejaVuSans-41"/>
      <use xlink:href="#DejaVuSans-32" x="68.408203"/>
      <use xlink:href="#DejaVuSans-31" x="132.03125"/>
      <use xlink:href="#DejaVuSans-33" x="195.654297"/>
      <use xlink:href="#DejaVuSans-50" x="259.277344"/>
      <use xlink:href="#DejaVuSans-20" x="319.580078"/>
      <use xlink:href="#DejaVuSans-28" x="351.367188"/>
      <use xlink:href="#DejaVuSans-46" x="390.380859"/>
      <use xlink:href="#DejaVuSans-65" x="442.400391"/>
      <use xlink:href="#DejaVuSans-53" x="503.923828"/>
      <use xlink:href="#DejaVuSans-4f" x="567.400391"/>
      <use xlink:href="#DejaVuSans-34" x="646.111328"/>
      <use xlink:href="#DejaVuSans-20" x="709.734375"/>
      <use xlink:href="#DejaVuSans-41" x="741.521484"/>
      <use xlink:href="#DejaVuSans-4c" x="809.929688"/>
      <use xlink:href="#DejaVuSans-45" x="865.642578"/>
      <use xlink:href="#DejaVuSans-29" x="928.826172"/>
     </g>
    </g>
    <g id="PathCollection_19">
     <defs>
      <path id="meea937e5ff" d="M 0 3.872983 
C 1.027127 3.872983 2.012324 3.464901 2.738613 2.738613 
C 3.464901 2.012324 3.872983 1.027127 3.872983 0 
C 3.872983 -1.027127 3.464901 -2.012324 2.738613 -2.738613 
C 2.012324 -3.464901 1.027127 -3.872983 0 -3.872983 
C -1.027127 -3.872983 -2.012324 -3.464901 -2.738613 -2.738613 
C -3.464901 -2.012324 -3.872983 -1.027127 -3.872983 0 
C -3.872983 1.027127 -3.464901 2.012324 -2.738613 2.738613 
C -2.012324 3.464901 -1.027127 3.872983 0 3.872983 
z
" style="stroke: #956cb4"/>
     </defs>
     <g>
      <use xlink:href="#meea937e5ff" x="377.3" y="99.559625" style="fill: #956cb4; stroke: #956cb4"/>
     </g>
    </g>
    <g id="text_17">
     <!-- C208Y (FeSO4 ALE) -->
     <g style="fill: #262626" transform="translate(397.1 102.447125)scale(0.11 -0.11)">
      <defs>
       <path id="DejaVuSans-43" d="M 4122 4306 
L 4122 3641 
Q 3803 3938 3442 4084 
Q 3081 4231 2675 4231 
Q 1875 4231 1450 3742 
Q 1025 3253 1025 2328 
Q 1025 1406 1450 917 
Q 1875 428 2675 428 
Q 3081 428 3442 575 
Q 3803 722 4122 1019 
L 4122 359 
Q 3791 134 3420 21 
Q 3050 -91 2638 -91 
Q 1578 -91 968 557 
Q 359 1206 359 2328 
Q 359 3453 968 4101 
Q 1578 4750 2638 4750 
Q 3056 4750 3426 4639 
Q 3797 4528 4122 4306 
z
" transform="scale(0.015625)"/>
       <path id="DejaVuSans-38" d="M 2034 2216 
Q 1584 2216 1326 1975 
Q 1069 1734 1069 1313 
Q 1069 891 1326 650 
Q 1584 409 2034 409 
Q 2484 409 2743 651 
Q 3003 894 3003 1313 
Q 3003 1734 2745 1975 
Q 2488 2216 2034 2216 
z
M 1403 2484 
Q 997 2584 770 2862 
Q 544 3141 544 3541 
Q 544 4100 942 4425 
Q 1341 4750 2034 4750 
Q 2731 4750 3128 4425 
Q 3525 4100 3525 3541 
Q 3525 3141 3298 2862 
Q 3072 2584 2669 2484 
Q 3125 2378 3379 2068 
Q 3634 1759 3634 1313 
Q 3634 634 3220 271 
Q 2806 -91 2034 -91 
Q 1263 -91 848 271 
Q 434 634 434 1313 
Q 434 1759 690 2068 
Q 947 2378 1403 2484 
z
M 1172 3481 
Q 1172 3119 1398 2916 
Q 1625 2713 2034 2713 
Q 2441 2713 2670 2916 
Q 2900 3119 2900 3481 
Q 2900 3844 2670 4047 
Q 2441 4250 2034 4250 
Q 1625 4250 1398 4047 
Q 1172 3844 1172 3481 
z
" transform="scale(0.015625)"/>
       <path id="DejaVuSans-59" d="M -13 4666 
L 666 4666 
L 1959 2747 
L 3244 4666 
L 3922 4666 
L 2272 2222 
L 2272 0 
L 1638 0 
L 1638 2222 
L -13 4666 
z
" transform="scale(0.015625)"/>
      </defs>
      <use xlink:href="#DejaVuSans-43"/>
      <use xlink:href="#DejaVuSans-32" x="69.824219"/>
      <use xlink:href="#DejaVuSans-30" x="133.447266"/>
      <use xlink:href="#DejaVuSans-38" x="197.070312"/>
      <use xlink:href="#DejaVuSans-59" x="260.693359"/>
      <use xlink:href="#DejaVuSans-20" x="321.777344"/>
      <use xlink:href="#DejaVuSans-28" x="353.564453"/>
      <use xlink:href="#DejaVuSans-46" x="392.578125"/>
      <use xlink:href="#DejaVuSans-65" x="444.597656"/>
      <use xlink:href="#DejaVuSans-53" x="506.121094"/>
      <use xlink:href="#DejaVuSans-4f" x="569.597656"/>
      <use xlink:href="#DejaVuSans-34" x="648.308594"/>
      <use xlink:href="#DejaVuSans-20" x="711.931641"/>
      <use xlink:href="#DejaVuSans-41" x="743.71875"/>
      <use xlink:href="#DejaVuSans-4c" x="812.126953"/>
      <use xlink:href="#DejaVuSans-45" x="867.839844"/>
      <use xlink:href="#DejaVuSans-29" x="931.023438"/>
     </g>
    </g>
    <g id="PathCollection_20">
     <defs>
      <path id="mb1f88c53ef" d="M 0 3.872983 
C 1.027127 3.872983 2.012324 3.464901 2.738613 2.738613 
C 3.464901 2.012324 3.872983 1.027127 3.872983 0 
C 3.872983 -1.027127 3.464901 -2.012324 2.738613 -2.738613 
C 2.012324 -3.464901 1.027127 -3.872983 0 -3.872983 
C -1.027127 -3.872983 -2.012324 -3.464901 -2.738613 -2.738613 
C -3.464901 -2.012324 -3.872983 -1.027127 -3.872983 0 
C -3.872983 1.027127 -3.464901 2.012324 -2.738613 2.738613 
C -2.012324 3.464901 -1.027127 3.872983 0 3.872983 
z
" style="stroke: #ee854a"/>
     </defs>
     <g>
      <use xlink:href="#mb1f88c53ef" x="377.3" y="115.705562" style="fill: #ee854a; stroke: #ee854a"/>
     </g>
    </g>
    <g id="text_18">
     <!-- P107L (FeSO4 ALE) -->
     <g style="fill: #262626" transform="translate(397.1 118.593063)scale(0.11 -0.11)">
      <use xlink:href="#DejaVuSans-50"/>
      <use xlink:href="#DejaVuSans-31" x="60.302734"/>
      <use xlink:href="#DejaVuSans-30" x="123.925781"/>
      <use xlink:href="#DejaVuSans-37" x="187.548828"/>
      <use xlink:href="#DejaVuSans-4c" x="251.171875"/>
      <use xlink:href="#DejaVuSans-20" x="306.884766"/>
      <use xlink:href="#DejaVuSans-28" x="338.671875"/>
      <use xlink:href="#DejaVuSans-46" x="377.685547"/>
      <use xlink:href="#DejaVuSans-65" x="429.705078"/>
      <use xlink:href="#DejaVuSans-53" x="491.228516"/>
      <use xlink:href="#DejaVuSans-4f" x="554.705078"/>
      <use xlink:href="#DejaVuSans-34" x="633.416016"/>
      <use xlink:href="#DejaVuSans-20" x="697.039062"/>
      <use xlink:href="#DejaVuSans-41" x="728.826172"/>
      <use xlink:href="#DejaVuSans-4c" x="797.234375"/>
      <use xlink:href="#DejaVuSans-45" x="852.947266"/>
      <use xlink:href="#DejaVuSans-29" x="916.130859"/>
     </g>
    </g>
    <g id="PathCollection_21">
     <defs>
      <path id="m1d8bb4ae88" d="M 0 3.872983 
C 1.027127 3.872983 2.012324 3.464901 2.738613 2.738613 
C 3.464901 2.012324 3.872983 1.027127 3.872983 0 
C 3.872983 -1.027127 3.464901 -2.012324 2.738613 -2.738613 
C 2.012324 -3.464901 1.027127 -3.872983 0 -3.872983 
C -1.027127 -3.872983 -2.012324 -3.464901 -2.738613 -2.738613 
C -3.464901 -2.012324 -3.872983 -1.027127 -3.872983 0 
C -3.872983 1.027127 -3.464901 2.012324 -2.738613 2.738613 
C -2.012324 3.464901 -1.027127 3.872983 0 3.872983 
z
" style="stroke: #6acc64"/>
     </defs>
     <g>
      <use xlink:href="#m1d8bb4ae88" x="377.3" y="131.8515" style="fill: #6acc64; stroke: #6acc64"/>
     </g>
    </g>
    <g id="text_19">
     <!-- L113Q (FeSO4 ALE) -->
     <g style="fill: #262626" transform="translate(397.1 134.739)scale(0.11 -0.11)">
      <defs>
       <path id="DejaVuSans-51" d="M 2522 4238 
Q 1834 4238 1429 3725 
Q 1025 3213 1025 2328 
Q 1025 1447 1429 934 
Q 1834 422 2522 422 
Q 3209 422 3611 934 
Q 4013 1447 4013 2328 
Q 4013 3213 3611 3725 
Q 3209 4238 2522 4238 
z
M 3406 84 
L 4238 -825 
L 3475 -825 
L 2784 -78 
Q 2681 -84 2626 -87 
Q 2572 -91 2522 -91 
Q 1538 -91 948 567 
Q 359 1225 359 2328 
Q 359 3434 948 4092 
Q 1538 4750 2522 4750 
Q 3503 4750 4090 4092 
Q 4678 3434 4678 2328 
Q 4678 1516 4351 937 
Q 4025 359 3406 84 
z
" transform="scale(0.015625)"/>
      </defs>
      <use xlink:href="#DejaVuSans-4c"/>
      <use xlink:href="#DejaVuSans-31" x="55.712891"/>
      <use xlink:href="#DejaVuSans-31" x="119.335938"/>
      <use xlink:href="#DejaVuSans-33" x="182.958984"/>
      <use xlink:href="#DejaVuSans-51" x="246.582031"/>
      <use xlink:href="#DejaVuSans-20" x="325.292969"/>
      <use xlink:href="#DejaVuSans-28" x="357.080078"/>
      <use xlink:href="#DejaVuSans-46" x="396.09375"/>
      <use xlink:href="#DejaVuSans-65" x="448.113281"/>
      <use xlink:href="#DejaVuSans-53" x="509.636719"/>
      <use xlink:href="#DejaVuSans-4f" x="573.113281"/>
      <use xlink:href="#DejaVuSans-34" x="651.824219"/>
      <use xlink:href="#DejaVuSans-20" x="715.447266"/>
      <use xlink:href="#DejaVuSans-41" x="747.234375"/>
      <use xlink:href="#DejaVuSans-4c" x="815.642578"/>
      <use xlink:href="#DejaVuSans-45" x="871.355469"/>
      <use xlink:href="#DejaVuSans-29" x="934.539062"/>
     </g>
    </g>
    <g id="PathCollection_22">
     <defs>
      <path id="mfd098dea98" d="M 0 3.872983 
C 1.027127 3.872983 2.012324 3.464901 2.738613 2.738613 
C 3.464901 2.012324 3.872983 1.027127 3.872983 0 
C 3.872983 -1.027127 3.464901 -2.012324 2.738613 -2.738613 
C 2.012324 -3.464901 1.027127 -3.872983 0 -3.872983 
C -1.027127 -3.872983 -2.012324 -3.464901 -2.738613 -2.738613 
C -3.464901 -2.012324 -3.872983 -1.027127 -3.872983 0 
C -3.872983 1.027127 -3.464901 2.012324 -2.738613 2.738613 
C -2.012324 3.464901 -1.027127 3.872983 0 3.872983 
z
" style="stroke: #8c613c"/>
     </defs>
     <g>
      <use xlink:href="#mfd098dea98" x="377.3" y="147.997438" style="fill: #8c613c; stroke: #8c613c"/>
     </g>
    </g>
    <g id="text_20">
     <!-- A213T (paraquat ALE) -->
     <g style="fill: #262626" transform="translate(397.1 150.884938)scale(0.11 -0.11)">
      <defs>
       <path id="DejaVuSans-54" d="M -19 4666 
L 3928 4666 
L 3928 4134 
L 2272 4134 
L 2272 0 
L 1638 0 
L 1638 4134 
L -19 4134 
L -19 4666 
z
" transform="scale(0.015625)"/>
      </defs>
      <use xlink:href="#DejaVuSans-41"/>
      <use xlink:href="#DejaVuSans-32" x="68.408203"/>
      <use xlink:href="#DejaVuSans-31" x="132.03125"/>
      <use xlink:href="#DejaVuSans-33" x="195.654297"/>
      <use xlink:href="#DejaVuSans-54" x="259.277344"/>
      <use xlink:href="#DejaVuSans-20" x="320.361328"/>
      <use xlink:href="#DejaVuSans-28" x="352.148438"/>
      <use xlink:href="#DejaVuSans-70" x="391.162109"/>
      <use xlink:href="#DejaVuSans-61" x="454.638672"/>
      <use xlink:href="#DejaVuSans-72" x="515.917969"/>
      <use xlink:href="#DejaVuSans-61" x="557.03125"/>
      <use xlink:href="#DejaVuSans-71" x="618.310547"/>
      <use xlink:href="#DejaVuSans-75" x="681.787109"/>
      <use xlink:href="#DejaVuSans-61" x="745.166016"/>
      <use xlink:href="#DejaVuSans-74" x="806.445312"/>
      <use xlink:href="#DejaVuSans-20" x="845.654297"/>
      <use xlink:href="#DejaVuSans-41" x="877.441406"/>
      <use xlink:href="#DejaVuSans-4c" x="945.849609"/>
      <use xlink:href="#DejaVuSans-45" x="1001.5625"/>
      <use xlink:href="#DejaVuSans-29" x="1064.746094"/>
     </g>
    </g>
    <g id="PathCollection_23">
     <defs>
      <path id="m5b3d36fdb1" d="M 0 3.872983 
C 1.027127 3.872983 2.012324 3.464901 2.738613 2.738613 
C 3.464901 2.012324 3.872983 1.027127 3.872983 0 
C 3.872983 -1.027127 3.464901 -2.012324 2.738613 -2.738613 
C 2.012324 -3.464901 1.027127 -3.872983 0 -3.872983 
C -1.027127 -3.872983 -2.012324 -3.464901 -2.738613 -2.738613 
C -3.464901 -2.012324 -3.872983 -1.027127 -3.872983 0 
C -3.872983 1.027127 -3.464901 2.012324 -2.738613 2.738613 
C -2.012324 3.464901 -1.027127 3.872983 0 3.872983 
z
" style="stroke: #4878d0"/>
     </defs>
     <g>
      <use xlink:href="#m5b3d36fdb1" x="377.3" y="164.143375" style="fill: #4878d0; stroke: #4878d0"/>
     </g>
    </g>
    <g id="text_21">
     <!-- P99L (paraquat ALE) -->
     <g style="fill: #262626" transform="translate(397.1 167.030875)scale(0.11 -0.11)">
      <use xlink:href="#DejaVuSans-50"/>
      <use xlink:href="#DejaVuSans-39" x="60.302734"/>
      <use xlink:href="#DejaVuSans-39" x="123.925781"/>
      <use xlink:href="#DejaVuSans-4c" x="187.548828"/>
      <use xlink:href="#DejaVuSans-20" x="243.261719"/>
      <use xlink:href="#DejaVuSans-28" x="275.048828"/>
      <use xlink:href="#DejaVuSans-70" x="314.0625"/>
      <use xlink:href="#DejaVuSans-61" x="377.539062"/>
      <use xlink:href="#DejaVuSans-72" x="438.818359"/>
      <use xlink:href="#DejaVuSans-61" x="479.931641"/>
      <use xlink:href="#DejaVuSans-71" x="541.210938"/>
      <use xlink:href="#DejaVuSans-75" x="604.6875"/>
      <use xlink:href="#DejaVuSans-61" x="668.066406"/>
      <use xlink:href="#DejaVuSans-74" x="729.345703"/>
      <use xlink:href="#DejaVuSans-20" x="768.554688"/>
      <use xlink:href="#DejaVuSans-41" x="800.341797"/>
      <use xlink:href="#DejaVuSans-4c" x="868.75"/>
      <use xlink:href="#DejaVuSans-45" x="924.462891"/>
      <use xlink:href="#DejaVuSans-29" x="987.646484"/>
     </g>
    </g>
    <g id="PathCollection_24">
     <defs>
      <path id="ma261c0dde2" d="M 0 3.872983 
C 1.027127 3.872983 2.012324 3.464901 2.738613 2.738613 
C 3.464901 2.012324 3.872983 1.027127 3.872983 0 
C 3.872983 -1.027127 3.464901 -2.012324 2.738613 -2.738613 
C 2.012324 -3.464901 1.027127 -3.872983 0 -3.872983 
C -1.027127 -3.872983 -2.012324 -3.464901 -2.738613 -2.738613 
C -3.464901 -2.012324 -3.872983 -1.027127 -3.872983 0 
C -3.872983 1.027127 -3.464901 2.012324 -2.738613 2.738613 
C -2.012324 3.464901 -1.027127 3.872983 0 3.872983 
z
" style="stroke: #d65f5f"/>
     </defs>
     <g>
      <use xlink:href="#ma261c0dde2" x="377.3" y="180.289313" style="fill: #d65f5f; stroke: #d65f5f"/>
     </g>
    </g>
    <g id="text_22">
     <!-- G197V (paraquat ALE) -->
     <g style="fill: #262626" transform="translate(397.1 183.176813)scale(0.11 -0.11)">
      <defs>
       <path id="DejaVuSans-47" d="M 3809 666 
L 3809 1919 
L 2778 1919 
L 2778 2438 
L 4434 2438 
L 4434 434 
Q 4069 175 3628 42 
Q 3188 -91 2688 -91 
Q 1594 -91 976 548 
Q 359 1188 359 2328 
Q 359 3472 976 4111 
Q 1594 4750 2688 4750 
Q 3144 4750 3555 4637 
Q 3966 4525 4313 4306 
L 4313 3634 
Q 3963 3931 3569 4081 
Q 3175 4231 2741 4231 
Q 1884 4231 1454 3753 
Q 1025 3275 1025 2328 
Q 1025 1384 1454 906 
Q 1884 428 2741 428 
Q 3075 428 3337 486 
Q 3600 544 3809 666 
z
" transform="scale(0.015625)"/>
       <path id="DejaVuSans-56" d="M 1831 0 
L 50 4666 
L 709 4666 
L 2188 738 
L 3669 4666 
L 4325 4666 
L 2547 0 
L 1831 0 
z
" transform="scale(0.015625)"/>
      </defs>
      <use xlink:href="#DejaVuSans-47"/>
      <use xlink:href="#DejaVuSans-31" x="77.490234"/>
      <use xlink:href="#DejaVuSans-39" x="141.113281"/>
      <use xlink:href="#DejaVuSans-37" x="204.736328"/>
      <use xlink:href="#DejaVuSans-56" x="268.359375"/>
      <use xlink:href="#DejaVuSans-20" x="336.767578"/>
      <use xlink:href="#DejaVuSans-28" x="368.554688"/>
      <use xlink:href="#DejaVuSans-70" x="407.568359"/>
      <use xlink:href="#DejaVuSans-61" x="471.044922"/>
      <use xlink:href="#DejaVuSans-72" x="532.324219"/>
      <use xlink:href="#DejaVuSans-61" x="573.4375"/>
      <use xlink:href="#DejaVuSans-71" x="634.716797"/>
      <use xlink:href="#DejaVuSans-75" x="698.193359"/>
      <use xlink:href="#DejaVuSans-61" x="761.572266"/>
      <use xlink:href="#DejaVuSans-74" x="822.851562"/>
      <use xlink:href="#DejaVuSans-20" x="862.060547"/>
      <use xlink:href="#DejaVuSans-41" x="893.847656"/>
      <use xlink:href="#DejaVuSans-4c" x="962.255859"/>
      <use xlink:href="#DejaVuSans-45" x="1017.96875"/>
      <use xlink:href="#DejaVuSans-29" x="1081.152344"/>
     </g>
    </g>
    <g id="PathCollection_25">
     <defs>
      <path id="me02fcfc4b0" d="M 0 3.872983 
C 1.027127 3.872983 2.012324 3.464901 2.738613 2.738613 
C 3.464901 2.012324 3.872983 1.027127 3.872983 0 
C 3.872983 -1.027127 3.464901 -2.012324 2.738613 -2.738613 
C 2.012324 -3.464901 1.027127 -3.872983 0 -3.872983 
C -1.027127 -3.872983 -2.012324 -3.464901 -2.738613 -2.738613 
C -3.464901 -2.012324 -3.872983 -1.027127 -3.872983 0 
C -3.872983 1.027127 -3.464901 2.012324 -2.738613 2.738613 
C -2.012324 3.464901 -1.027127 3.872983 0 3.872983 
z
" style="stroke: #c7ad7f"/>
     </defs>
     <g>
      <use xlink:href="#me02fcfc4b0" x="377.3" y="196.43525" style="fill: #c7ad7f; stroke: #c7ad7f"/>
     </g>
    </g>
    <g id="text_23">
     <!-- M193I (paraquat ALE) -->
     <g style="fill: #262626" transform="translate(397.1 199.32275)scale(0.11 -0.11)">
      <defs>
       <path id="DejaVuSans-49" d="M 628 4666 
L 1259 4666 
L 1259 0 
L 628 0 
L 628 4666 
z
" transform="scale(0.015625)"/>
      </defs>
      <use xlink:href="#DejaVuSans-4d"/>
      <use xlink:href="#DejaVuSans-31" x="86.279297"/>
      <use xlink:href="#DejaVuSans-39" x="149.902344"/>
      <use xlink:href="#DejaVuSans-33" x="213.525391"/>
      <use xlink:href="#DejaVuSans-49" x="277.148438"/>
      <use xlink:href="#DejaVuSans-20" x="306.640625"/>
      <use xlink:href="#DejaVuSans-28" x="338.427734"/>
      <use xlink:href="#DejaVuSans-70" x="377.441406"/>
      <use xlink:href="#DejaVuSans-61" x="440.917969"/>
      <use xlink:href="#DejaVuSans-72" x="502.197266"/>
      <use xlink:href="#DejaVuSans-61" x="543.310547"/>
      <use xlink:href="#DejaVuSans-71" x="604.589844"/>
      <use xlink:href="#DejaVuSans-75" x="668.066406"/>
      <use xlink:href="#DejaVuSans-61" x="731.445312"/>
      <use xlink:href="#DejaVuSans-74" x="792.724609"/>
      <use xlink:href="#DejaVuSans-20" x="831.933594"/>
      <use xlink:href="#DejaVuSans-41" x="863.720703"/>
      <use xlink:href="#DejaVuSans-4c" x="932.128906"/>
      <use xlink:href="#DejaVuSans-45" x="987.841797"/>
      <use xlink:href="#DejaVuSans-29" x="1051.025391"/>
     </g>
    </g>
   </g>
   <g id="legend_2">
    <g id="patch_13">
     <path d="M 364.1 277.57225 
L 443.678125 277.57225 
Q 445.878125 277.57225 445.878125 275.37225 
L 445.878125 213.62925 
Q 445.878125 211.42925 443.678125 211.42925 
L 364.1 211.42925 
Q 361.9 211.42925 361.9 213.62925 
L 361.9 275.37225 
Q 361.9 277.57225 364.1 277.57225 
z
" style="fill: #ffffff; opacity: 0.8; stroke: #cccccc; stroke-linejoin: miter"/>
    </g>
    <g id="text_24">
     <!-- iModulon -->
     <g style="fill: #262626" transform="translate(366.3 224.947375)scale(0.12 -0.12)">
      <use xlink:href="#DejaVuSans-69"/>
      <use xlink:href="#DejaVuSans-4d" x="27.783203"/>
      <use xlink:href="#DejaVuSans-6f" x="114.0625"/>
      <use xlink:href="#DejaVuSans-64" x="175.244141"/>
      <use xlink:href="#DejaVuSans-75" x="238.720703"/>
      <use xlink:href="#DejaVuSans-6c" x="302.099609"/>
      <use xlink:href="#DejaVuSans-6f" x="329.882812"/>
      <use xlink:href="#DejaVuSans-6e" x="391.064453"/>
     </g>
     <!-- experiments -->
     <g style="fill: #262626" transform="translate(366.3 238.38475)scale(0.12 -0.12)">
      <use xlink:href="#DejaVuSans-65"/>
      <use xlink:href="#DejaVuSans-78" x="59.773438"/>
      <use xlink:href="#DejaVuSans-70" x="118.953125"/>
      <use xlink:href="#DejaVuSans-65" x="182.429688"/>
      <use xlink:href="#DejaVuSans-72" x="243.953125"/>
      <use xlink:href="#DejaVuSans-69" x="285.066406"/>
      <use xlink:href="#DejaVuSans-6d" x="312.849609"/>
      <use xlink:href="#DejaVuSans-65" x="410.261719"/>
      <use xlink:href="#DejaVuSans-6e" x="471.785156"/>
      <use xlink:href="#DejaVuSans-74" x="535.164062"/>
      <use xlink:href="#DejaVuSans-73" x="574.373047"/>
     </g>
    </g>
    <g id="PathCollection_26">
     <defs>
      <path id="mb46f7a8a75" style="stroke: #800080; stroke-width: 1.5"/>
     </defs>
     <g>
      <use xlink:href="#mb46f7a8a75" x="374.225156" y="251.851156" style="fill: #800080; stroke: #800080; stroke-width: 1.5"/>
     </g>
    </g>
    <g id="text_25">
     <!-- ROS stress -->
     <g style="fill: #6b3286" transform="translate(374.225156 254.738656)scale(0.11 -0.11)">
      <use xlink:href="#DejaVuSans-52"/>
      <use xlink:href="#DejaVuSans-4f" x="69.482422"/>
      <use xlink:href="#DejaVuSans-53" x="148.193359"/>
      <use xlink:href="#DejaVuSans-20" x="211.669922"/>
      <use xlink:href="#DejaVuSans-73" x="243.457031"/>
      <use xlink:href="#DejaVuSans-74" x="295.556641"/>
      <use xlink:href="#DejaVuSans-72" x="334.765625"/>
      <use xlink:href="#DejaVuSans-65" x="373.628906"/>
      <use xlink:href="#DejaVuSans-73" x="435.152344"/>
      <use xlink:href="#DejaVuSans-73" x="487.251953"/>
     </g>
    </g>
    <g id="PathCollection_27">
     <defs>
      <path id="mb67db97ef3" style="stroke: #4c72b0; stroke-width: 1.5"/>
     </defs>
     <g>
      <use xlink:href="#mb67db97ef3" x="374.225156" y="267.997094" style="fill: #4c72b0; stroke: #4c72b0; stroke-width: 1.5"/>
     </g>
    </g>
    <g id="text_26">
     <!-- other -->
     <g style="fill: #262626" transform="translate(374.225156 270.884594)scale(0.11 -0.11)">
      <use xlink:href="#DejaVuSans-6f"/>
      <use xlink:href="#DejaVuSans-74" x="61.181641"/>
      <use xlink:href="#DejaVuSans-68" x="100.390625"/>
      <use xlink:href="#DejaVuSans-65" x="163.769531"/>
      <use xlink:href="#DejaVuSans-72" x="225.292969"/>
     </g>
    </g>
   </g>
  </g>
 </g>
 <defs>
  <clipPath id="pfc4886251c">
   <rect x="49.5" y="28.08" width="306.9" height="176.67"/>
  </clipPath>
 </defs>
</svg>
